<?xml version="1.0" encoding="UTF-8" standalone="no"?>
<!-- Created with Inkscape (http://www.inkscape.org/) -->

<svg
   version="1.1"
   id="svg2"
   width="446"
   height="447"
   viewBox="0 0 446 447"
   sodipodi:docname="MAN.svg"
   inkscape:version="1.1.1 (3bf5ae0d25, 2021-09-20)"
   xmlns:inkscape="http://www.inkscape.org/namespaces/inkscape"
   xmlns:sodipodi="http://sodipodi.sourceforge.net/DTD/sodipodi-0.dtd"
   xmlns="http://www.w3.org/2000/svg"
   xmlns:svg="http://www.w3.org/2000/svg">
  <defs
     id="defs6" />
  <sodipodi:namedview
     id="namedview4"
     pagecolor="#ffffff"
     bordercolor="#000000"
     borderopacity="0.25"
     inkscape:pageshadow="2"
     inkscape:pageopacity="0.0"
     inkscape:pagecheckerboard="0"
     showgrid="false"
     inkscape:snap-global="false"
     inkscape:zoom="0.80425055"
     inkscape:cx="99.471489"
     inkscape:cy="213.242"
     inkscape:window-width="1600"
     inkscape:window-height="821"
     inkscape:window-x="-7"
     inkscape:window-y="-9"
     inkscape:window-maximized="1"
     inkscape:current-layer="g8" />
  <g
     inkscape:groupmode="layer"
     inkscape:label="Image"
     id="g8">
    <path
       style="fill:#000000;stroke-width:0.8"
       d="m 344.64894,381.4968 c -1.42274,-0.59874 -1.23943,-3.22445 0.26544,-3.80191 0.69598,-0.26708 2.49756,-0.48559 4.00348,-0.48559 h 2.73807 l -0.20349,-88.6 -0.2035,-88.6 -3.84963,-0.24586 c -3.44553,-0.22005 -3.82342,-0.42999 -3.6,-2 0.22979,-1.61468 0.69483,-1.75414 5.84963,-1.75414 h 5.6 v 92.8 92.8 l -4.8,0.15417 c -2.64,0.0848 -5.25,-0.0352 -5.8,-0.26667 z M 90.84209,380.04434 c -0.27412,-17.44102 0.12856,-184.02342 0.4456,-184.34047 0.80183,-0.80183 10.31159,-0.0221 10.8764,0.89177 1.14756,1.85679 -0.31146,3.01366 -3.80076,3.01366 h -3.5144 v 88.35617 88.35616 l 3.8,0.24383 c 3.18539,0.2044 3.8,0.50262 3.8,1.84384 0,1.43125 -0.61169,1.62479 -5.8,1.83504 -3.19,0.12928 -5.80308,0.0393 -5.80684,-0.2 z m 152.73994,-5.71566 c -0.52745,-0.63553 -1.59024,-0.95516 -2.36175,-0.71029 -1.62979,0.51727 -3.96581,-1.51535 -3.9836,-3.46624 -0.01,-1.08096 -0.14929,-1.12646 -0.71491,-0.23333 -0.4262,0.673 -1.50723,0.95572 -2.74766,0.7186 -1.27912,-0.24452 -2.20044,0.0141 -2.45999,0.69048 -0.5041,1.31365 -3.35365,1.43268 -4.13242,0.17261 -0.5013,-0.81111 -0.65252,-1.58748 -1.03067,-5.29121 -0.0562,-0.55 -0.77802,-1 -1.60415,-1 -3.58255,0 -4.17098,-4.97588 -0.69589,-5.88464 0.96198,-0.25156 2.796,0.0649 4.0756,0.70324 2.55313,1.27367 5.71878,0.86408 7.89011,-1.02087 1.68322,-1.46122 5.03985,-0.77417 5.79185,1.1855 0.29485,0.76837 0.75662,3.74149 1.02615,6.60691 l 0.49005,5.20986 1.4339,-3.2 c 1.28614,-2.87029 1.30654,-3.29636 0.19794,-4.1351 -0.67977,-0.5143 -1.11708,-1.7743 -0.9718,-2.8 0.23197,-1.63779 0.70256,-1.8649 3.86414,-1.8649 h 3.6 l -0.0509,3.2 c -0.028,1.76 -0.33651,3.83 -0.68559,4.6 -0.49025,1.0814 -0.26599,1.4 0.98547,1.4 2.84235,0 4.15103,0.91764 4.15103,2.91069 0,2.23445 -0.39902,2.41468 -6.55397,2.96042 -3.37863,0.29957 -4.80146,0.10555 -5.51294,-0.75173 z m 101.86691,0.75079 c -0.55,-0.22193 -1.03588,-1.72351 -1.07974,-3.33684 -0.0439,-1.61333 -0.3495,-3.83333 -0.67921,-4.93333 -0.51361,-1.71357 -0.6826,-1.42713 -1.17997,2 -0.82768,5.70312 -0.98704,6 -3.22072,6 -1.54704,0 -2.11647,-0.50662 -2.47276,-2.2 -0.2546,-1.21 -0.80374,-2.74 -1.22034,-3.4 -1.58232,-2.50684 -1.77628,-3.45684 -0.96138,-4.70874 0.46229,-0.7102 1.56324,-1.21195 2.44656,-1.11501 1.09012,0.11964 1.75488,-0.41682 2.06941,-1.67001 0.76022,-3.02892 3.64695,-6.10624 5.72807,-6.10624 2.76604,0 3.64552,2.31511 4.16087,10.95293 0.3593,6.02255 0.22041,7.74923 -0.66863,8.31211 -1.23322,0.78077 -1.45669,0.79646 -2.92216,0.20513 z m -38.91442,-1.53561 c -0.26708,-0.69598 -0.48559,-3.97402 -0.48559,-7.28452 0,-6.31495 -1.72382,-14.6172 -3.65889,-17.6219 -2.18583,-3.39405 -0.76704,-6.55535 2.3971,-5.34115 1.34144,0.51475 3.46693,4.73869 4.18092,8.30866 0.63814,3.19072 1.52373,2.39546 5.28914,-4.74972 2.99681,-5.68665 3.80312,-6.32026 5.6688,-4.45459 1.60729,1.60729 1.00946,3.25658 -4.46679,12.32276 -3.90939,6.47218 -4.13152,7.14161 -4.46255,13.44856 -0.3287,6.26268 -0.45077,6.63734 -2.16246,6.63734 -0.99775,0 -2.0326,-0.56944 -2.29968,-1.26544 z m 22.44776,0.7321 c -0.29334,-0.29333 -0.53864,-1.82333 -0.54513,-3.4 -0.0117,-2.84442 -0.0198,-2.85114 -1.0478,-0.86666 -0.75731,1.46197 -1.61497,1.95948 -3.18821,1.84939 -1.18371,-0.0828 -2.1522,0.14865 -2.1522,0.51441 0,0.96986 -2.20726,1.65994 -3.60001,1.1255 -0.7102,-0.27253 -1.205,-1.48678 -1.21224,-2.9749 -0.0136,-2.79076 -0.68293,-4.07402 -2.18776,-4.1944 -0.55,-0.044 -1.36,-0.134 -1.8,-0.2 -0.44,-0.066 -0.8,-1.19315 -0.8,-2.50476 0,-1.89477 0.42306,-2.49094 2.05899,-2.90153 1.14909,-0.28841 3.00515,-0.0567 4.20002,0.52437 1.17755,0.57262 2.501,0.929 2.941,0.79194 0.44,-0.13706 1.43563,-0.31351 2.21249,-0.3921 0.77687,-0.0786 1.83887,-0.56928 2.36,-1.09041 0.52114,-0.52114 1.92759,-0.94751 3.12547,-0.94751 1.75691,0 2.33529,0.50264 2.9918,2.6 0.72201,2.3066 1.29539,8.86934 1.01348,11.6 -0.10751,1.04137 -3.43938,1.39719 -4.3699,0.46666 z m -203.23153,-1.4898 c -0.276,-0.71925 -0.50182,-4.08265 -0.50182,-7.47422 0,-6.51592 -1.67135,-14.46468 -3.69014,-17.54996 -1.63062,-2.49204 -1.14433,-5.29064 0.97183,-5.59282 2.04312,-0.29175 3.76605,2.11219 5.31081,7.40997 1.10789,3.79956 1.11089,3.80201 2.34462,1.91729 0.67942,-1.03792 2.20115,-3.79404 3.38162,-6.12472 2.36986,-4.67896 3.99275,-5.79377 5.80138,-3.98514 1.52327,1.52327 0.50537,4.16138 -4.79639,12.43092 -3.66559,5.7175 -4.65054,7.83862 -2.76373,5.95182 1.2919,-1.29191 4.78564,-1.21487 6.64753,0.14658 1.52987,1.11866 1.8242,1.05474 6.5773,-1.42862 1.94078,-1.014 2.97376,-1.14234 4.14582,-0.51508 1.86495,0.99809 2.17962,1.98944 2.86878,9.03776 0.45609,4.6646 0.341,5.47243 -0.84442,5.92732 -1.95424,0.74991 -3.87171,-0.71753 -4.46036,-3.41352 -0.27794,-1.27294 -0.54794,-1.71444 -0.6,-0.98111 -0.11712,1.64972 -1.66356,2.27163 -3.41468,1.37322 -0.9018,-0.46268 -1.46415,-0.3017 -1.77489,0.50809 -0.60604,1.57932 -4.20568,1.51951 -4.81949,-0.0801 -0.26708,-0.69598 -0.48559,-2.31598 -0.48559,-3.6 0,-1.94182 -0.32852,-2.33456 -1.95279,-2.33456 -1.07403,0 -2.24403,-0.45 -2.6,-1 -0.37858,-0.58494 -0.81324,1.32436 -1.04721,4.6 -0.35337,4.94718 -0.59797,5.62824 -2.09818,5.84229 -1.00162,0.14291 -1.90402,-0.2941 -2.2,-1.06543 z m 89.28153,0.28649 c -0.61266,-0.61267 -0.98781,-3.41099 -0.99517,-7.42335 -0.0129,-7.01532 -1.66092,-15.36197 -3.72216,-18.85139 -1.54432,-2.61431 -0.95838,-4.78861 1.29043,-4.78861 2.00423,0 4.04697,3.03931 5.26385,7.83192 l 0.9329,3.67412 2.06066,-3.55302 c 1.13336,-1.95417 2.69556,-4.90302 3.47157,-6.55302 2.23694,-4.75637 7.03734,-3.6387 5.18382,1.20694 -0.37723,0.98618 -2.57841,4.85306 -4.89153,8.59306 -3.9839,6.44144 -4.2313,7.15811 -4.6917,13.59144 -0.3705,5.17719 -0.7752,6.84656 -1.70267,7.02335 -0.66916,0.12754 -1.65916,-0.2106 -2.2,-0.75144 z m -58.42335,-0.82335 c -0.528,-0.528 -0.96,-1.48966 -0.96,-2.13701 0,-0.64735 -0.55172,-1.78666 -1.22605,-2.53178 -1.10368,-1.21955 -1.08122,-1.74482 0.22505,-5.26299 1.1994,-3.23036 1.79364,-3.90822 3.42605,-3.90822 1.8703,0 2.01181,0.32866 2.67064,6.20272 0.51934,4.6304 0.44381,6.50623 -0.29796,7.4 -1.20018,1.44614 -2.54568,1.52932 -3.83773,0.23728 z m 98.56554,-14.54559 c -0.68636,-1.78861 0.29829,-2.89441 2.57732,-2.89441 1.62522,0 1.95965,0.34343 1.75278,1.8 -0.30458,2.14462 -3.60682,2.97925 -4.3301,1.09441 z m 12.8,0 c -0.68636,-1.78861 0.29829,-2.89441 2.57732,-2.89441 1.62522,0 1.95965,0.34343 1.75278,1.8 -0.30458,2.14462 -3.60682,2.97925 -4.3301,1.09441 z m 12.8,0 c -0.68636,-1.78861 0.29829,-2.89441 2.57732,-2.89441 1.62522,0 1.95965,0.34343 1.75278,1.8 -0.30458,2.14462 -3.60682,2.97925 -4.3301,1.09441 z m -113.62154,-0.8561 c -0.66091,-1.72231 0.33907,-2.83831 2.54321,-2.83831 1.54964,0 1.95279,0.41289 1.95279,2 0,1.60661 -0.39833,2 -2.02511,2 -1.11381,0 -2.22571,-0.52276 -2.47089,-1.16169 z m 12.8,0 c -0.65291,-1.70146 0.33146,-2.83831 2.45762,-2.83831 1.9259,0 2.86452,1.24936 2.25387,3 -0.4833,1.3855 -4.16628,1.25911 -4.71149,-0.16169 z m 12.8,0 c -0.6529,-1.70146 0.33146,-2.83831 2.45762,-2.83831 1.9259,0 2.86452,1.24936 2.25387,3 -0.4833,1.3855 -4.16627,1.25911 -4.71149,-0.16169 z m 107.696,-19.23831 v -2 h 10.4 10.40001 v 2 2 h -10.40001 -10.4 z m -180.26667,0.66666 c -0.29333,-0.29333 -0.53333,-1.19333 -0.53333,-2 0,-1.34638 0.84589,-1.46666 10.31441,-1.46666 8.02504,0 10.40831,0.24471 10.73748,1.10251 0.8808,2.29533 -1.33842,2.89749 -10.67856,2.89749 -5.11867,0 -9.54667,-0.24 -9.84,-0.53334 z m 88.41103,-2.06666 c 0.24697,-1.73895 0.58406,-1.80759 9.93803,-2.02368 7.78803,-0.17992 9.8754,0.009 10.66887,0.96496 1.94901,2.3484 0.0828,2.85872 -10.45412,2.85872 -10.33633,0 -10.40665,-0.0125 -10.15278,-1.8 z m 71.89614,-10.55121 c -1.21398,-1.46275 -0.56859,-3.64879 1.07725,-3.64879 1.5285,0 3.83671,2.33329 3.4553,3.49285 -0.466,1.41678 -3.40231,1.5178 -4.53255,0.15594 z m -56.0405,-1.64879 c 0,-1.73189 0.32346,-2.06535 1.8,-1.85564 1.18146,0.16779 1.8,0.80545 1.8,1.85564 0,1.05018 -0.61854,1.68785 -1.8,1.85564 -1.47654,0.2097 -1.8,-0.12375 -1.8,-1.85564 z m 88.26867,0.74622 c -0.26462,-0.68957 -0.0975,-1.63737 0.37133,-2.10622 1.24436,-1.24436 3.36,-0.15199 3.36,1.73489 0,1.97297 -3.00208,2.27173 -3.73133,0.37133 z m -176.26867,-1.06063 c 0,-1.57372 2.00487,-2.82422 3.27219,-2.04098 0.40029,0.2474 0.72781,1.14857 0.72781,2.0026 0,1.12297 -0.55361,1.55279 -2,1.55279 -1.42899,0 -2,-0.43238 -2,-1.51441 z m 132.37747,-9.7105 c -1.30956,-1.44704 -1.33868,-1.75673 -0.26603,-2.82939 1.44828,-1.44828 3.64446,-0.77509 4.30975,1.32104 1.02277,3.22247 -1.60531,4.20278 -4.04372,1.50835 z m -43.81648,-1.28077 c -0.30854,-0.30855 -0.56099,-1.24603 -0.56099,-2.0833 0,-1.12109 0.47439,-1.45493 1.8,-1.26666 1.17673,0.16712 1.8,0.80586 1.8,1.84468 0,1.58689 -1.97778,2.56651 -3.03901,1.50528 z m 87.7657,-0.59689 c -0.6475,-1.68734 0.26136,-2.89743 2.17617,-2.89743 1.20858,0 1.54487,0.44544 1.35278,1.79182 -0.29835,2.09119 -2.84463,2.88892 -3.52895,1.10561 z m -176.05803,-0.95121 c -0.26461,-0.68957 -0.0975,-1.63737 0.37134,-2.10622 1.24436,-1.24436 3.36,-0.15199 3.36,1.73489 0,1.97297 -3.00208,2.27173 -3.73134,0.37133 z m 120.10881,-9.17113 c -1.37962,-1.52445 -1.38708,-1.70833 -0.12082,-2.9746 1.26627,-1.26627 1.45528,-1.24412 3.05768,0.35828 1.79184,1.79184 1.58091,4.24123 -0.36523,4.24123 -0.60562,0 -1.76285,-0.73121 -2.57163,-1.62491 z m 56.18352,-2.08077 c -0.30854,-0.30855 -0.56099,-1.22099 -0.56099,-2.02766 0,-1.04169 0.59563,-1.46666 2.05564,-1.46666 1.67176,0 2.00791,0.33461 1.8,1.79182 -0.25302,1.77349 -2.21158,2.78556 -3.29465,1.7025 z m -176.2343,-1.39689 c -0.6475,-1.68734 0.26135,-2.89743 2.17616,-2.89743 1.20858,0 1.54488,0.44544 1.35279,1.79182 -0.29835,2.09119 -2.84463,2.88892 -3.52895,1.10561 z m 87.67331,-0.39458 c 0,-1.95055 1.00705,-2.68017 2.76708,-2.00479 1.85074,0.7102 1.1707,3.05142 -0.97526,3.35758 -1.34638,0.19209 -1.79182,-0.1442 -1.79182,-1.35279 z m -3.46666,-7.83619 c -1.05399,-1.05397 -0.49116,-3.26041 2.00932,-7.87705 1.67475,-3.09209 2.22089,-4.80176 1.6,-5.00872 -1.4964,-0.4988 -1.09503,-4.02852 0.65734,-5.78089 2.01502,-2.01503 2.79334,-2.00667 4.85212,0.0522 1.79474,1.79474 1.61785,4.66781 -0.54847,8.90815 -1.4889,2.91435 -1.41008,3.2918 0.91228,4.36903 2.25121,1.04423 2.72074,0.51879 4.79827,-5.36955 1.05231,-2.98261 1.0271,-3.15979 -0.44969,-3.15979 -1.04777,0 -1.56451,-0.54583 -1.56451,-1.65259 0,-3.08319 1.49622,-4.74741 4.26814,-4.74741 4.86453,0 5.75892,3.22768 2.9025,10.47449 l -1.62937,4.13373 1.67488,1.17314 c 1.01569,0.71141 1.57826,1.85117 1.42937,2.89589 -0.21521,1.51007 -0.8134,1.74508 -4.84552,1.90368 -2.53,0.0995 -4.6,-0.12477 -4.6,-0.49843 0,-0.82798 -6.8262,-0.72337 -7.66683,0.1175 -0.74348,0.74369 -3.08179,0.78471 -3.79983,0.0666 z m 96.66666,-0.55062 c -3.64473,-1.09455 -4.34682,-2.89364 -2.51053,-6.4331 1.05271,-2.02909 1.01917,-2.37431 -0.36515,-3.75862 -2.03546,-2.03547 -1.94549,-2.58896 0.95856,-5.89648 2.92945,-3.33647 5.92689,-3.76642 7.16563,-1.02784 0.60932,1.34709 0.42691,3.00777 -0.72494,6.6 l -1.53912,4.8 1.8889,1.17383 c 2.36009,1.46666 3.02561,3.10202 1.84251,4.52757 -1.08087,1.30237 -2.41815,1.30529 -6.71586,0.0146 z m 10.96001,-1.47604 c -0.528,-0.528 -0.96,-1.47551 -0.96,-2.10558 0,-0.63006 -0.75564,-2.36822 -1.6792,-3.86258 -1.35026,-2.18476 -1.48779,-2.94767 -0.70205,-3.89443 0.53744,-0.64758 1.64577,-1.17741 2.46295,-1.17741 0.92591,0 2.09582,-1.19575 3.10466,-3.17325 1.96054,-3.84299 4.15586,-5.23508 6.37922,-4.04518 1.8165,0.97216 2.3695,3.56839 2.63944,12.39153 0.17081,5.58299 0.0166,6.40942 -1.24345,6.66606 -2.59843,0.52921 -3.76005,-1.35382 -3.78589,-6.13711 -0.0274,-5.07919 -1.03328,-4.3196 -1.98356,1.49795 -0.72632,4.44637 -2.24645,5.82566 -4.23212,3.84 z m -21.48452,-1.59425 c -0.37152,-0.57517 -0.70754,-4.10575 -0.74671,-7.84575 -0.0762,-7.27222 -1.65598,-14.64355 -3.85893,-18.00567 -1.60106,-2.44353 -1.00476,-5.19433 1.126,-5.19433 2.02351,0 4.3636,3.16918 5.59951,7.58341 1.18846,4.24476 1.34346,4.12701 5.60369,-4.25657 2.07499,-4.0833 2.87179,-4.97274 4.27561,-4.7727 3.13647,0.44694 2.51362,3.45837 -2.41502,11.67636 -4.50589,7.51314 -4.67284,7.99387 -5.05964,14.5695 -0.36509,6.20664 -0.55048,6.82144 -2.12451,7.04575 -0.94848,0.13516 -2.02848,-0.22484 -2.4,-0.8 z m -180.27549,-0.6337 c -0.92166,-0.58636 -1.16524,-2.20716 -1.05013,-6.98775 0.16234,-6.7421 -2.11961,-17.17986 -4.27734,-19.56478 -1.78544,-1.97343 -1.04318,-4.21503 1.49297,-4.50867 1.79789,-0.20817 2.40313,0.25239 3.67964,2.8 0.8403,1.67703 1.78824,4.12872 2.10653,5.44818 0.56238,2.3313 0.61258,2.35389 1.77822,0.8 0.65973,-0.87946 2.25557,-3.66903 3.54632,-6.19903 1.68558,-3.3039 2.80147,-4.6 3.96041,-4.6 0.88748,0 1.82962,0.56296 2.09365,1.25102 0.59617,1.55358 -0.39545,3.78006 -5.39355,12.1101 -3.76326,6.27202 -3.93672,6.82015 -3.93672,12.44 0,6.89696 -1.11296,8.84768 -4,7.01093 z m 6.1661,0.28738 c -1.0023,-1.0023 -0.60808,-2.7935 1.16187,-5.27916 1.40283,-1.97009 1.55336,-2.70631 0.8,-3.91264 -1.26283,-2.02211 -1.18434,-2.53076 0.70319,-4.55678 1.89595,-2.03506 4.92999,-2.28456 6.38991,-0.52547 0.96318,1.16057 0.55606,3.67547 -1.3079,8.07915 -0.21057,0.49748 0.55552,1.14004 1.70243,1.4279 1.6993,0.4265 2.03893,0.92542 1.83485,2.69547 -0.24076,2.08808 -0.45291,2.1811 -5.48435,2.40487 -2.87865,0.12801 -5.48865,-0.022 -5.8,-0.33334 z m 14.6978,-0.62244 c -0.58448,-0.70425 -0.76471,-1.92922 -0.43617,-2.96438 0.41734,-1.31491 0.0927,-2.11664 -1.27492,-3.14821 l -1.83487,-1.38403 1.67819,-3.89019 c 1.0566,-2.44929 2.24593,-3.97856 3.21103,-4.12879 2.75001,-0.42807 3.47243,1.62362 3.22514,9.1595 -0.21265,6.48043 -0.37353,7.09928 -1.90231,7.31772 -0.9185,0.13123 -2.11824,-0.3015 -2.66609,-0.96162 z m 67.41297,-0.63124 c -0.37075,-0.57517 -0.70633,-4.10575 -0.74574,-7.84575 -0.0778,-7.38121 -1.08911,-12.12431 -3.70305,-17.36702 -1.38518,-2.77821 -1.49979,-3.58263 -0.65546,-4.6 2.2448,-2.7048 4.03006,-1.23422 6.81244,5.61167 l 1.82304,4.48551 2.40652,-4.26508 c 1.32359,-2.34579 2.64047,-5.04183 2.9264,-5.99118 1.16675,-3.87376 5.97421,-2.43253 4.98836,1.49546 -0.26295,1.04762 -2.45532,5.05416 -4.87195,8.9034 -4.29266,6.83741 -4.39921,7.14985 -4.62565,13.56293 -0.21283,6.02756 -0.37279,6.5844 -1.95629,6.81006 -0.94848,0.13516 -2.02786,-0.22484 -2.39862,-0.8 z m 40.52313,-17.04575 c -0.79455,-0.95738 -0.79455,-1.44263 0,-2.4 0.54775,-0.66 1.44775,-1.2 2,-1.2 0.55225,0 1.45225,0.54 2,1.2 0.79455,0.95737 0.79455,1.44262 0,2.4 -0.54775,0.66 -1.44775,1.2 -2,1.2 -0.55225,0 -1.45225,-0.54 -2,-1.2 z m 13.08931,0 c -0.63376,-1.65154 0.22553,-3.6 1.58763,-3.6 0.61993,0 1.57531,0.54 2.12306,1.2 0.79455,0.95737 0.79455,1.44262 0,2.4 -0.54775,0.66 -1.50313,1.2 -2.12306,1.2 -0.61994,0 -1.33437,-0.54 -1.58763,-1.2 z m 13.04403,0.66666 c -1.01343,-1.01343 -0.52874,-3.29725 0.80869,-3.81047 0.75048,-0.28798 1.86625,0.009 2.53128,0.67426 0.97712,0.97712 1.00566,1.41045 0.16001,2.4294 -1.08021,1.30157 -2.59859,1.6082 -3.49998,0.70681 z m -114.62934,-1.42835 c -0.66091,-1.7223 0.33907,-2.83831 2.54321,-2.83831 1.54964,0 1.95279,0.41289 1.95279,2 0,1.60661 -0.39833,2 -2.02511,2 -1.11381,0 -2.22571,-0.52276 -2.47089,-1.16169 z m 12.8,0 c -0.66091,-1.7223 0.33907,-2.83831 2.54321,-2.83831 1.54964,0 1.95279,0.41289 1.95279,2 0,1.60661 -0.39833,2 -2.02511,2 -1.11381,0 -2.22571,-0.52276 -2.47089,-1.16169 z m 12.8,0 c -0.6609,-1.7223 0.33907,-2.83831 2.54322,-2.83831 1.54964,0 1.95278,0.41289 1.95278,2 0,1.60661 -0.39833,2 -2.0251,2 -1.11382,0 -2.22572,-0.52276 -2.4709,-1.16169 z M 301.005,251.8987 c -0.30584,-0.30583 -0.55607,-1.21606 -0.55607,-2.02274 0,-1.35016 0.8623,-1.46666 10.85564,-1.46666 10.80013,0 10.85435,0.009 10.60001,1.8 -0.24763,1.74362 -0.57025,1.80698 -10.29958,2.02274 -5.52416,0.1225 -10.29416,-0.0275 -10.6,-0.33334 z m -181.21171,-2.8894 c 0.25013,-1.76125 0.47953,-1.8 10.65564,-1.8 10.1761,0 10.4055,0.0387 10.65564,1.8 0.25439,1.79118 0.20217,1.8 -10.65564,1.8 -10.85782,0 -10.91003,-0.009 -10.65564,-1.8 z m 88.93352,0.57025 c -0.91435,-2.38277 0.95296,-2.82394 10.98782,-2.59595 9.32573,0.21188 9.9343,0.32372 9.9343,1.8257 0,1.50478 -0.60801,1.61334 -10.21589,1.82402 -8.75369,0.19196 -10.28607,0.0411 -10.70623,-1.05377 z m 25.48212,-5.33025 c -1.43949,-1.43949 -1.16136,-3.40979 0.7219,-5.11412 0.92505,-0.83716 2.17557,-2.47674 2.77893,-3.64352 0.9419,-1.82142 0.93031,-2.25978 -0.0819,-3.09985 -2.55339,-2.11912 -0.8032,-5.58251 2.82107,-5.58251 4.03343,0 5.12032,3.5233 2.8,9.07661 -1.52225,3.64325 -1.53431,3.56441 0.59182,3.86775 2.05729,0.29351 2.79256,2.58757 1.37628,4.29407 -1.13138,1.36324 -4.86816,1.54151 -6.1178,0.29187 -0.62628,-0.62628 -1.02016,-0.62628 -1.40722,0 -0.70822,1.14592 -2.28782,1.10496 -3.48308,-0.0903 z m 91.95977,-0.44 c -0.87596,-1.66501 -0.73911,-10.55188 0.18552,-12.04724 0.35615,-0.57598 1.42316,-0.95423 2.37113,-0.84055 0.94798,0.11367 2.54719,-0.24502 3.55381,-0.79708 3.84274,-2.10751 5.73725,0.15742 5.75886,6.88487 0.006,1.87 0.39484,3.4 0.86406,3.4 0.46922,0 0.73922,0.99 0.6,2.2 -0.20034,1.74122 -0.72201,2.25376 -2.50151,2.45781 -3.30493,0.37895 -4.66582,-1.11764 -4.15434,-4.5686 0.45685,-3.08239 -0.29567,-2.12077 -1.96483,2.51079 -0.9125,2.53201 -3.56463,2.98222 -4.7127,0.8 z m -175.91977,0.0702 c -0.55,-0.22193 -1,-1.32383 -1,-2.44865 0,-1.12483 -0.60568,-2.48803 -1.34596,-3.02933 -1.25399,-0.91694 -1.23199,-1.33298 0.32191,-6.08819 1.42874,-4.37222 1.96582,-5.14031 3.74596,-5.35715 2.40051,-0.29241 2.37214,-0.42043 2.0949,9.45314 -0.20584,7.33088 -0.88207,8.65437 -3.81681,7.47018 z m 168.79067,-0.39952 c -0.54487,-0.54487 -0.99067,-1.56666 -0.99067,-2.27066 0,-0.704 -0.43135,-1.71135 -0.95855,-2.23855 -0.74474,-0.74475 -0.63207,-1.89573 0.50512,-5.16 1.56632,-4.49602 3.15393,-6.34291 4.88232,-5.67967 1.57616,0.60483 2.01843,3.95486 1.35694,10.27822 -0.49862,4.76644 -0.82537,5.63434 -2.19516,5.83066 -0.88514,0.12686 -2.05514,-0.21514 -2.6,-0.76 z m -181.82899,-3.37346 -1.6465,-3.50279 1.58033,-4.69721 c 1.14962,-3.41698 2.01858,-4.76494 3.18828,-4.94574 2.59282,-0.40079 3.47902,2.35192 2.85902,8.88056 -0.82593,8.697 -3.1267,10.3377 -5.98113,4.26518 z m 169.31829,2.22271 c -0.27018,-0.70405 -0.46741,-4.03405 -0.43831,-7.4 0.0546,-6.3072 -1.64429,-14.37686 -3.68235,-17.49177 -2.2113,-3.37968 -0.79317,-6.55839 2.38229,-5.33985 1.40984,0.54101 4.44884,6.84462 4.48502,9.30299 l 0.0266,1.80872 1.68993,-2 c 0.92948,-1.1 2.57579,-3.91599 3.65849,-6.25776 1.08268,-2.34177 2.47482,-4.45204 3.09363,-4.6895 1.28718,-0.49393 3.50473,1.08033 3.50473,2.48804 0,0.51968 -2.20333,4.67153 -4.89629,9.22633 -4.71795,7.97982 -4.91146,8.52463 -5.31277,14.95718 -0.39106,6.26814 -0.52648,6.67571 -2.21813,6.67571 -0.9909,0 -2.02269,-0.57604 -2.29286,-1.28009 z m -180.40094,-0.62468 c -0.52923,-0.63768 -0.87508,-3.59724 -0.81801,-7 0.11076,-6.6046 -1.87031,-16.31652 -3.75255,-18.39637 -1.74181,-1.92468 -1.13579,-5.03804 1.04097,-5.34788 2.15547,-0.3068 4.15752,2.50847 5.47567,7.69988 l 0.93771,3.69306 2.21967,-3.51619 c 1.22082,-1.93391 2.72557,-4.72695 3.34387,-6.20677 1.33553,-3.19636 3.13659,-4.10086 4.81789,-2.41956 1.6123,1.6123 1.09386,3.0195 -4.24595,11.52482 -4.23903,6.752 -4.4556,7.35778 -4.77657,13.36133 -0.18492,3.45877 -0.5342,6.60902 -0.77619,7.00056 -0.65587,1.06123 -2.42623,0.86058 -3.46651,-0.39288 z m 88.72445,-0.48873 c -0.46905,-0.87642 -0.78698,-4.20642 -0.70651,-7.4 0.16304,-6.47105 -0.95294,-12.10091 -3.41402,-17.22289 -1.80629,-3.75925 -1.53749,-5.78361 0.76795,-5.78361 2.16531,0 3.90707,2.27211 5.06736,6.61033 0.55748,2.08432 1.22307,3.78967 1.47909,3.78967 0.58195,0 5.27951,-8.12158 5.98713,-10.3511 0.62591,-1.97207 4.0092,-2.26167 4.72198,-0.40418 0.64348,1.67686 -0.91769,5.19902 -5.41064,12.20701 -3.5226,5.49445 -3.76972,6.23645 -4.04774,12.15343 -0.16286,3.46594 -0.53154,6.68266 -0.8193,7.14828 -0.84101,1.36078 -2.70255,0.97725 -3.6253,-0.74694 z m 11.61491,-0.15999 c -0.28542,-1.01558 -0.91716,-2.65651 -1.40385,-3.64651 -0.64283,-1.30758 -0.64508,-2.29242 -0.008,-3.6 0.48217,-0.99 1.2012,-2.88 1.59784,-4.2 0.46661,-1.55286 1.33167,-2.48988 2.45076,-2.65462 2.74452,-0.40404 3.64,2.6202 2.8314,9.56226 -0.65048,5.58463 -0.79763,5.90523 -2.81765,6.13887 -1.6528,0.19116 -2.24784,-0.16807 -2.65028,-1.6 z m -59.32819,-19.44417 c -0.27646,-0.72044 -0.13309,-1.67945 0.3186,-2.13114 1.30408,-1.30408 3.7912,-0.42517 3.7912,1.33976 0,2.03494 -3.38266,2.6863 -4.1098,0.79138 z m 12.8,0 c -0.27646,-0.72044 -0.13309,-1.67945 0.3186,-2.13114 1.30408,-1.30408 3.7912,-0.42517 3.7912,1.33976 0,2.03494 -3.38266,2.6863 -4.1098,0.79138 z m 12.8,0 c -0.27646,-0.72044 -0.13309,-1.67945 0.3186,-2.13114 1.30408,-1.30408 3.7912,-0.42517 3.7912,1.33976 0,2.03494 -3.38266,2.6863 -4.1098,0.79138 z m 63.05416,-0.60234 c 0.18726,-1.3185 0.79065,-1.8 2.25564,-1.8 1.46499,0 2.06839,0.4815 2.25564,1.8 0.21853,1.53868 -0.10893,1.8 -2.25564,1.8 -2.1467,0 -2.47417,-0.26132 -2.25564,-1.8 z m 12.8,0 c 0.18726,-1.3185 0.79065,-1.8 2.25564,-1.8 1.46499,0 2.06839,0.4815 2.25564,1.8 0.21853,1.53868 -0.10893,1.8 -2.25564,1.8 -2.1467,0 -2.47417,-0.26132 -2.25564,-1.8 z m 12.8,0 c 0.18726,-1.3185 0.79065,-1.8 2.25564,-1.8 1.46499,0 2.06839,0.4815 2.25564,1.8 0.21853,1.53868 -0.10893,1.8 -2.25564,1.8 -2.1467,0 -2.47417,-0.26132 -2.25564,-1.8 z m 19.05564,-14.6 v -2.04644 l 10.6,0.22322 c 9.99227,0.21042 10.60001,0.31496 10.60001,1.82322 0,1.50826 -0.60774,1.6128 -10.60001,1.82322 l -10.6,0.22322 z m -180.26667,0.66666 c -0.29333,-0.29332 -0.53333,-1.19332 -0.53333,-2 0,-1.34666 0.84705,-1.46666 10.35278,-1.46666 10.45473,0 12.34427,0.51419 10.41813,2.83504 -0.74576,0.89859 -3.10901,1.16496 -10.33554,1.16496 -5.15279,0 -9.60871,-0.24 -9.90204,-0.53334 z m 88.41103,-2.06666 c 0.24697,-1.73894 0.58406,-1.80758 9.93803,-2.02368 7.78803,-0.17991 9.8754,0.009 10.66887,0.96496 1.94901,2.34841 0.0828,2.85872 -10.45412,2.85872 -10.33633,0 -10.40665,-0.0125 -10.15278,-1.8 z m 14.62443,-25.36249 c -0.89716,-0.36359 -4.04716,-3.4202 -7,-6.79246 -5.75546,-6.57299 -6.68395,-9.40686 -3.9058,-11.92106 1.67986,-1.52024 3.5726,-1.68235 5.7896,-0.49584 1.49607,0.80068 1.5478,0.44902 1.5592,-10.6 0.0142,-13.78657 0.56627,-15.42815 5.18821,-15.42815 4.62194,0 5.17398,1.64158 5.18821,15.42815 0.0114,11.04902 0.0631,11.40068 1.5592,10.6 3.62717,-1.94121 7.25259,0.16543 7.25259,4.2143 0,2.92673 -11.28604,15.98226 -13.57801,15.70684 -0.23209,-0.0279 -1.15603,-0.34818 -2.0532,-0.71178 z m 41.43121,-70.79902 c -1.99916,-0.89289 -2.6,-1.65749 -2.6,-3.30861 0,-2.09481 0.091,-2.13489 3.71713,-1.63787 2.31315,0.31706 4.12613,0.17005 4.8,-0.38921 1.83602,-1.52377 1.2201,-2.20063 -2.23566,-2.4568 -4.57071,-0.33882 -5.59366,-2.112267 -3.48147,-6.035727 2.00193,-3.71864 4.69928,-5.20411 7.29894,-4.01962 1.02867,0.46869 2.08194,1.60753 2.34061,2.53076 0.25868,0.92323 1.05147,2.81891 1.76178,4.21262 1.09367,2.14594 1.14146,3.034717 0.31198,5.803237 -1.55387,5.18637 -6.87201,7.55285 -11.91331,5.30122 z m -91.02479,-0.6146 c -0.24432,-0.63669 -0.33869,-4.18754 -0.20972,-7.89076 l 0.23451,-6.733127 3,-0.24829 c 2.75017,-0.22761 3,-0.0777 3,1.8 0,1.28737 -0.44579,2.04829 -1.2,2.04829 -0.88456,0 -1.2,0.92383 -1.2,3.514407 0,2.38593 0.38532,3.66227 1.2,3.97489 1.44643,0.55505 1.61577,3.70616 0.2,3.72163 -0.55,0.006 -1.80563,0.22685 -2.79028,0.49076 -1.17044,0.31371 -1.94408,0.079 -2.23451,-0.6778 z m 11.82479,0.4195 c -2.06773,-0.40742 -2.49553,-3.2267 -0.6,-3.95409 0.81468,-0.31262 1.2,-1.58896 1.2,-3.97489 0,-2.590577 -0.31544,-3.514407 -1.2,-3.514407 -0.75421,0 -1.2,-0.76092 -1.2,-2.04829 0,-1.87772 0.24982,-2.02761 3,-1.8 l 3,0.24829 v 7.589027 c 0,8.09106 -0.0968,8.26283 -4.2,7.45434 z m 49.91682,-2.20519 c -2.34736,-2.17546 -2.67652,-4.83092 -0.89138,-7.191097 0.68488,-0.90549 1.17456,-3.29626 1.17456,-5.73457 0,-5.1483 0.55639,-6.712533 2.38763,-6.712533 1.94937,0 3.48755,2.061313 2.98168,3.995743 -0.33406,1.27746 -0.0274,1.60426 1.50559,1.60426 5.99196,0 7.12552,10.131857 1.63147,14.582207 -2.48611,2.01383 -6.28318,1.77882 -8.78955,-0.54401 z m 6.91477,-6.0374 c 0.23001,-0.879557 0.092,-1.800807 -0.30669,-2.047207 -0.3987,-0.24641 -0.7249,0.47323 -0.7249,1.5992 0,2.451227 0.45595,2.649247 1.03159,0.448007 z m 9.61062,7.04164 c -4.15612,-2.00802 -4.70779,-14.242437 -0.64221,-14.242437 1.65147,0 2.8,2.60366 2.8,6.34741 0,4.378427 1.30141,4.110567 2.65961,-0.54741 0.92354,-3.16727 1.42709,-3.8 3.02421,-3.8 2.50585,0 2.9073,2.62137 1.11869,7.304757 -1.99984,5.23651 -4.96258,6.86917 -8.9603,4.93768 z m 58.49818,-0.10931 c -0.22517,-0.58678 -0.30387,-4.09678 -0.17489,-7.799997 l 0.2345,-6.73313 2.89821,-0.24222 c 3.59279,-0.30027 5.02047,1.96808 2.35379,3.7398 -2.32328,1.54357 -2.25358,6.158817 0.12206,8.082497 1.51832,1.22946 1.61952,1.62273 0.70204,2.72823 -1.29416,1.55937 -5.56357,1.7158 -6.13571,0.22482 z m 11.05962,0.53705 c -1.39336,-0.56224 -1.25293,-3.20193 0.2,-3.75948 1.74193,-0.66844 1.69112,-7.710697 -0.0556,-7.710697 -0.84456,0 -1.17194,-0.5893 -1,-1.8 0.20535,-1.44586 0.84587,-1.84885 3.25564,-2.04829 2.04288,-0.16908 3.02146,0.0862 3.06725,0.8 0.25831,4.02664 -0.0512,13.575067 -0.4615,14.238997 -0.51663,0.83591 -3.24873,0.98844 -5.00575,0.27947 z m -38.40001,-1.6 c -0.55,-0.22193 -1,-1.27351 -1,-2.33684 0,-1.50584 0.42331,-1.93334 1.91441,-1.93334 2.36871,0 3.23283,1.93848 1.59446,3.57685 -0.67273,0.67274 -1.28744,1.19473 -1.36601,1.16 -0.0786,-0.0347 -0.59286,-0.24474 -1.14286,-0.46667 z m 13.5327,-1.11204 c -1.65418,-1.77555 -2.4937,-4.80789 -4.13242,-14.926207 -1.00044,-6.177203 -0.73892,-7.431933 1.54898,-7.431933 2.16167,0 3.01249,1.51109 3.6035,6.400003 1.16872,9.66767 1.11593,9.628 4.11026,3.08909 1.48321,-3.239 3.04708,-6.879093 3.47525,-8.089093 0.56189,-1.58787 1.32274,-2.2 2.73452,-2.2 2.8549,0 3.0298,1.57522 0.76356,6.876883 -1.11041,2.59772 -3.22197,7.60312 -4.69235,11.123117 -2.93612,7.02892 -4.59365,8.18253 -7.4113,5.15814 z m -71.72967,-1.54432 c -0.29937,-1.36304 -0.31395,-4.173747 -0.0324,-6.246027 0.5779,-4.25353 -1.11419,-12.126343 -3.76872,-17.534803 -1.36285,-2.77671 -1.47317,-3.58318 -0.62929,-4.6 0.56281,-0.67814 1.5245,-1.23299 2.13709,-1.23299 1.40719,0 4.05095,4.25339 5.15699,8.29678 0.78672,2.87608 0.92316,2.98816 1.9146,1.5727 0.58712,-0.83824 2.20462,-3.76179 3.59444,-6.49677 2.52875,-4.976256 3.66575,-5.811217 5.46426,-4.012706 1.64781,1.647806 1.10354,3.265876 -3.80848,11.322296 -4.68332,7.681323 -4.77262,7.937953 -5,14.369353 -0.2272,6.426107 -0.27122,6.552947 -2.35785,6.794377 -1.80613,0.20898 -2.20829,-0.12716 -2.67064,-2.23221 z m -74.2697,0.25285 c -0.29333,-0.29333 -0.53333,-1.17452 -0.53333,-1.95819 0,-1.15484 0.79593,-1.47069 4.2,-1.66667 l 4.2,-0.24181 0.22428,-9.757347 0.22428,-9.757353 -4.22428,-0.24265 c -3.70125,-0.2126 -4.25631,-0.46844 -4.48302,-2.06627 l -0.25873,-1.82363 10.65873,0.22363 c 10.05086,0.21087 10.65874,0.31487 10.65874,1.82362 0,1.36736 -0.61422,1.63529 -4.22428,1.84265 l -4.22428,0.24265 0.22428,9.757353 0.22428,9.757347 3.6,0.25051 c 4.24043,0.29507 5.46648,1.18249 4.02813,2.91559 -0.81609,0.98333 -2.92656,1.2339 -10.39276,1.2339 -5.15279,0 -9.60871,-0.24 -9.90204,-0.53333 z m 42.81103,-10.866667 c 0.24657,-1.73615 0.55361,-1.8 8.65564,-1.8 8.10203,0 8.40907,0.0639 8.65564,1.8 0.25198,1.77424 0.1281,1.8 -8.65564,1.8 -8.78374,0 -8.90762,-0.0258 -8.65564,-1.8 z m -0.14436,-7.400003 v -2 h 8.8 8.8 v 2 2 h -8.8 -8.8 z M 295.80118,74.64155 c -0.52374,-0.52373 -0.95225,-1.340016 -0.95225,-1.813957 0,-1.225052 4.5191,-6.018289 5.67409,-6.018289 1.59166,0 6.45658,5.529072 6.1744,7.017316 -0.3395,1.79053 -4.07103,2.24242 -5.39033,0.65276 -0.88297,-1.063919 -1.22017,-1.069766 -2.77928,-0.0482 -1.37205,0.899 -1.99029,0.9467 -2.72663,0.21037 z M 162.13464,72.495018 c -1.35906,-1.359056 -1.63972,-1.388846 -2.73797,-0.290604 -1.43193,1.431926 -3.74774,0.812525 -3.74774,-1.002396 0,-2.468927 3.38133,-5.992714 5.75045,-5.992714 1.23725,0 2.24955,0.362381 2.24955,0.805291 0,0.44291 0.9,1.587831 2,2.544268 2.39961,2.086439 2.5386,3.505896 0.45259,4.622294 -2.05439,1.099483 -2.20779,1.072943 -3.96688,-0.686139 z m 56.99217,-2.915468 c -0.91435,-2.382768 0.95296,-2.823932 10.98782,-2.595947 9.32573,0.211875 9.9343,0.323716 9.9343,1.825701 0,1.504774 -0.60801,1.613333 -10.21589,1.82402 -8.75369,0.191956 -10.28607,0.04113 -10.70623,-1.053774 z"
       id="path117" />
  </g>
</svg>
