<?xml version="1.0" encoding="UTF-8" standalone="no"?>
<!-- Created with Inkscape (http://www.inkscape.org/) -->

<svg
   version="1.1"
   id="svg2"
   width="446"
   height="447"
   viewBox="0 0 446 447"
   sodipodi:docname="RN.svg"
   inkscape:version="1.1.1 (3bf5ae0d25, 2021-09-20)"
   xmlns:inkscape="http://www.inkscape.org/namespaces/inkscape"
   xmlns:sodipodi="http://sodipodi.sourceforge.net/DTD/sodipodi-0.dtd"
   xmlns="http://www.w3.org/2000/svg"
   xmlns:svg="http://www.w3.org/2000/svg">
  <defs
     id="defs6" />
  <sodipodi:namedview
     id="namedview4"
     pagecolor="#ffffff"
     bordercolor="#000000"
     borderopacity="0.25"
     inkscape:pageshadow="2"
     inkscape:pageopacity="0.0"
     inkscape:pagecheckerboard="0"
     showgrid="false"
     inkscape:zoom="0.80425056"
     inkscape:cx="186.50904"
     inkscape:cy="262.97775"
     inkscape:window-width="1600"
     inkscape:window-height="821"
     inkscape:window-x="-7"
     inkscape:window-y="-9"
     inkscape:window-maximized="1"
     inkscape:current-layer="g8" />
  <g
     inkscape:groupmode="layer"
     inkscape:label="Image"
     id="g8">
    <g
       id="g433"
       transform="translate(1.5698015,7.1824831)">
      <path
         style="fill:#fef7f8;stroke-width:0.8"
         d="m 228.50989,362.11025 c 0.0384,-0.93196 0.22795,-1.12152 0.48333,-0.48334 0.2311,0.5775 0.20268,1.26751 -0.0631,1.53334 -0.26584,0.26583 -0.45491,-0.20667 -0.42018,-1.05 z m 4.8,-40.8 c 0.0384,-0.93196 0.22795,-1.12152 0.48333,-0.48334 0.2311,0.5775 0.20268,1.26751 -0.0631,1.53334 -0.26584,0.26583 -0.45491,-0.20667 -0.42018,-1.05 z"
         id="path617" />
      <path
         style="fill:#f6fafb;stroke-width:0.8"
         d="m 325.5964,176.77691 -2.34967,-2.6 2.6,2.34967 c 2.42357,2.19023 2.96772,2.85033 2.34967,2.85033 -0.13768,0 -1.30768,-1.17 -2.6,-2.6 z m 5.18978,-2 -1.93945,-2.2 2.2,1.93945 c 1.21,1.0667 2.2,2.0567 2.2,2.2 0,0.62742 -0.64784,0.11678 -2.46055,-1.93945 z"
         id="path615" />
      <path
         style="fill:#fdf3f4;stroke-width:0.8"
         d="m 228.50989,359.71025 c 0.0384,-0.93196 0.22795,-1.12152 0.48333,-0.48334 0.2311,0.5775 0.20268,1.26751 -0.0631,1.53334 -0.26584,0.26583 -0.45491,-0.20667 -0.42018,-1.05 z m 4.8,-36 c 0.0384,-0.93196 0.22795,-1.12152 0.48333,-0.48334 0.2311,0.5775 0.20268,1.26751 -0.0631,1.53334 -0.26584,0.26583 -0.45491,-0.20667 -0.42018,-1.05 z"
         id="path613" />
      <path
         style="fill:#f1f5fd;stroke-width:0.8"
         d="m 335.1964,179.17691 -2.34967,-2.6 2.6,2.34968 c 1.43,1.29231 2.6,2.46232 2.6,2.59999 0,0.61805 -0.6601,0.0739 -2.85033,-2.34967 z m -14.4,-7.2 -2.34967,-2.6 2.6,2.34968 c 2.42357,2.19022 2.96772,2.85032 2.34967,2.85032 -0.13768,0 -1.30768,-1.17 -2.6,-2.6 z"
         id="path611" />
      <path
         style="fill:#fdeff0;stroke-width:0.8"
         d="m 228.57304,356.97691 c 0,-1.1 0.18159,-1.55 0.40352,-1 0.22192,0.55 0.22192,1.45 0,2 -0.22193,0.55 -0.40352,0.1 -0.40352,-1 z m 4.8,-30.4 c 0,-1.1 0.18159,-1.55 0.40352,-1 0.22192,0.55 0.22192,1.45 0,2 -0.22193,0.55 -0.40352,0.1 -0.40352,-1 z"
         id="path609" />
      <path
         style="fill:#ecf2fd;stroke-width:0.8"
         d="m 339.17072,183.17691 -1.52399,-1.8 1.8,1.524 c 1.69155,1.43217 2.16419,2.076 1.52399,2.076 -0.15181,0 -0.96181,-0.81 -1.8,-1.8 z m -22.02604,-14.8 c -0.99509,-1.26885 -0.9668,-1.29714 0.30205,-0.30204 1.3326,1.04509 1.75638,1.70204 1.09795,1.70204 -0.16612,0 -0.79612,-0.63 -1.4,-1.4 z"
         id="path607" />
      <path
         style="fill:#fcebec;stroke-width:0.8"
         d="m 228.50989,354.11025 c 0.0384,-0.93196 0.22795,-1.12152 0.48333,-0.48334 0.2311,0.5775 0.20268,1.26751 -0.0631,1.53334 -0.26584,0.26583 -0.45491,-0.20667 -0.42018,-1.05 z m 4.8,-24.8 c 0.0384,-0.93196 0.22795,-1.12152 0.48333,-0.48334 0.2311,0.5775 0.20268,1.26751 -0.0631,1.53334 -0.26584,0.26583 -0.45491,-0.20667 -0.42018,-1.05 z"
         id="path605" />
      <path
         style="fill:#e2edfd;stroke-width:0.8"
         d="m 172.80909,288.77691 -3.16236,-3.4 3.4,3.16236 c 3.16197,2.94096 3.76763,3.63764 3.16236,3.63764 -0.1307,0 -1.6607,-1.53 -3.4,-3.4 z m 169.13559,-102.8 c -0.9951,-1.26885 -0.9668,-1.29714 0.30205,-0.30205 1.3326,1.0451 1.75638,1.70205 1.09795,1.70205 -0.16612,0 -0.79612,-0.63 -1.4,-1.4 z m -27.2,-20 c -0.99509,-1.26885 -0.9668,-1.29714 0.30205,-0.30205 0.77,0.60389 1.4,1.23388 1.4,1.40001 0,0.65843 -0.65695,0.23464 -1.70205,-1.09796 z"
         id="path603" />
      <path
         style="fill:#fde7e8;stroke-width:0.8"
         d="m 228.57304,351.37691 c 0,-1.1 0.18159,-1.55 0.40352,-1 0.22192,0.55 0.22192,1.45 0,2 -0.22193,0.55 -0.40352,0.1 -0.40352,-1 z m 4.8,-19.2 c 0,-1.1 0.18159,-1.55 0.40352,-1 0.22192,0.55 0.22192,1.45 0,2 -0.22193,0.55 -0.40352,0.1 -0.40352,-1 z"
         id="path601" />
      <path
         style="fill:#ededed;stroke-width:0.8"
         d="m 131.6133,342.37691 c 3.31517,-3.53215 4.03344,-4.16727 4.03344,-3.56656 0,0.12839 -1.71,1.83839 -3.8,3.79999 l -3.8,3.56657 z M 299.64673,157.47487 c 0,-0.16612 0.63,-0.79612 1.4,-1.4 1.26885,-0.9951 1.29714,-0.9668 0.30205,0.30204 -1.0451,1.3326 -1.70205,1.75639 -1.70205,1.09796 z"
         id="path599" />
      <path
         style="fill:#dce8fd;stroke-width:0.8"
         d="m 141.14469,355.57691 c -0.9951,-1.26884 -0.9668,-1.29714 0.30204,-0.30204 0.77,0.60387 1.4,1.23388 1.4,1.39999 0,0.65844 -0.65695,0.23465 -1.70204,-1.09795 z m 24.47197,-74 -3.96993,-4.2 4.2,3.96993 c 3.90272,3.68893 4.56688,4.43007 3.96993,4.43007 -0.12654,0 -2.01654,-1.89 -4.2,-4.2 z"
         id="path597" />
      <path
         style="fill:#fce2e3;stroke-width:0.8"
         d="m 228.50989,348.51025 c 0.0384,-0.93196 0.22795,-1.12152 0.48333,-0.48334 0.2311,0.5775 0.20268,1.26751 -0.0631,1.53334 -0.26584,0.26583 -0.45491,-0.20667 -0.42018,-1.05 z m 4.8,-13.6 c 0.0384,-0.93196 0.22795,-1.12152 0.48333,-0.48334 0.2311,0.5775 0.20268,1.26751 -0.0631,1.53334 -0.26584,0.26583 -0.45491,-0.20667 -0.42018,-1.05 z"
         id="path595" />
      <path
         style="fill:#d8e6fd;stroke-width:0.8"
         d="m 144.38618,358.77691 -1.93945,-2.2 2.2,1.93945 c 2.05624,1.81271 2.56688,2.46055 1.93945,2.46055 -0.14329,0 -1.13329,-0.99 -2.2,-2.2 z"
         id="path593" />
      <path
         style="fill:#fcdee0;stroke-width:0.8"
         d="m 228.57304,345.77691 c 0,-1.1 0.18159,-1.55 0.40352,-1 0.22192,0.55 0.22192,1.45 0,2 -0.22193,0.55 -0.40352,0.1 -0.40352,-1 z m 4.8,-8 c 0,-1.1 0.18159,-1.55 0.40352,-1 0.22192,0.55 0.22192,1.45 0,2 -0.22193,0.55 -0.40352,0.1 -0.40352,-1 z"
         id="path591" />
      <path
         style="fill:#d3e3fd;stroke-width:0.8"
         d="m 148.79641,363.17691 -2.34968,-2.6 2.6,2.34968 c 1.43,1.29232 2.6,2.46232 2.6,2.59999 0,0.61805 -0.6601,0.0739 -2.85032,-2.34967 z"
         id="path589" />
      <path
         style="fill:#fbdbdc;stroke-width:0.8"
         d="m 228.50989,342.91025 c 0.0384,-0.93196 0.22795,-1.12152 0.48333,-0.48334 0.2311,0.5775 0.20268,1.26751 -0.0631,1.53334 -0.26584,0.26583 -0.45491,-0.20667 -0.42018,-1.05 z"
         id="path587" />
      <path
         style="fill:#cee1fb;stroke-width:0.8"
         d="m 153.59641,367.97691 -2.34968,-2.6 2.6,2.34968 c 2.42357,2.19022 2.96772,2.85032 2.34968,2.85032 -0.13768,0 -1.30768,-1.17 -2.6,-2.6 z"
         id="path585" />
      <path
         style="fill:#fad6d8;stroke-width:0.8"
         d="m 233.37304,342.57691 c 0,-1.1 0.18159,-1.55 0.40352,-1 0.22192,0.55 0.22192,1.45 0,2 -0.22193,0.55 -0.40352,0.1 -0.40352,-1 z m -4.86315,-2.06666 c 0.0384,-0.93196 0.22795,-1.12152 0.48333,-0.48334 0.2311,0.5775 0.20268,1.26751 -0.0631,1.53334 -0.26584,0.26583 -0.45491,-0.20667 -0.42018,-1.05 z"
         id="path583" />
      <path
         style="fill:#cbdefd;stroke-width:0.8"
         d="m 157.98618,372.37691 -1.93945,-2.2 2.2,1.93945 c 2.05624,1.81271 2.56688,2.46055 1.93945,2.46055 -0.14329,0 -1.13329,-0.99 -2.2,-2.2 z"
         id="path581" />
      <path
         style="fill:#fad2d3;stroke-width:0.8"
         d="m 233.37304,345.77691 c 0,-1.1 0.18159,-1.55 0.40352,-1 0.22192,0.55 0.22192,1.45 0,2 -0.22193,0.55 -0.40352,0.1 -0.40352,-1 z m -4.8,-8 c 0,-1.1 0.18159,-1.55 0.40352,-1 0.22192,0.55 0.22192,1.45 0,2 -0.22193,0.55 -0.40352,0.1 -0.40352,-1 z"
         id="path579" />
      <path
         style="fill:#c4dafd;stroke-width:0.8"
         d="m 162.80367,377.17691 -2.75694,-3 3,2.75694 c 2.79234,2.56609 3.36784,3.24306 2.75694,3.24306 -0.13369,0 -1.48369,-1.35 -3,-3 z"
         id="path577" />
      <path
         style="fill:#dedede;stroke-width:0.8"
         d="m 281.24673,133.47487 c 0,-0.16612 0.63,-0.79612 1.4,-1.4 1.26885,-0.9951 1.29714,-0.96681 0.30205,0.30204 -1.0451,1.3326 -1.70205,1.75639 -1.70205,1.09796 z m -0.8,-35.200001 c 0,-0.166125 0.63,-0.796125 1.4,-1.4 1.26885,-0.995097 1.29714,-0.966801 0.30205,0.302044 -1.0451,1.332598 -1.70205,1.756383 -1.70205,1.097956 z"
         id="path575" />
      <path
         style="fill:#faced0;stroke-width:0.8"
         d="m 233.30989,348.51025 c 0.0384,-0.93196 0.22795,-1.12152 0.48333,-0.48334 0.2311,0.5775 0.20268,1.26751 -0.0631,1.53334 -0.26584,0.26583 -0.45491,-0.20667 -0.42018,-1.05 z m -4.8,-13.6 c 0.0384,-0.93196 0.22795,-1.12152 0.48333,-0.48334 0.2311,0.5775 0.20268,1.26751 -0.0631,1.53334 -0.26584,0.26583 -0.45491,-0.20667 -0.42018,-1.05 z"
         id="path573" />
      <path
         style="fill:#f9cbcc;stroke-width:0.8"
         d="m 233.30989,350.91025 c 0.0384,-0.93196 0.22795,-1.12152 0.48333,-0.48334 0.2311,0.5775 0.20268,1.26751 -0.0631,1.53334 -0.26584,0.26583 -0.45491,-0.20667 -0.42018,-1.05 z m -4.8,-18.4 c 0.0384,-0.93196 0.22795,-1.12152 0.48333,-0.48334 0.2311,0.5775 0.20268,1.26751 -0.0631,1.53334 -0.26584,0.26583 -0.45491,-0.20667 -0.42018,-1.05 z"
         id="path571" />
      <path
         style="fill:#bcd5fd;stroke-width:0.8"
         d="m 160.77073,381.57691 -1.524,-1.8 1.8,1.52399 c 1.69156,1.43218 2.1642,2.07601 1.524,2.07601 -0.15181,0 -0.96181,-0.81 -1.8,-1.8 z m -4.38455,-4.4 -1.93945,-2.2 2.2,1.93945 c 2.05624,1.81271 2.56688,2.46055 1.93945,2.46055 -0.14329,0 -1.13329,-0.99 -2.2,-2.2 z"
         id="path569" />
      <path
         style="fill:#f9c6c8;stroke-width:0.8"
         d="m 233.30989,353.31025 c 0.0384,-0.93196 0.22795,-1.12152 0.48333,-0.48334 0.2311,0.5775 0.20268,1.26751 -0.0631,1.53334 -0.26584,0.26583 -0.45491,-0.20667 -0.42018,-1.05 z m -4.8,-23.2 c 0.0384,-0.93196 0.22795,-1.12152 0.48333,-0.48334 0.2311,0.5775 0.20268,1.26751 -0.0631,1.53334 -0.26584,0.26583 -0.45491,-0.20667 -0.42018,-1.05 z"
         id="path567" />
      <path
         style="fill:#b7d2fd;stroke-width:0.8"
         d="m 151.99641,372.77691 -2.34968,-2.6 2.6,2.34967 c 2.42357,2.19023 2.96772,2.85033 2.34968,2.85033 -0.13768,0 -1.30768,-1.17 -2.6,-2.6 z"
         id="path565" />
      <path
         style="fill:#f9c3c5;stroke-width:0.8"
         d="m 233.30989,355.71025 c 0.0384,-0.93196 0.22795,-1.12152 0.48333,-0.48334 0.2311,0.5775 0.20268,1.26751 -0.0631,1.53334 -0.26584,0.26583 -0.45491,-0.20667 -0.42018,-1.05 z m -4.8,-28 c 0.0384,-0.93196 0.22795,-1.12152 0.48333,-0.48334 0.2311,0.5775 0.20268,1.26751 -0.0631,1.53334 -0.26584,0.26583 -0.45491,-0.20667 -0.42018,-1.05 z"
         id="path563" />
      <path
         style="fill:#b1cefd;stroke-width:0.8"
         d="m 147.58618,368.37691 -1.93945,-2.2 2.2,1.93945 c 2.05624,1.81271 2.56688,2.46055 1.93945,2.46055 -0.14329,0 -1.13329,-0.99 -2.2,-2.2 z"
         id="path561" />
      <path
         style="fill:#f9bdc0;stroke-width:0.8"
         d="m 233.37304,358.57691 c 0,-1.1 0.18159,-1.55 0.40352,-1 0.22192,0.55 0.22192,1.45 0,2 -0.22193,0.55 -0.40352,0.1 -0.40352,-1 z m -4.77035,-34 c 0.0163,-1.32 0.1956,-1.76315 0.39843,-0.98477 0.20284,0.77837 0.1895,1.85837 -0.0297,2.4 -0.21914,0.54162 -0.38509,-0.0952 -0.36879,-1.41523 z"
         id="path559" />
      <path
         style="fill:#aacafd;stroke-width:0.8"
         d="m 143.19641,363.97691 -2.34967,-2.6 2.59999,2.34968 c 1.43,1.29232 2.6,2.46232 2.6,2.6 0,0.61804 -0.6601,0.0739 -2.85032,-2.34968 z"
         id="path557" />
      <path
         style="fill:#f9babc;stroke-width:0.8"
         d="m 233.30989,361.31025 c 0.0384,-0.93196 0.22795,-1.12152 0.48333,-0.48334 0.2311,0.5775 0.20268,1.26751 -0.0631,1.53334 -0.26584,0.26583 -0.45491,-0.20667 -0.42018,-1.05 z"
         id="path555" />
      <path
         style="fill:#a5c7fd;stroke-width:0.8"
         d="m 138.78618,359.57691 -1.93944,-2.2 2.2,1.93945 c 2.05623,1.81271 2.56687,2.46055 1.93944,2.46055 -0.14329,0 -1.13329,-0.99 -2.2,-2.2 z"
         id="path553" />
      <path
         style="fill:#f8b6b9;stroke-width:0.8"
         d="m 233.30989,363.71025 c 0.0384,-0.93196 0.22795,-1.12152 0.48333,-0.48334 0.2311,0.5775 0.20268,1.26751 -0.0631,1.53334 -0.26584,0.26583 -0.45491,-0.20667 -0.42018,-1.05 z m -4.8,-44 c 0.0384,-0.93196 0.22795,-1.12152 0.48333,-0.48334 0.2311,0.5775 0.20268,1.26751 -0.0631,1.53334 -0.26584,0.26583 -0.45491,-0.20667 -0.42018,-1.05 z"
         id="path551" />
      <path
         style="fill:#f8b1b4;stroke-width:0.8"
         d="m 233.37304,366.57691 c 0,-1.1 0.18159,-1.55 0.40352,-1 0.22192,0.55 0.22192,1.45 0,2 -0.22193,0.55 -0.40352,0.1 -0.40352,-1 z m -4.8,-49.6 c 0,-1.1 0.18159,-1.55 0.40352,-1 0.22192,0.55 0.22192,1.45 0,2 -0.22193,0.55 -0.40352,0.1 -0.40352,-1 z"
         id="path549" />
      <path
         style="fill:#9bc1fd;stroke-width:0.8"
         d="m 160.77073,283.17691 -1.524,-1.8 1.8,1.524 c 1.69156,1.43217 2.1642,2.076 1.524,2.076 -0.15181,0 -0.96181,-0.81 -1.8,-1.8 z"
         id="path547" />
      <path
         style="fill:#f8acae;stroke-width:0.8"
         d="m 228.50989,312.51025 c 0.0384,-0.93196 0.22795,-1.12152 0.48333,-0.48334 0.2311,0.5775 0.20268,1.26751 -0.0631,1.53334 -0.26584,0.26583 -0.45491,-0.20667 -0.42018,-1.05 z"
         id="path545" />
      <path
         style="fill:#95bdfd;stroke-width:0.8"
         d="m 163.97073,286.37691 -1.524,-1.8 1.8,1.52399 c 1.69156,1.43218 2.1642,2.07601 1.524,2.07601 -0.15181,0 -0.96181,-0.81 -1.8,-1.8 z"
         id="path543" />
      <path
         style="fill:#f7a5a9;stroke-width:0.8"
         d="m 228.50989,308.51025 c 0.0384,-0.93196 0.22795,-1.12152 0.48333,-0.48334 0.2311,0.5775 0.20268,1.26751 -0.0631,1.53334 -0.26584,0.26583 -0.45491,-0.20667 -0.42018,-1.05 z"
         id="path541" />
      <path
         style="fill:#f7a2a5;stroke-width:0.8"
         d="m 228.50989,306.11025 c 0.0384,-0.93196 0.22795,-1.12152 0.48333,-0.48334 0.2311,0.5775 0.20268,1.26751 -0.0631,1.53334 -0.26584,0.26583 -0.45491,-0.20667 -0.42018,-1.05 z"
         id="path539" />
      <path
         style="fill:#bdbdbd;stroke-width:0.8"
         d="m 207.70989,105.31025 c 0.0384,-0.93196 0.22795,-1.12152 0.48333,-0.48334 0.2311,0.5775 0.20268,1.2675 -0.0631,1.53334 -0.26584,0.26583 -0.45491,-0.20667 -0.42018,-1.05 z m 5.6,-3.2 c 0.0384,-0.93196 0.22795,-1.12152 0.48333,-0.48334 0.2311,0.5775 0.20268,1.2675 -0.0631,1.53334 -0.26584,0.26583 -0.45491,-0.20667 -0.42018,-1.05 z m -47.86316,-8.921368 c 2.09,-0.164799 5.51,-0.164799 7.6,0 2.09,0.164798 0.38,0.299634 -3.8,0.299634 -4.18,0 -5.89,-0.134836 -3.8,-0.299634 z m 79.06316,-19.078635 c 0.0384,-0.931955 0.22795,-1.12152 0.48333,-0.483334 0.2311,0.5775 0.20268,1.2675 -0.0631,1.533334 -0.26584,0.265832 -0.45491,-0.206668 -0.42018,-1.05 z m 0.8,-18.4 c 0.0384,-0.931955 0.22795,-1.12152 0.48333,-0.483334 0.2311,0.5775 0.20268,1.2675 -0.0631,1.533334 -0.26584,0.265832 -0.45491,-0.206668 -0.42018,-1.05 z m -49.85383,-9.699143 c 0.99513,-0.191354 2.43513,-0.184089 3.2,0.01614 0.76487,0.200234 -0.0494,0.356797 -1.80933,0.347918 -1.76,-0.0089 -2.3858,-0.172708 -1.39067,-0.364063 z"
         id="path537" />
      <path
         style="fill:#f69da1;stroke-width:0.8"
         d="m 228.57304,303.37691 c 0,-1.1 0.18159,-1.55 0.40352,-1 0.22192,0.55 0.22192,1.45 0,2 -0.22193,0.55 -0.40352,0.1 -0.40352,-1 z"
         id="path535" />
      <path
         style="fill:#83b1fd;stroke-width:0.8"
         d="m 168.38618,290.77691 -1.93945,-2.2 2.2,1.93945 c 2.05624,1.81271 2.56688,2.46055 1.93945,2.46055 -0.14329,0 -1.13329,-0.99 -2.2,-2.2 z"
         id="path533" />
      <path
         style="fill:#f69a9d;stroke-width:0.8"
         d="m 228.50989,300.51025 c 0.0384,-0.93196 0.22795,-1.12152 0.48333,-0.48334 0.2311,0.5775 0.20268,1.26751 -0.0631,1.53334 -0.26584,0.26583 -0.45491,-0.20667 -0.42018,-1.05 z"
         id="path531" />
      <path
         style="fill:#7fb0fd;stroke-width:0.8"
         d="m 172.38618,294.77691 -1.93945,-2.2 2.2,1.93945 c 2.05624,1.81271 2.56688,2.46055 1.93945,2.46055 -0.14329,0 -1.13329,-0.99 -2.2,-2.2 z"
         id="path529" />
      <path
         style="fill:#f69599;stroke-width:0.8"
         d="m 228.57304,297.77691 c 0,-1.1 0.18159,-1.55 0.40352,-1 0.22192,0.55 0.22192,1.45 0,2 -0.22193,0.55 -0.40352,0.1 -0.40352,-1 z"
         id="path527" />
      <path
         style="fill:#7aacfd;stroke-width:0.8"
         d="m 176.38618,298.77691 -1.93945,-2.2 2.2,1.93945 c 2.05624,1.81271 2.56688,2.46055 1.93945,2.46055 -0.14329,0 -1.13329,-0.99 -2.2,-2.2 z"
         id="path525" />
      <path
         style="fill:#74a9fc;stroke-width:0.8"
         d="m 182.74469,305.17691 c -0.9951,-1.26884 -0.9668,-1.29714 0.30204,-0.30205 1.3326,1.0451 1.75639,1.70205 1.09796,1.70205 -0.16612,0 -0.79612,-0.63 -1.4,-1.4 z m -3.2,-3.2 c -0.9951,-1.26884 -0.9668,-1.29714 0.30204,-0.30205 0.77,0.60388 1.4,1.23388 1.4,1.4 0,0.65844 -0.65695,0.23465 -1.70204,-1.09795 z"
         id="path523" />
      <path
         style="fill:#5c9afd;stroke-width:0.8"
         d="m 327.97072,178.37691 -1.52399,-1.8 1.8,1.52399 c 1.69155,1.43218 2.16419,2.07601 1.52399,2.07601 -0.15181,0 -0.96181,-0.81 -1.8,-1.8 z m 0.8,-4.8 -1.52399,-1.8 1.8,1.52399 c 0.99,0.8382 1.8,1.6482 1.8,1.8 0,0.6402 -0.64383,0.16757 -2.07601,-1.52399 z"
         id="path521" />
      <path
         style="fill:#7dd496;stroke-width:0.8"
         d="m 189.49754,380.37804 c 7.39795,-0.13215 19.27794,-0.1319 26.4,5.5e-4 7.12206,0.13246 1.06919,0.24058 -13.45081,0.24028 -14.52,-3.1e-4 -20.34713,-0.10868 -12.94919,-0.24083 z"
         id="path519" />
      <path
         style="fill:#5394fd;stroke-width:0.8"
         d="m 331.54468,176.37691 c -0.99509,-1.26885 -0.9668,-1.29714 0.30205,-0.30204 1.3326,1.04509 1.75638,1.70204 1.09795,1.70204 -0.16612,0 -0.79612,-0.63 -1.4,-1.4 z m -6.77396,-1.2 -1.52399,-1.8 1.8,1.52399 c 0.99,0.8382 1.8,1.6482 1.8,1.8 0,0.64021 -0.64383,0.16757 -2.07601,-1.52399 z"
         id="path517" />
      <path
         style="fill:#999999;stroke-width:0.8"
         d="m 304.82238,99.376913 c 0,-26.62 0.10075,-37.51 0.2239,-24.2 0.12315,13.31 0.12315,35.089997 0,48.399997 -0.12315,13.31 -0.2239,2.42 -0.2239,-24.199997 z"
         id="path515" />
      <path
         style="fill:#418afd;stroke-width:0.8"
         d="m 337.57072,182.37691 -1.52399,-1.8 1.8,1.52399 c 0.99,0.8382 1.8,1.6482 1.8,1.80001 0,0.6402 -0.64383,0.16755 -2.07601,-1.524 z m -19.2,-13.6 -1.52399,-1.8 1.8,1.524 c 0.99,0.83819 1.8,1.64819 1.8,1.79999 0,0.64021 -0.64383,0.16756 -2.07601,-1.52399 z"
         id="path513" />
      <path
         style="fill:#3984fc;stroke-width:0.8"
         d="m 175.97073,292.77691 -1.524,-1.8 1.8,1.52399 c 1.69156,1.43218 2.1642,2.07601 1.524,2.07601 -0.15181,0 -0.96181,-0.81 -1.8,-1.8 z m 164.79999,-107.2 -1.52399,-1.8 1.8,1.52399 c 1.69155,1.43218 2.16419,2.07601 1.52399,2.07601 -0.15181,0 -0.96181,-0.81 -1.8,-1.8 z m -25.22604,-19.6 c -0.99509,-1.26885 -0.9668,-1.29714 0.30205,-0.30205 0.77,0.60389 1.4,1.23388 1.4,1.40001 0,0.65843 -0.65695,0.23464 -1.70205,-1.09796 z"
         id="path511" />
      <path
         style="fill:#3481fd;stroke-width:0.8"
         d="m 170.01941,286.77691 -4.37268,-4.6 4.6,4.37268 c 2.53,2.40496 4.6,4.47496 4.6,4.59999 0,0.59381 -0.76497,-0.0991 -4.82732,-4.37267 z"
         id="path509" />
      <path
         style="fill:#307ffd;stroke-width:0.8"
         d="m 141.14469,356.37691 c -0.9951,-1.26884 -0.9668,-1.29714 0.30204,-0.30205 0.77,0.60388 1.4,1.23388 1.4,1.40001 0,0.65843 -0.65695,0.23464 -1.70204,-1.09796 z m 22.05172,-76.4 -2.34968,-2.6 2.6,2.34967 c 1.43,1.29233 2.6,2.46233 2.6,2.60001 0,0.61804 -0.6601,0.0739 -2.85032,-2.34968 z"
         id="path507" />
      <path
         style="fill:#2b7bfd;stroke-width:0.8"
         d="m 149.22907,364.37691 -6.78234,-7 7,6.78234 c 3.85,3.73029 7,6.88029 7,7 0,0.58209 -0.91843,-0.28095 -7.21766,-6.78234 z"
         id="path505" />
      <path
         style="fill:#2578fd;stroke-width:0.8"
         d="m 160.41941,375.57691 -4.37268,-4.6 4.6,4.37268 c 4.27355,4.06235 4.96648,4.82732 4.37268,4.82732 -0.12504,0 -2.19504,-2.07 -4.6,-4.6 z"
         id="path503" />
      <path
         style="fill:#2176fd;stroke-width:0.8"
         d="m 154.82362,374.77691 -5.17689,-5.4 5.4,5.17689 c 5.01576,4.80852 5.76571,5.62311 5.17689,5.62311 -0.12271,0 -2.55271,-2.43 -5.4,-5.4 z"
         id="path501" />
      <path
         style="fill:#1d74fd;stroke-width:0.8"
         d="m 150.92351,370.72042 c -9.37115,-9.13293 -14.35105,-13.43835 -15.4992,-13.4 -1.16557,0.039 -2.26075,-0.93871 -3.52147,-3.14351 -1.00638,-1.76 -1.8357,-3.42399 -1.84294,-3.69775 -0.0336,-1.27173 6.52788,-1.4704 8.85296,-0.26805 2.72365,1.40845 2.93393,4.06107 0.30323,3.82494 -1.54183,-0.13838 -1.54128,-0.12029 0.0306,1.03171 0.88,0.64491 7.44419,6.97841 14.58709,14.07444 10.16986,10.10314 12.7951,13.13321 12.10204,13.9683 -0.48677,0.58653 -0.95701,1.06641 -1.04495,1.06641 -0.0879,0 -6.37328,-6.05542 -13.96741,-13.45649 z m -13.89673,-16.14351 c -0.0663,-0.88 -0.40392,-1.6 -0.75028,-1.6 -0.75722,0 -0.77825,0.2822 -0.14417,1.93457 0.66351,1.7291 1.0393,1.58853 0.89445,-0.33457 z m 35.16242,-60.68024 c -7.36783,-7.41414 -13.58525,-13.17414 -13.81648,-12.8 -0.96059,1.55426 -2.51206,0.46433 -4.15618,-2.91976 -1.99974,-4.11608 -1.74101,-4.39116 1.53637,-1.63342 1.31624,1.10754 2.87143,1.76156 3.56027,1.49722 1.87072,-0.71785 29.38671,26.86723 28.21192,28.28276 -0.48085,0.5794 -1.11403,1.05344 -1.40706,1.05344 -0.29303,0 -6.56101,-6.06611 -13.92884,-13.48024 z m -11.74247,-16.91976 c 0,-0.44 0.36,-0.8 0.8,-0.8 0.44,0 0.8,0.36 0.8,0.8 0,0.44 -0.36,0.8 -0.8,0.8 -0.44,0 -0.8,-0.36 -0.8,-0.8 z m 167.3618,-99.4307 c -7.78869,-7.80378 -13.08908,-13.73893 -13.16458,-14.74111 -0.071,-0.94343 -1.19223,-2.29449 -2.5618,-3.0871 l -2.43542,-1.40946 2.2,2.24328 c 2.52833,2.57806 2.64072,3.06342 1.02069,4.40793 -0.97984,0.81319 -1.487,0.45764 -2.99835,-2.10205 -1.00047,-1.69444 -1.85088,-4.43079 -1.8898,-6.08079 -0.0389,-1.65 -0.0134,-3 0.0566,-3 0.0701,0 2.34251,1.07304 5.04994,2.38454 3.58258,1.73543 4.79563,2.71541 4.45618,3.6 -0.25653,0.6685 -0.72122,1.21546 -1.03265,1.21546 -0.31143,0 5.67046,6.19989 13.29308,13.77754 7.62262,7.57765 13.73611,14.14765 13.58552,14.6 -0.77404,2.3253 -3.64495,0.14932 -15.57939,-11.80824 z"
         id="path499" />
      <path
         style="fill:#1d73fd;stroke-width:0.8"
         d="m 136.13233,354.91148 c -0.63408,-1.65237 -0.61305,-1.93457 0.14417,-1.93457 0.34636,0 0.68399,0.72 0.75028,1.6 0.14485,1.9231 -0.23094,2.06367 -0.89445,0.33457 z M 314.04673,163.486 c 0,-0.38 -0.99,-1.70038 -2.2,-2.93418 l -2.2,-2.24328 2.43542,1.40946 c 1.33949,0.7752 2.48712,2.09559 2.55028,2.93418 0.0632,0.8386 -0.0428,1.52473 -0.23542,1.52473 -0.19266,0 -0.35028,-0.31091 -0.35028,-0.69091 z"
         id="path497" />
      <path
         style="fill:#7d7d7d;stroke-width:0.8"
         d="m 301.46195,147.62252 c 0.77838,-0.20283 1.85838,-0.1895 2.4,0.0297 0.54163,0.21915 -0.0952,0.3851 -1.41522,0.36879 -1.32,-0.0163 -1.76315,-0.1956 -0.98478,-0.39843 z m -104.79999,-0.8 c 0.77837,-0.20283 1.85837,-0.1895 2.4,0.0297 0.54162,0.21914 -0.0952,0.3851 -1.41523,0.36879 -1.32,-0.0163 -1.76315,-0.1956 -0.98477,-0.39843 z m -31.61523,-46.4354 c 2.31,-0.1616 6.09,-0.1616 8.4,0 2.31,0.1616 0.42,0.29382 -4.2,0.29382 -4.62,0 -6.51,-0.13222 -4.2,-0.29382 z m 44.26316,-27.076873 c 0.0384,-0.931955 0.22795,-1.12152 0.48333,-0.483334 0.2311,0.5775 0.20268,1.2675 -0.0631,1.533334 -0.26584,0.265832 -0.45491,-0.206668 -0.42018,-1.05 z m 92.53684,-22.463159 c 0.55,-0.221929 1.45,-0.221929 2,0 0.55,0.221931 0.1,0.403509 -1,0.403509 -1.1,0 -1.55,-0.181578 -1,-0.403509 z"
         id="path495" />
      <path
         style="fill:#1a7be1;stroke-width:0.8"
         d="m 180.79641,297.57691 -2.34968,-2.6 2.6,2.34968 c 2.42357,2.19022 2.96772,2.85032 2.34968,2.85032 -0.13768,0 -1.30768,-1.17 -2.6,-2.6 z"
         id="path493" />
      <path
         style="fill:#187cda;stroke-width:0.8"
         d="m 185.18618,301.97691 -1.93945,-2.2 2.2,1.93945 c 2.05624,1.81271 2.56688,2.46055 1.93945,2.46055 -0.14329,0 -1.13329,-0.99 -2.2,-2.2 z"
         id="path491" />
      <path
         style="fill:#ee3c42;stroke-width:0.8"
         d="m 232.60269,295.77691 c 0.0163,-1.32 0.1956,-1.76315 0.39843,-0.98477 0.20284,0.77837 0.1895,1.85837 -0.0297,2.4 -0.21914,0.54162 -0.38509,-0.0952 -0.36879,-1.41523 z"
         id="path489" />
      <path
         style="fill:#ed353c;stroke-width:0.8"
         d="m 232.63233,300.17691 c 0,-1.54 0.16464,-2.17 0.36587,-1.4 0.20121,0.77 0.20121,2.03 0,2.8 -0.20123,0.77 -0.36587,0.14 -0.36587,-1.4 z"
         id="path487" />
      <path
         style="fill:#3abe61;stroke-width:0.8"
         d="m 226.24673,384.42545 c 0.77,-0.20122 2.03,-0.20122 2.8,0 0.77,0.20122 0.14,0.36586 -1.4,0.36586 -1.54,0 -2.17,-0.16464 -1.4,-0.36586 z"
         id="path485" />
      <path
         style="fill:#34bc5c;stroke-width:0.8"
         d="m 220.24673,384.41233 c 0.99,-0.19069 2.61,-0.19069 3.6,0 0.99,0.19068 0.18,0.34669 -1.8,0.34669 -1.98,0 -2.79,-0.15601 -1.8,-0.34669 z"
         id="path483" />
      <path
         style="fill:#ed2b32;stroke-width:0.8"
         d="m 232.63233,304.97691 c 0,-1.54 0.16464,-2.17 0.36587,-1.4 0.20121,0.77 0.20121,2.03 0,2.8 -0.20123,0.77 -0.36587,0.14 -0.36587,-1.4 z"
         id="path481" />
      <path
         style="fill:#2fbb58;stroke-width:0.8"
         d="m 215.86196,384.42252 c 0.77837,-0.20283 1.85837,-0.1895 2.4,0.0297 0.54162,0.21915 -0.0952,0.3851 -1.41523,0.36879 -1.32,-0.0163 -1.76315,-0.1956 -0.98477,-0.39843 z"
         id="path479" />
      <path
         style="fill:#2bba55;stroke-width:0.8"
         d="m 211.04673,384.42545 c 0.77,-0.20122 2.03,-0.20122 2.8,0 0.77,0.20122 0.14,0.36586 -1.4,0.36586 -1.54,0 -2.17,-0.16464 -1.4,-0.36586 z"
         id="path477" />
      <path
         style="fill:#686868;stroke-width:0.8"
         d="m 195.22238,98.576913 c 0,-26.62 0.10075,-37.51 0.22391,-24.2 0.12315,13.31 0.12315,35.089997 0,48.399997 -0.12316,13.31 -0.22391,2.42 -0.22391,-24.199997 z"
         id="path475" />
      <path
         style="fill:#ec2129;stroke-width:0.8"
         d="m 232.57304,312.17691 c 0,-1.1 0.18159,-1.55 0.40352,-1 0.22192,0.55 0.22192,1.45 0,2 -0.22193,0.55 -0.40352,0.1 -0.40352,-1 z"
         id="path473" />
      <path
         style="fill:#26b851;stroke-width:0.8"
         d="m 206.24673,384.42545 c 0.77,-0.20122 2.03,-0.20122 2.8,0 0.77,0.20122 0.14,0.36586 -1.4,0.36586 -1.54,0 -2.17,-0.16464 -1.4,-0.36586 z"
         id="path471" />
      <path
         style="fill:#ec1d25;stroke-width:0.8"
         d="m 229.30989,368.51025 c 0.0384,-0.93196 0.22795,-1.12152 0.48333,-0.48334 0.2311,0.5775 0.20268,1.26751 -0.0631,1.53334 -0.26584,0.26583 -0.45491,-0.20667 -0.42018,-1.05 z m 3.2,-53.6 c 0.0384,-0.93196 0.22795,-1.12152 0.48333,-0.48334 0.2311,0.5775 0.20268,1.26751 -0.0631,1.53334 -0.26584,0.26583 -0.45491,-0.20667 -0.42018,-1.05 z"
         id="path469" />
      <path
         style="fill:#ec1a22;stroke-width:0.8"
         d="m 229.32201,380.77691 c -0.37681,-0.99 -1.2679,-3.19396 -1.9802,-4.89769 -1.71371,-4.09902 -1.63754,-4.75437 0.50492,-4.34434 l 1.8,0.34449 -0.2487,-38.14694 c -0.23039,-35.33638 -0.14827,-38.18549 1.1145,-38.67007 0.74976,-0.28771 1.51613,-0.37018 1.70303,-0.18328 0.18692,0.1869 0.55172,17.60695 0.81068,38.7112 0.43996,35.85482 0.56164,38.34762 1.85538,38.00931 2.32211,-0.60724 2.30742,0.75724 -0.0644,5.97732 -2.40038,5.28298 -4.28473,6.38028 -5.49521,3.2 z m 4.72472,-88.96236 c 0,-2.6902 4.17275,-5.4662 33.12596,-22.03764 21.22737,-12.14953 31.09567,-18.20793 30.3616,-18.63975 -2.39415,-1.40835 -1.0412,-2.856 3.51244,-3.75828 9.54051,-1.89041 10.41974,-0.87525 4.9255,5.68701 -3.33155,3.97918 -5.2016,4.87253 -5.66684,2.70713 -0.18724,-0.87151 -9.29936,3.98772 -33.00389,17.6 -18.00988,10.34214 -32.85988,18.80389 -33,18.80389 -0.14012,0 -0.25477,-0.16306 -0.25477,-0.36236 z m -14.55584,-5.61502 c -2.06571,-0.56886 -15.51616,-7.72769 -29.8899,-15.9085 -20.27662,-11.54041 -26.44352,-14.70856 -27.51474,-14.13527 -1.08847,0.58254 -2.16993,-0.0624 -5.11009,-3.04745 -2.05119,-2.08249 -3.72943,-4.45 -3.72943,-5.26112 0,-1.25888 0.43916,-1.40228 3,-0.97954 6.78056,1.11932 9.1768,2.14682 8.75632,3.7547 -0.33736,1.29007 4.21616,4.15689 29.32216,18.46075 16.34683,9.31343 30.06352,17.23958 30.48152,17.61366 1.03526,0.92649 -0.75357,0.75917 -5.31584,-0.49723 z"
         id="path467" />
      <path
         style="fill:#21b64d;stroke-width:0.8"
         d="m 201.44673,384.42545 c 0.77,-0.20122 2.03,-0.20122 2.8,0 0.77,0.20122 0.14,0.36586 -1.4,0.36586 -1.54,0 -2.17,-0.16464 -1.4,-0.36586 z"
         id="path465" />
      <path
         style="fill:#1db549;stroke-width:0.8"
         d="m 197.46196,384.42252 c 0.77837,-0.20283 1.85837,-0.1895 2.4,0.0297 0.54162,0.21915 -0.0952,0.3851 -1.41523,0.36879 -1.32,-0.0163 -1.76315,-0.1956 -0.98477,-0.39843 z"
         id="path463" />
      <path
         style="fill:#c03525;stroke-width:0.8"
         d="m 157.57073,254.37691 -1.524,-1.8 1.8,1.52399 c 1.69156,1.43218 2.1642,2.07601 1.524,2.07601 -0.15181,0 -0.96181,-0.81 -1.8,-1.8 z"
         id="path461" />
      <path
         style="fill:#18b446;stroke-width:0.8"
         d="m 192.64673,384.42545 c 0.77,-0.20122 2.03,-0.20122 2.8,0 0.77,0.20122 0.14,0.36586 -1.4,0.36586 -1.54,0 -2.17,-0.16464 -1.4,-0.36586 z"
         id="path459" />
      <path
         style="fill:#13b242;stroke-width:0.8"
         d="m 188.66196,384.42252 c 0.77837,-0.20283 1.85837,-0.1895 2.4,0.0297 0.54162,0.21915 -0.0952,0.3851 -1.41523,0.36879 -1.32,-0.0163 -1.76315,-0.1956 -0.98477,-0.39843 z"
         id="path457" />
      <path
         style="fill:#10b13f;stroke-width:0.8"
         d="m 185.04673,384.44709 c 0.55,-0.22193 1.45,-0.22193 2,0 0.55,0.22193 0.1,0.40351 -1,0.40351 -1.1,0 -1.55,-0.18158 -1,-0.40351 z"
         id="path455" />
      <path
         style="fill:#0db03d;stroke-width:0.8"
         d="m 181.46196,384.42252 c 0.77837,-0.20283 1.85837,-0.1895 2.4,0.0297 0.54162,0.21915 -0.0952,0.3851 -1.41523,0.36879 -1.32,-0.0163 -1.76315,-0.1956 -0.98477,-0.39843 z"
         id="path453" />
      <path
         style="fill:#08ae39;stroke-width:0.8"
         d="m 177.46196,384.42252 c 0.77837,-0.20283 1.85837,-0.1895 2.4,0.0297 0.54162,0.21915 -0.0952,0.3851 -1.41523,0.36879 -1.32,-0.0163 -1.76315,-0.1956 -0.98477,-0.39843 z M 157.35811,255.3503 c -1.03875,-0.86536 -1.54454,-1.57339 -1.12399,-1.57339 0.42055,0 1.41622,0.72 2.21261,1.6 1.82951,2.02158 1.35605,2.01 -1.08862,-0.0266 z"
         id="path451" />
      <path
         style="fill:#01a644;stroke-width:0.8"
         d="m 183.22169,299.17691 -4.77496,-5 5,4.77496 c 4.64458,4.43553 5.36608,5.22504 4.77496,5.22504 -0.12377,0 -2.37377,-2.25 -5,-5 z"
         id="path449" />
      <path
         style="fill:#00ac32;stroke-width:0.8"
         d="m 170.29089,385.84502 c -3.22523,-1.02173 -3.99842,-1.57129 -3.4528,-2.45413 0.38669,-0.62567 0.54916,-1.38662 0.36104,-1.69099 -0.38727,-0.62663 5.43911,-3.12299 7.2889,-3.12299 0.6649,0 1.41614,0.54 1.6694,1.2 0.39641,1.03302 4.1223,1.2 26.7749,1.2 17.55726,0 26.3144,0.27481 26.3144,0.82578 0,0.45418 0.81,1.15136 1.8,1.5493 1.12773,0.45328 -8.60964,0.74244 -26.07176,0.77421 -26.15748,0.0476 -27.95346,0.1425 -29.2,1.54304 -1.26669,1.42318 -1.5208,1.43132 -5.48408,0.17578 z m 12.38926,-87.83185 c -3.88334,-3.94258 -13.14434,-18.392 -12.31771,-19.21863 0.14432,-0.14431 1.15795,0.0781 2.25252,0.49425 1.36185,0.51778 3.33285,3.18044 6.24337,8.43427 3.45584,6.23817 4.52829,7.59032 5.72021,7.21202 1.69523,-0.53805 3.30418,2.68979 2.90657,5.8311 -0.21883,1.7288 -0.61286,1.50304 -4.80496,-2.75301 z m -14.193,-24.94253 c -1.96473,-0.54822 -3.13008,-2.22498 -9.23918,-13.29373 -2.00177,-3.62689 -2.54649,-5.12892 -1.54601,-4.263 0.84963,0.73535 2.08301,1.45535 2.74086,1.6 0.65784,0.14465 1.7602,1.163 2.44968,2.263 1.88012,2.99955 8.1044,14.41187 7.81027,14.32026 -0.14082,-0.0438 -1.13784,-0.3258 -2.21562,-0.62653 z m 140.6818,-26.74758 c -1.1192,-0.82873 0.39884,-3.81144 12.23219,-24.03442 12.59044,-21.51682 13.41249,-23.16458 12.07777,-24.20952 -1.33549,-1.04555 -1.19794,-1.32866 2.03732,-4.1934 2.43301,-2.15438 4.16226,-3.04774 5.78844,-2.99048 1.65989,0.0585 2.22068,0.42273 1.97316,1.28167 -0.19018,0.66 -0.59193,2.64 -0.89276,4.4 -0.67619,3.95601 -1.78247,5.52528 -3.11531,4.41911 -0.7147,-0.59315 -4.43921,5.15707 -14.37288,22.19014 -7.37451,12.64491 -13.64264,23.23652 -13.92917,23.5369 -0.28654,0.30037 -1.09598,0.12037 -1.79876,-0.4 z"
         id="path447" />
      <path
         style="fill:#404040;stroke-width:0.8"
         d="m 191.22256,98.976913 c 1e-4,-26.84 0.10082,-37.704103 0.22382,-24.14245 0.123,13.561652 0.12292,35.521647 -1.8e-4,48.799997 -0.1231,13.27835 -0.22374,2.18245 -0.22364,-24.657547 z"
         id="path445" />
      <path
         style="fill:#3e3e3e;stroke-width:0.8"
         d="m 157.89673,268.43043 c 0.5775,-0.2311 1.2675,-0.20269 1.53334,0.0631 0.26583,0.26584 -0.20667,0.45492 -1.05,0.42018 -0.93196,-0.0384 -1.12152,-0.22795 -0.48334,-0.48333 z M 302.26195,151.62252 c 0.77838,-0.20283 1.85838,-0.1895 2.4,0.0297 0.54163,0.21915 -0.0952,0.3851 -1.41522,0.36879 -1.32,-0.0163 -1.76315,-0.1956 -0.98478,-0.39843 z m -106.41522,-0.79707 c 0.77,-0.20122 2.03,-0.20122 2.8,0 0.77,0.20122 0.14,0.36586 -1.4,0.36586 -1.54,0 -2.17,-0.16464 -1.4,-0.36586 z m -30.4,-54.436568 c 2.09,-0.164799 5.51,-0.164799 7.6,0 2.09,0.164798 0.38,0.299634 -3.8,0.299634 -4.18,0 -5.89,-0.134836 -3.8,-0.299634 z m 48.72631,-29.011969 c 0,-1.1 0.18159,-1.55 0.40352,-1 0.22192,0.55 0.22192,1.45 0,2 -0.22193,0.55 -0.40352,0.1 -0.40352,-1 z"
         id="path443" />
      <path
         style="fill:#393939;stroke-width:0.8"
         d="m 278.90989,102.91025 c 0.0384,-0.93196 0.22795,-1.12152 0.48333,-0.48334 0.23109,0.5775 0.20268,1.2675 -0.0631,1.53334 -0.26583,0.26583 -0.45491,-0.20667 -0.42018,-1.05 z"
         id="path441" />
      <path
         style="fill:#2e2e2e;stroke-width:0.8"
         d="m 132.44674,342.17691 c 1.49262,-1.54 2.89386,-2.8 3.11386,-2.8 0.22,0 -0.82124,1.26 -2.31386,2.8 -1.49263,1.54 -2.89387,2.8 -3.11387,2.8 -0.22,0 0.82124,-1.26 2.31387,-2.8 z M 300.44673,157.47487 c 0,-0.16612 0.63,-0.79612 1.4,-1.4 1.26885,-0.9951 1.29714,-0.9668 0.30205,0.30204 -1.0451,1.3326 -1.70205,1.75639 -1.70205,1.09796 z"
         id="path439" />
      <path
         style="fill:#0d0d0d;stroke-width:0.8"
         d="m 298.44673,159.37691 c 0.79639,-0.88 1.62798,-1.6 1.84798,-1.6 0.22,0 -0.25159,0.72 -1.04798,1.6 -0.79639,0.88 -1.62798,1.6 -1.84798,1.6 -0.22,0 0.25159,-0.72 1.04798,-1.6 z m 10.37601,-59.999997 c 0,-27.06 0.1006,-38.13 0.22356,-24.6 0.12295,13.53 0.12295,35.669997 0,49.199997 -0.12296,13.53 -0.22356,2.46 -0.22356,-24.599997 z"
         id="path437" />
      <path
         style="fill:#000000;stroke-width:0.8"
         d="m 128.79202,348.08837 c -0.30792,-0.49822 1.25328,-2.69098 3.55399,-4.99168 3.60413,-3.60414 4.29107,-3.98578 5.64845,-3.13808 1.35119,0.84383 7.02124,-2.07091 45.13724,-23.2032 23.97556,-13.29254 43.52894,-24.23125 43.45197,-24.30823 -0.077,-0.077 -15.06623,-3.98848 -33.30942,-8.6922 -21.45462,-5.53175 -33.27389,-8.23893 -33.46516,-7.66515 -0.5107,1.53211 -2.18992,0.97859 -5.36952,-1.76996 -4.27832,-3.69831 -3.54508,-5.34296 2.38206,-5.34296 3.70909,0 4.4251,0.23036 4.4251,1.42368 0,1.53726 -1.46841,1.11135 46.20235,13.40097 l 22.60235,5.82694 2.97847,-5.3258 c 1.63815,-2.92918 17.26237,-31.2315 34.72046,-62.89403 28.32505,-51.37115 31.59961,-57.67493 30.41919,-58.55937 -1.17857,-0.88306 -0.87034,-1.44701 2.82662,-5.17168 3.49582,-3.52203 4.34108,-4.02149 5.36605,-3.17085 1.24889,1.03649 1.16823,2.67581 -0.45018,9.14977 -0.60575,2.42315 -1.08266,2.99784 -2.23718,2.69593 -1.22479,-0.32029 -7.03191,9.69524 -35.13367,60.59511 -18.51651,33.53835 -34.13922,62.1034 -34.71715,63.47789 -0.9227,2.19448 -6.65043,5.61575 -46.9936,28.07007 -40.0145,22.2714 -45.94546,25.81023 -45.96326,27.42493 -0.0174,1.57909 -0.55409,1.93424 -3.62044,2.39587 -5.43968,0.81893 -7.84784,0.754 -8.45472,-0.22797 z m -15.21572,-3.22542 c -0.31067,-0.50268 -0.57065,-3.47268 -0.57774,-6.6 l -0.0129,-5.68604 -1.82037,4 c -1.00121,2.2 -1.84247,4.59149 -1.86947,5.31441 -0.045,1.20477 -1.58664,2.28559 -3.26006,2.28559 -1.80066,0 -4.02804,-5.02948 -4.83249,-10.91192 -0.47296,-3.45844 -1.18701,-7.09381 -1.586771,-8.0786 -0.943539,-2.32433 -0.187749,-4.20948 1.687661,-4.20948 2.0261,0 2.85598,1.87556 3.53975,8 0.88198,7.8999 1.37238,8.00575 4.65748,1.00533 1.61993,-3.45201 2.94533,-6.68469 2.94533,-7.18372 0,-1.4953 2.36098,-3.38637 3.62315,-2.90202 1.67338,0.64213 1.4659,2.62773 -0.81307,7.78087 l -1.98991,4.49954 h 1.936 c 1.21017,0 2.11978,0.57903 2.42618,1.5444 0.27814,0.87634 1.53341,1.77354 2.90188,2.07411 4.22476,0.92791 4.76246,7.01576 0.80665,9.13285 -2.10441,1.12624 -7.05062,1.08462 -7.76132,-0.0654 z m -5.45629,-28.0242 c -1.07458,-1.53417 -1.27772,-1.58111 -1.73096,-0.4 -0.63578,1.65683 -3.4301,1.76144 -4.04787,0.15155 -0.62706,-1.63407 3.67184,-6.01339 5.90296,-6.01339 0.99143,0 1.8026,0.34543 1.8026,0.76763 0,0.42219 0.96245,1.66005 2.13877,2.75081 1.80593,1.67455 1.97744,2.17759 1.10205,3.23237 -1.46469,1.76485 -3.7397,1.54958 -5.16755,-0.48897 z m 29.56094,-42.70052 c -2.51581,-2.71461 -2.66801,-6.5398 -0.37615,-9.45343 2.02201,-2.57057 5.00651,-2.74278 6.65853,-0.3842 1.57695,2.25142 0.30074,5.02436 -2.03168,4.41442 -1.16209,-0.3039 -1.50916,-0.0602 -1.31665,0.9246 0.18419,0.9422 0.90789,1.26117 2.44957,1.07965 4.52253,-0.53251 3.48112,3.93992 -1.18362,5.08314 -1.72656,0.42313 -2.57833,0.0856 -4.2,-1.66418 z m -10.76802,-2.90619 c -0.82094,-1.90032 -1.72859,-5.61513 -2.01702,-8.25513 -0.28843,-2.64 -0.92097,-5.81366 -1.40563,-7.05259 -0.70025,-1.78998 -0.63955,-2.49426 0.29558,-3.42939 0.64724,-0.64724 1.74824,-0.95753 2.44664,-0.68953 1.38864,0.53287 1.8432,1.92629 2.6005,7.97151 1.06612,8.51046 1.03625,8.50829 4.83426,0.34995 1.93312,-4.15248 3.52933,-7.99995 3.54712,-8.54995 0.0472,-1.46009 3.19655,-1.22417 3.77482,0.28278 0.27073,0.70553 -0.68563,3.85553 -2.12527,7 -1.43963,3.14447 -3.42999,7.87722 -4.423,10.51722 -1.5155,4.02903 -2.14519,4.84098 -3.92044,5.05513 -1.82117,0.21969 -2.32229,-0.22482 -3.60756,-3.2 z m 5.66659,-23.8969 c -1.30747,-1.40341 -1.59873,-1.46148 -2.00606,-0.4 -0.62161,1.61992 -3.72672,1.62772 -3.72672,0.009 0,-4.16924 6.81159,-8.02567 7.76127,-4.39411 0.22631,0.86543 1.09261,1.78969 1.9251,2.05391 1.83599,0.58272 2.00396,3.21324 0.24819,3.887 -1.98267,0.76082 -2.56514,0.60054 -4.20178,-1.15619 z m 120.2654,-25.56116 c -0.27293,-0.44162 -1.33335,-0.59284 -2.35648,-0.33605 -2.3961,0.60138 -5.24171,-2.31177 -5.24171,-5.36614 0,-3.37861 2.99391,-7.89488 5.23366,-7.89488 2.22086,0 4.36595,2.73974 4.36732,5.57801 5.3e-4,1.1121 0.87787,3.04161 1.94964,4.28781 1.07176,1.2462 1.7528,2.7762 1.51343,3.4 -0.49574,1.29187 -4.71417,1.54752 -5.46586,0.33125 z m -18.99658,-3.0712 c -0.76129,-1.28876 -1.77134,-5.1743 -2.24457,-8.63453 -0.47323,-3.46023 -1.18381,-7.08898 -1.57905,-8.06386 -0.839,-2.06939 0.95095,-4.43477 2.81471,-3.71958 1.38939,0.53316 1.74877,1.68203 2.46873,7.8921 0.30607,2.64 0.78412,5.42653 1.06233,6.19228 0.52631,1.4486 1.3799,-0.0754 6.0759,-10.84813 1.50695,-3.45696 2.3863,-4.5825 3.41495,-4.37101 2.15975,0.44402 1.55478,4.22123 -1.83018,11.42686 -1.65359,3.52 -3.44045,7.66 -3.97082,9.2 -1.30951,3.80232 -4.25363,4.24112 -6.212,0.92587 z m 5.63275,-24.89382 c -0.8976,-1.43728 -1.09569,-1.46253 -2.37698,-0.30298 -1.51784,1.37363 -3.85963,0.94585 -3.85367,-0.70396 0.006,-1.72398 4.86759,-6.36893 6.15044,-5.87665 0.6472,0.24835 1.32727,0.45154 1.51128,0.45154 0.18401,0 0.33457,0.52734 0.33457,1.17186 0,0.64452 0.72,1.55718 1.6,2.02814 1.91038,1.0224 2.11275,3.63206 0.33457,4.31441 -2.01716,0.77406 -2.65791,0.58663 -3.70021,-1.08236 z m 60.16564,-44.03205 c 0,-1.29524 0.53334,-1.6 2.8,-1.6 h 2.8 v -48.799997 -48.8 h -2.4251 c -2.67281,0 -4.14255,-2.096396 -2.29148,-3.26849 1.49612,-0.947337 6.9021,-0.925758 7.49274,0.02991 0.33862,0.547904 0.62282,69.347517 0.42728,103.438587 -0.002,0.33 -1.98344,0.6 -4.40344,0.6 -3.86666,0 -4.4,-0.19394 -4.4,-1.6 z m -108,-51.241805 V 46.493298 l 4.2,0.241807 c 3.58607,0.206462 4.2,0.475688 4.2,1.841808 0,1.220372 -0.61689,1.65948 -2.6,1.850686 l -2.6,0.250688 v 48.349312 48.349311 h 2.8 c 2.26667,0 2.8,0.30476 2.8,1.6 0,1.40607 -0.53333,1.6 -4.4,1.6 h -4.4 z m 52.96065,47.341095 c -1.14606,-0.7083 -2.56065,-4.5331 -2.56065,-6.92353 0,-2.41963 4.4481,-7.57576 6.53547,-7.57576 0.86335,0 2.30855,0.39541 3.21156,0.87869 1.47465,0.78921 1.58744,1.35943 1.10768,5.6 -0.44808,3.96042 -0.33436,4.72131 0.70556,4.72131 0.78597,0 1.23973,0.72529 1.23973,1.98158 0,1.89091 -0.21457,1.97856 -4.6894,1.91557 -2.57917,-0.0363 -5.07665,-0.30535 -5.54995,-0.59786 z m 3.77087,-8.49929 -0.044,-1.6 -0.68754,1.6 c -0.37815,0.88 -0.70734,2.14 -0.73152,2.8 -0.0391,1.06667 0.0422,1.06667 0.73152,0 0.42653,-0.66 0.75571,-1.92 0.73152,-2.8 z m 34.08845,7.10568 c -1.41619,-1.41617 -2.35284,-5.9966 -1.6677,-8.15528 0.85351,-2.6892 4.50481,-5.7504 6.85887,-5.7504 3.35896,0 4.26165,1.69218 3.62423,6.79395 -0.47172,3.77555 -0.36258,4.40605 0.7627,4.40605 0.90426,0 1.2336,0.56055 1.05757,1.8 -0.22873,1.61054 -0.74104,1.81383 -4.8671,1.93139 -3.10376,0.0884 -4.98978,-0.24691 -5.76857,-1.02571 z m 4.31155,-7.90568 -0.044,-1.6 -0.68754,1.6 c -0.37816,0.88 -0.70734,2.14 -0.73152,2.8 -0.0391,1.06667 0.0422,1.06667 0.73152,0 0.42652,-0.66 0.75571,-1.92 0.73152,-2.8 z m -80.47188,3.52606 c 0.4237,-3.57753 0.33491,-3.95146 -0.72872,-3.06872 -0.98496,0.81745 -1.44938,0.76705 -2.48621,-0.26978 -1.16667,-1.16666 -1.03531,-1.63665 1.54598,-5.53128 1.55154,-2.34095 2.95703,-4.97628 3.12332,-5.85628 0.36278,-1.91984 3.68844,-2.64566 4.34018,-0.94724 0.24588,0.64073 0.0491,4.17599 -0.43722,7.85611 -1.57492,11.9171 -1.56658,11.89113 -3.81743,11.89113 -1.96161,0 -2.0079,-0.12246 -1.5399,-4.07394 z m 86.30036,-8.88606 c -1.33733,-1.33732 -1.19864,-4.24603 0.26018,-5.45675 1.08796,-0.90292 1.06992,-1.17869 -0.16636,-2.54478 -1.68093,-1.8574 -0.65014,-4.09611 2.07192,-4.49987 3.53521,-0.5244 5.26461,3.3424 3.21102,7.17956 -0.68542,1.28074 -0.57626,1.82282 0.52998,2.63172 2.16141,1.58046 0.86769,3.65012 -2.28164,3.65012 -1.4658,0 -3.0971,-0.432 -3.6251,-0.96 z m -164.55999,-19.807 c -0.88,-0.35788 -2.63899,-1.61991 -3.90886,-2.80452 -2.26322,-2.11128 -2.30076,-2.28357 -1.89938,-8.717087 0.32796,-5.256848 0.91217,-7.559104 2.93504,-11.566404 3.10498,-6.150909 5.25035,-7.414592 8.91199,-5.249395 4.16165,2.460866 6.44582,7.665506 6.27781,14.304409 -0.0779,3.079997 0.27074,6.618207 0.77486,7.862677 0.81459,2.01087 1.19437,2.20168 3.4125,1.71449 3.36813,-0.73977 4.42351,0.95823 2.11976,3.41047 -2.50861,2.67028 -5.67238,2.36479 -8.15687,-0.78764 -1.12701,-1.43 -2.0531,-2.1914 -2.05798,-1.692 -0.0206,2.10878 -5.86592,4.55915 -8.40887,3.525 z m 4.89142,-6.05169 c 1.11028,-1.11028 1.89978,-2.63615 1.75445,-3.39082 -0.47348,-2.458568 -2.81407,-1.987643 -5.1151,1.02916 -1.82862,2.39746 -2.01735,3.03539 -1.07451,3.63206 1.71166,1.0832 2.23005,0.93471 4.43516,-1.2704 z m 1.10401,-9.811331 c 1.80875,0.265468 2.4013,0.04035 2.39141,-0.90853 -0.0178,-1.702116 -3.3494,-7.459019 -4.54388,-7.851597 -0.90693,-0.298073 -4.4082,5.45569 -4.1202,6.770875 0.0746,0.340602 -0.28252,1.632712 -0.79358,2.871356 -1.32814,3.219048 -1.23598,3.263353 1.86625,0.897163 2.02522,-1.54471 3.45796,-2.034945 5.2,-1.779267 z m 112.8235,15.909871 c -4.04064,-0.54143 -5.58671,-2.51562 -5.60715,-7.15985 -0.0137,-3.10944 4.33728,-8.119997 7.05107,-8.119997 3.1035,0 4.34109,2.243261 3.76801,6.829987 -0.41961,3.35844 -0.2794,4.25696 0.7244,4.64215 2.46135,0.9445 0.78853,4.99418 -1.8207,4.40771 -0.29401,-0.0661 -2.14605,-0.33609 -4.11563,-0.6 z m 0.75656,-8.87985 c 0,-1.06666 -0.0862,-1.06666 -0.7755,0 -0.42653,0.66 -0.77549,1.74 -0.77549,2.4 0,1.06667 0.0862,1.06667 0.77549,0 0.42653,-0.66 0.7755,-1.74 0.7755,-2.4 z m 38.04322,8.06768 c -4.53158,-0.53232 -5.98646,-2.32091 -6.00693,-7.3848 -0.01,-2.34543 0.54241,-3.403723 2.81605,-5.400003 5.12877,-4.50312 8.86609,-2.582492 7.94906,4.085063 -0.45328,3.29578 -0.30033,4.11453 0.94092,5.03692 1.15754,0.86019 1.29444,1.4079 0.62503,2.50067 -1.04179,1.70064 -1.31412,1.75068 -6.32413,1.16215 z m 0.3128,-9.26768 c 0.0242,-0.44 -0.30499,-0.26 -0.73152,0.4 -0.42653,0.66 -0.75571,1.74 -0.73152,2.4 0.0464,1.26708 1.37974,-1.28462 1.46304,-2.8 z m -77.2124,8.0777 c -0.26182,-0.6823 -0.35073,-3.04913 -0.19758,-5.25962 0.23561,-3.40058 0.063,-4.019 -1.12154,-4.01857 -1.87912,6.6e-4 -1.80173,-2.475778 0.2,-6.399507 0.88,-1.724942 1.6,-3.701899 1.6,-4.393238 0,-1.610656 2.2376,-2.489165 3.39417,-1.332593 0.98758,0.987574 0.90923,16.073938 -0.10314,19.859448 -0.67199,2.51278 -3.0298,3.47798 -3.77191,1.54408 z M 160.44673,98.603979 c 0,-1.538131 0.48422,-1.627066 8.85866,-1.627066 8.00564,0 8.83284,0.13481 8.59052,1.4 -0.23221,1.212358 -1.41953,1.430434 -8.85866,1.627067 -8.17924,0.21619 -8.59052,0.14917 -8.59052,-1.400001 z m 93.4,-0.07138 c -1.87244,-1.117036 -1.76805,-3.635415 0.25741,-6.210372 0.97217,-1.235912 1.30292,-2.225211 0.8,-2.392851 -0.47158,-0.157189 -0.85741,-1.148941 -0.85741,-2.203892 0,-2.034326 2.82435,-3.370897 5.19821,-2.459961 1.57739,0.6053 1.5727,5.225823 -0.007,7.481996 -1.15947,1.655368 -1.1017,1.736992 1.4,1.978004 2.18258,0.210306 2.60899,0.578217 2.60899,2.251386 0,1.840608 -0.31878,2.015576 -4,2.195442 -2.2,0.107494 -4.63,-0.180395 -5.4,-0.639752 z m -93.12053,-6.78132 c -0.88696,-2.311384 0.93459,-2.839126 8.99106,-2.604902 7.3193,0.212792 7.92947,0.353652 7.92947,1.830531 0,1.481303 -0.60938,1.616925 -8.2143,1.828145 -6.93466,0.192603 -8.29094,0.02844 -8.70623,-1.053774 z M 122.97176,79.127557 c -0.64031,-0.771524 -0.50738,-1.77763 0.50204,-3.8 1.81178,-3.629858 4.8067,-4.03785 8.88644,-1.210586 3.35762,2.326828 5.5192,2.626776 6.19719,0.859942 0.25327,-0.66 1.14197,-1.2 1.9749,-1.2 2.03174,0 1.98304,2.731366 -0.0856,4.8 -2.18704,2.187043 -5.77676,2.021123 -8.65411,-0.4 -1.30728,-1.1 -2.89711,-2 -3.53297,-2 -0.63585,0 -1.56616,0.9 -2.06736,2 -1.01897,2.236399 -1.93022,2.505383 -3.22054,0.950644 z m 122.54722,-3.395091 c -0.26265,-0.684446 -0.25824,-2.844446 0.01,-4.8 0.43077,-3.14308 0.30894,-3.555553 -1.05018,-3.555553 -2.43764,0 -2.6938,-1.423982 -0.82571,-4.590166 0.95324,-1.615628 1.98125,-4.390667 2.28445,-6.166751 0.57992,-3.397078 2.82598,-4.840611 4.23496,-2.721797 0.68801,1.034624 0.16063,18.785019 -0.6441,21.678714 -0.48239,1.734642 -3.36046,1.846306 -4.00926,0.155553 z m -34.91126,-0.06123 c -0.30854,-0.308543 -0.56099,-2.447285 -0.56099,-4.752759 0,-3.714345 -0.17195,-4.146804 -1.50971,-3.796972 -2.7011,0.706355 -2.69187,-1.328858 0.0335,-7.390587 1.87601,-4.172532 3.10229,-5.952517 4.10129,-5.953129 2.18562,-0.0014 2.40742,1.625233 1.6634,12.198856 -0.55122,7.833514 -0.93556,9.831521 -1.92751,10.020071 -0.68146,0.129531 -1.49146,-0.01694 -1.8,-0.325479 z m 72.23901,-5.353089 c 0,-3.146496 -0.33598,-4.498979 -1.2,-4.830533 -1.69797,-0.651571 -1.52542,-1.884325 0.98923,-7.067664 2.23843,-4.613989 4.53779,-6.006453 5.55239,-3.362461 0.27027,0.704316 -0.011,5.294316 -0.62511,10.2 -1.03209,8.245032 -1.25261,8.938755 -2.91651,9.175067 -1.67819,0.238341 -1.8,-0.0401 -1.8,-4.114409 z"
         id="path435" />
    </g>
  </g>
</svg>
