<?xml version="1.0" encoding="UTF-8" standalone="no"?>
<!-- Created with Inkscape (http://www.inkscape.org/) -->

<svg
   version="1.1"
   id="svg2"
   width="446"
   height="447"
   viewBox="0 0 446 447"
   sodipodi:docname="PFC.svg"
   inkscape:version="1.1.1 (3bf5ae0d25, 2021-09-20)"
   xmlns:inkscape="http://www.inkscape.org/namespaces/inkscape"
   xmlns:sodipodi="http://sodipodi.sourceforge.net/DTD/sodipodi-0.dtd"
   xmlns="http://www.w3.org/2000/svg"
   xmlns:svg="http://www.w3.org/2000/svg">
  <defs
     id="defs6" />
  <sodipodi:namedview
     id="namedview4"
     pagecolor="#ffffff"
     bordercolor="#000000"
     borderopacity="0.25"
     inkscape:pageshadow="2"
     inkscape:pageopacity="0.0"
     inkscape:pagecheckerboard="0"
     showgrid="false"
     inkscape:zoom="0.80425056"
     inkscape:cx="302.14465"
     inkscape:cy="256.76078"
     inkscape:window-width="1600"
     inkscape:window-height="821"
     inkscape:window-x="-7"
     inkscape:window-y="-9"
     inkscape:window-maximized="1"
     inkscape:current-layer="g8" />
  <g
     inkscape:groupmode="layer"
     inkscape:label="Image"
     id="g8">
    <g
       id="g924"
       transform="translate(-4.6641333,12.968757)">
      <path
         style="fill:#cecece;fill-opacity:1;stroke-width:0.8"
         d="m 119.09764,223.83147 c 0,-0.16612 0.63,-0.79612 1.4,-1.4 1.26884,-0.99509 1.29714,-0.9668 0.30204,0.30205 -1.0451,1.3326 -1.70204,1.75638 -1.70204,1.09795 z M 293.39558,59.533516 c -0.99509,-1.268845 -0.9668,-1.297141 0.30205,-0.302044 1.3326,1.045095 1.75638,1.702044 1.09795,1.702044 -0.16612,0 -0.79612,-0.63 -1.4,-1.4 z"
         id="path954" />
      <path
         style="fill:#bfbfbf;fill-opacity:1;stroke-width:0.8"
         d="m 248.89763,259.58206 c 0.77,-0.20122 2.03,-0.20122 2.8,0 0.77,0.20122 0.14,0.36586 -1.4,0.36586 -1.54,0 -2.17,-0.16464 -1.4,-0.36586 z M 173.32445,73.942793 c 2.32475,-0.162114 5.92475,-0.16041 8,0.0038 2.07525,0.164196 0.17318,0.296834 -4.22682,0.294751 -4.4,-0.0021 -6.09793,-0.136425 -3.77318,-0.298538 z"
         id="path952" />
      <path
         style="fill:#bebebe;fill-opacity:1;stroke-width:0.8"
         d="m 244.82394,332.93352 c 0,-1.1 0.18159,-1.55 0.40352,-1 0.22192,0.55 0.22192,1.45 0,2 -0.22193,0.55 -0.40352,0.1 -0.40352,-1 z m 36.09158,-36.8 c 0,-1.98 0.15601,-2.79 0.34669,-1.8 0.19069,0.99 0.19069,2.61 0,3.6 -0.19068,0.99 -0.34669,0.18 -0.34669,-1.8 z m 3.18385,-0.4 c 0.009,-1.76 0.17272,-2.3858 0.36407,-1.39067 0.19135,0.99513 0.18409,2.43513 -0.0162,3.2 -0.20023,0.76487 -0.3568,-0.0494 -0.34792,-1.80933 z m -169.64578,-55.2 c 0.0163,-1.32 0.1956,-1.76315 0.39844,-0.98478 0.20283,0.77838 0.18949,1.85838 -0.0296,2.4 -0.21914,0.54163 -0.3851,-0.0952 -0.3688,-1.41522 z m 4.7072,0.73334 c 0.0384,-0.93196 0.22796,-1.12152 0.48334,-0.48334 0.23109,0.5775 0.20267,1.2675 -0.0632,1.53334 -0.26584,0.26583 -0.45492,-0.20668 -0.42018,-1.05 z m 31.93684,-0.73334 c 0,-1.1 0.31008,-2 0.68907,-2 0.37898,0 0.51701,0.9 0.30673,2 -0.21028,1.1 -0.52035,2 -0.68906,2 -0.1687,0 -0.30674,-0.9 -0.30674,-2 z M 276.76079,128.46685 c 0.0384,-0.93196 0.22795,-1.12152 0.48333,-0.48333 0.23109,0.57749 0.20268,1.2675 -0.0631,1.53333 -0.26583,0.26584 -0.45491,-0.20667 -0.42018,-1.05 z m -130.4,-32.8 c 0.0384,-0.931954 0.22796,-1.12152 0.48333,-0.483333 0.2311,0.5775 0.20268,1.2675 -0.0631,1.533333 -0.26584,0.265833 -0.45491,-0.206667 -0.42017,-1.05 z m 57.6,-6.4 c 0.0384,-0.931954 0.22795,-1.12152 0.48333,-0.483333 0.2311,0.5775 0.20268,1.2675 -0.0631,1.533333 -0.26584,0.265833 -0.45491,-0.206667 -0.42018,-1.05 z m -57.6,-0.8 c 0.0384,-0.931954 0.22796,-1.12152 0.48333,-0.483333 0.2311,0.5775 0.20268,1.2675 -0.0631,1.533333 -0.26584,0.265833 -0.45491,-0.206667 -0.42017,-1.05 z m 26.13684,-2.523127 c 2.31,-0.161602 6.09,-0.161602 8.4,0 2.31,0.161602 0.42,0.293822 -4.2,0.293822 -4.62,0 -6.51,-0.13222 -4.2,-0.293822 z m 126.7856,-9.010207 c 0,-1.54 0.16464,-2.17 0.36586,-1.4 0.20122,0.77 0.20122,2.03 0,2.8 -0.20122,0.77 -0.36586,0.14 -0.36586,-1.4 z m -36.92244,0.333334 c 0.0384,-0.931954 0.22795,-1.12152 0.48333,-0.483334 0.23109,0.5775 0.20268,1.2675 -0.0631,1.533334 -0.26584,0.265833 -0.45491,-0.206667 -0.42018,-1.05 z m 4.86315,-0.333334 c 0,-1.1 0.18159,-1.55 0.40351,-1 0.22193,0.55 0.22193,1.45 0,2 -0.22192,0.55 -0.40351,0.1 -0.40351,-1 z"
         id="path950" />
      <path
         style="fill:#b3b3b3;fill-opacity:1;stroke-width:0.8"
         d="m 225.01554,136.13352 c 0,-6.38 0.12424,-8.99 0.2761,-5.8 0.15185,3.19 0.15185,8.41 0,11.6 -0.15186,3.19 -0.2761,0.58 -0.2761,-5.8 z"
         id="path948" />
      <path
         style="fill:#aeaeae;fill-opacity:1;stroke-width:0.8"
         d="m 235.6222,333.29738 c 0.2437,-0.63506 0.76537,-0.95549 1.15926,-0.71205 0.99208,0.61315 0.90076,0.90618 -0.44308,1.42186 -0.77329,0.29673 -1.01174,0.0604 -0.71618,-0.70981 z"
         id="path946" />
      <path
         style="fill:#8f8f8f;fill-opacity:1;stroke-width:0.8"
         d="m 220.69763,240.18074 c 0,-0.41404 0.35588,-0.97274 0.79084,-1.24156 0.45349,-0.28027 0.5876,0.0409 0.31441,0.75279 -0.53183,1.38593 -1.10525,1.63951 -1.10525,0.48877 z"
         id="path944" />
      <path
         style="fill:#7f7f7f;fill-opacity:1;stroke-width:0.8"
         d="m 140.54763,89.987026 c 0.5775,-0.231097 1.2675,-0.202676 1.53334,0.06316 0.26583,0.265833 -0.20667,0.454912 -1.05,0.420176 -0.93196,-0.03838 -1.12152,-0.227953 -0.48334,-0.483334 z"
         id="path942" />
      <path
         style="fill:#7e7e7e;fill-opacity:1;stroke-width:0.8"
         d="m 118.94708,313.13487 c 6.7372,-0.13396 17.5372,-0.13366 24,6.5e-4 6.4628,0.13431 0.95055,0.24391 -12.24945,0.24355 -13.19999,-3.6e-4 -18.48774,-0.11024 -11.75055,-0.2442 z m 45.98712,0.003 c 3.43011,-0.15032 8.83011,-0.14941 12,0.002 3.16989,0.15144 0.36343,0.27443 -6.23657,0.27331 -6.6,-8e-4 -9.19354,-0.12503 -5.76343,-0.27535 z m 34.80931,-0.002 c 5.41523,-0.13861 14.05523,-0.13819 19.2,8e-4 5.14477,0.13912 0.71412,0.25253 -9.84588,0.25201 -10.56,-5.3e-4 -14.76935,-0.11436 -9.35412,-0.25297 z m 45.95412,-3.2e-4 c 6.49,-0.13447 17.11,-0.13447 23.6,0 6.49,0.13447 1.18,0.24448 -11.8,0.24448 -12.98,0 -18.29,-0.11001 -11.8,-0.24448 z m 53.2,-5.6e-4 c 8.03,-0.13048 21.17,-0.13048 29.2,0 8.03,0.13049 1.46,0.23725 -14.6,0.23725 -16.06,0 -22.63,-0.10676 -14.6,-0.23725 z m -18.04404,-29.40127 c 0.0163,-1.32 0.1956,-1.76315 0.39843,-0.98477 0.20283,0.77837 0.1895,1.85837 -0.0297,2.4 -0.21914,0.54162 -0.38509,-0.0952 -0.36879,-1.41523 z m 0,-13.6 c 0.0163,-1.32 0.1956,-1.76315 0.39843,-0.98477 0.20283,0.77837 0.1895,1.85837 -0.0297,2.4 -0.21914,0.54162 -0.38509,-0.0952 -0.36879,-1.41523 z m 0.0296,-14.8 c 0,-1.54 0.16464,-2.17 0.36586,-1.4 0.20122,0.77 0.20122,2.03 0,2.8 -0.20122,0.77 -0.36586,0.14 -0.36586,-1.4 z m -161.7224,-11.66686 c 0.0384,-0.93196 0.22796,-1.12152 0.48334,-0.48334 0.23109,0.5775 0.20267,1.2675 -0.0632,1.53334 -0.26584,0.26583 -0.45492,-0.20668 -0.42018,-1.05 z M 260.11552,120.13352 c 0,-1.98 0.15601,-2.79 0.34669,-1.8 0.19069,0.99 0.19069,2.61 0,3.6 -0.19068,0.99 -0.34669,0.18 -0.34669,-1.8 z m 31.84527,-0.46667 c 0.0384,-0.93196 0.22795,-1.12152 0.48333,-0.48333 0.23109,0.57749 0.20268,1.26749 -0.0631,1.53333 -0.26583,0.26584 -0.45491,-0.20667 -0.42018,-1.05 z M 246.89763,95.537462 c 4.07,-0.145192 10.73,-0.145192 14.8,0 4.07,0.145193 0.74,0.263988 -7.4,0.263988 -8.14,0 -11.47,-0.118795 -7.4,-0.263988 z m 29.23327,0.0021 c 2.9883,-0.154342 7.6683,-0.153197 10.4,0.0026 2.7317,0.155742 0.28673,0.282022 -5.43327,0.280623 -5.72,-0.0014 -7.95503,-0.128825 -4.96673,-0.283167 z m 18.74889,0.01662 c 1.42018,-0.176729 3.94018,-0.179633 5.6,-0.0065 1.65981,0.17318 0.49784,0.317777 -2.58216,0.321327 -3.08,0.0035 -4.43803,-0.138144 -3.01784,-0.314874 z"
         id="path940" />
      <path
         style="fill:#787878;fill-opacity:1;stroke-width:0.8"
         d="m 154.60304,351.73352 c 0.002,-5.28 0.13106,-7.33589 0.28772,-4.56864 0.15667,2.76724 0.15538,7.08724 -0.003,9.6 -0.15825,2.51275 -0.28642,0.24864 -0.28485,-5.03136 z m 0.0125,-26.8 c 0,-6.38 0.12424,-8.99 0.2761,-5.8 0.15185,3.19 0.15185,8.41 0,11.6 -0.15186,3.19 -0.2761,0.58 -0.2761,-5.8 z m 0.0485,-49.6 c 0,-18.7 0.10471,-26.35 0.2327,-17 0.12798,9.35 0.12798,24.65 0,34 -0.12799,9.35 -0.2327,1.7 -0.2327,-17 z m -0.003,-67.2 c 0,-16.94 0.10603,-23.87 0.2356,-15.4 0.12958,8.47 0.12958,22.33 0,30.8 -0.12957,8.47 -0.2356,1.54 -0.2356,-15.4 z"
         id="path938" />
      <path
         style="fill:#676767;fill-opacity:1;stroke-width:0.8"
         d="m 290.70329,95.34268 c -0.28027,-0.453488 0.0409,-0.587606 0.75279,-0.314409 1.38593,0.531833 1.63951,1.105246 0.48877,1.105246 -0.41404,0 -0.97274,-0.355877 -1.24156,-0.790837 z"
         id="path936" />
      <path
         style="fill:#4f4f4f;fill-opacity:1;stroke-width:0.8"
         d="m 135.59647,240.50259 c -0.77199,-2.01175 -0.54425,-2.53084 0.39882,-0.90907 0.46696,0.803 0.68048,1.62853 0.47451,1.8345 -0.20598,0.20598 -0.59898,-0.21047 -0.87333,-0.92543 z"
         id="path934" />
      <path
         style="fill:#3f3f3f;fill-opacity:1;stroke-width:0.8"
         d="m 168.49763,238.76894 c 0.99,-0.19069 2.61,-0.19069 3.6,0 0.99,0.19068 0.18,0.34669 -1.8,0.34669 -1.98,0 -2.79,-0.15601 -1.8,-0.34669 z m 13.6,0 c 0.99,-0.19069 2.61,-0.19069 3.6,0 0.99,0.19068 0.18,0.34669 -1.8,0.34669 -1.98,0 -2.79,-0.15601 -1.8,-0.34669 z m 14.4,0 c 0.99,-0.19069 2.61,-0.19069 3.6,0 0.99,0.19068 0.18,0.34669 -1.8,0.34669 -1.98,0 -2.79,-0.15601 -1.8,-0.34669 z m 13.6,0 c 0.99,-0.19069 2.61,-0.19069 3.6,0 0.99,0.19068 0.18,0.34669 -1.8,0.34669 -1.98,0 -2.79,-0.15601 -1.8,-0.34669 z m 13.6,0 c 0.99,-0.19069 2.61,-0.19069 3.6,0 0.99,0.19068 0.18,0.34669 -1.8,0.34669 -1.98,0 -2.79,-0.15601 -1.8,-0.34669 z m 14.40933,-0.002 c 0.99513,-0.19136 2.43513,-0.18409 3.2,0.0162 0.76487,0.20023 -0.0494,0.3568 -1.80933,0.34792 -1.76,-0.009 -2.3858,-0.17272 -1.39067,-0.36407 z m 13.59067,0.002 c 0.99,-0.19069 2.61,-0.19069 3.6,0 0.99,0.19068 0.18,0.34669 -1.8,0.34669 -1.98,0 -2.79,-0.15601 -1.8,-0.34669 z m 13.6,0 c 0.99,-0.19069 2.61,-0.19069 3.6,0 0.99,0.19068 0.18,0.34669 -1.8,0.34669 -1.98,0 -2.79,-0.15601 -1.8,-0.34669 z m 13.2,0.0131 c 0.77,-0.20122 2.03,-0.20122 2.8,0 0.77,0.20122 0.14,0.36586 -1.4,0.36586 -1.54,0 -2.17,-0.16464 -1.4,-0.36586 z m -48,-161.621547 c 1.21,-0.1833 3.19,-0.1833 4.4,0 1.21,0.183299 0.22,0.333272 -2.2,0.333272 -2.42,0 -3.41,-0.149973 -2.2,-0.333272 z"
         id="path932" />
      <path
         style="fill:#3f3f3f;fill-opacity:1;stroke-width:0.8"
         d="m 229.49763,334.53352 c -0.72103,-0.46596 -0.8197,-0.78039 -0.24721,-0.78775 0.52403,-0.006 1.17528,0.34775 1.44721,0.78775 0.61384,0.99323 0.3369,0.99323 -1.2,0 z M 118.94708,309.13487 c 6.7372,-0.13396 17.5372,-0.13366 24,6.5e-4 6.4628,0.13431 0.95055,0.24391 -12.24945,0.24355 -13.19999,-3.6e-4 -18.48774,-0.11024 -11.75055,-0.2442 z m 46.78983,0.002 c 3.87161,-0.14697 9.99161,-0.14622 13.6,0.002 3.6084,0.14788 0.44072,0.26812 -7.03928,0.2672 -7.48,-8e-4 -10.43232,-0.12192 -6.56072,-0.26888 z m 36.36072,-0.002 c 5.39,-0.13841 14.21,-0.13841 19.6,0 5.39,0.1384 0.98,0.25164 -9.8,0.25164 -10.78,0 -15.19,-0.11324 -9.8,-0.25164 z m 46,-4.6e-4 c 6.05,-0.1359 15.95,-0.1359 22,0 6.05,0.13591 1.1,0.2471 -11,0.2471 -12.1,0 -17.05,-0.11119 -11,-0.2471 z m 51.25232,-8e-4 c 8.27878,-0.13013 21.59878,-0.12993 29.6,4.5e-4 8.00122,0.13037 1.22768,0.23685 -15.05232,0.2366 -16.28,-2.5e-4 -22.82646,-0.10692 -14.54768,-0.23705 z M 168.49763,241.16894 c 0.99,-0.19069 2.61,-0.19069 3.6,0 0.99,0.19068 0.18,0.34669 -1.8,0.34669 -1.98,0 -2.79,-0.15601 -1.8,-0.34669 z m 14.011,-0.009 c 1.21605,-0.18389 3.01605,-0.17897 4,0.0109 0.98396,0.18988 -0.011,0.34033 -2.211,0.33433 -2.2,-0.006 -3.00504,-0.16137 -1.789,-0.34525 z m 13.6,0 c 1.21605,-0.18389 3.01605,-0.17897 4,0.0109 0.98395,0.18988 -0.011,0.34033 -2.211,0.33433 -2.2,-0.006 -3.00505,-0.16137 -1.789,-0.34525 z m 13.6,0 c 1.21605,-0.18389 3.01605,-0.17897 4,0.0109 0.98395,0.18988 -0.011,0.34033 -2.211,0.33433 -2.2,-0.006 -3.00505,-0.16137 -1.789,-0.34525 z m 14.4,0 c 1.21605,-0.18389 3.01605,-0.17897 4,0.0109 0.98395,0.18988 -0.011,0.34033 -2.211,0.33433 -2.2,-0.006 -3.00505,-0.16137 -1.789,-0.34525 z m 13.6,0 c 1.21605,-0.18389 3.01605,-0.17897 4,0.0109 0.98395,0.18988 -0.011,0.34033 -2.211,0.33433 -2.2,-0.006 -3.00505,-0.16137 -1.789,-0.34525 z m 13.6,0 c 1.21605,-0.18389 3.01605,-0.17897 4,0.0109 0.98395,0.18988 -0.011,0.34033 -2.211,0.33433 -2.2,-0.006 -3.00505,-0.16137 -1.789,-0.34525 z m 14.4,0 c 1.21605,-0.18389 3.01605,-0.17897 4,0.0109 0.98395,0.18988 -0.011,0.34033 -2.211,0.33433 -2.2,-0.006 -3.00505,-0.16137 -1.789,-0.34525 z m 12.389,0.0442 c 0.55,-0.22193 1.45,-0.22193 2,0 0.55,0.22192 0.1,0.40351 -1,0.40351 -1.1,0 -1.55,-0.18159 -1,-0.40351 z m 17.86316,-119.13685 c 0.0384,-0.93196 0.22795,-1.12152 0.48333,-0.48333 0.23109,0.57749 0.20268,1.26749 -0.0631,1.53333 -0.26583,0.26584 -0.45491,-0.20667 -0.42018,-1.05 z m 0.0632,-4.33337 c 0,-1.1 0.18159,-1.55 0.40351,-1 0.22193,0.55 0.22193,1.45 0,2 -0.22192,0.55 -0.40351,0.1 -0.40351,-1 z M 158.45359,94.133517 c 0.0163,-1.32 0.1956,-1.763149 0.39844,-0.984775 0.20283,0.778374 0.18949,1.858374 -0.0296,2.4 -0.21919,0.541626 -0.38514,-0.09522 -0.36884,-1.415225 z m -17.90596,-0.146491 c 0.5775,-0.231097 1.2675,-0.202676 1.53334,0.06316 0.26583,0.265833 -0.20667,0.454912 -1.05,0.420176 -0.93196,-0.03838 -1.12152,-0.227953 -0.48334,-0.483334 z m 89.95,-12.826513 c 1.21,-0.1833 3.19,-0.1833 4.4,0 1.21,0.183299 0.22,0.333272 -2.2,0.333272 -2.42,0 -3.41,-0.149973 -2.2,-0.333272 z"
         id="path930" />
      <path
         style="fill:#3c3c3c;fill-opacity:1;stroke-width:0.8"
         d="m 223.74763,252.38703 c 0.5775,-0.23109 1.2675,-0.20268 1.53334,0.0631 0.26583,0.26584 -0.20667,0.45492 -1.05,0.42018 -0.93196,-0.0384 -1.12152,-0.22795 -0.48334,-0.48333 z"
         id="path928" />
      <path
         style="fill:#333333;fill-opacity:1;stroke-width:0.8"
         d="m 155.09763,352.53352 c 0,-5.5 -0.3102,-10 -0.68934,-10 -0.37914,0 -3.16914,1.12838 -6.2,2.5075 -9.57189,4.35547 -24.42256,9.1111 -35.67693,11.42482 -7.74334,1.5919 -9.13998,1.58708 -9.76194,-0.0337 -0.78131,-2.03607 0.82223,-3.25188 5.02402,-3.80928 9.81811,-1.30241 28.20315,-7.08848 40.30419,-12.68436 l 7,-3.23702 V 324.8289 312.95633 l -25,-0.2114 c -21.59493,-0.18264 -24.99999,-0.37487 -24.99999,-1.41143 0,-1.03225 3.46666,-1.25591 24.79999,-1.6 l 24.8,-0.4 0.20874,-33.87261 c 0.20552,-33.34938 0.1839,-33.87911 -1.4,-34.2933 -2.0589,-0.53842 -2.06309,-1.52867 -0.009,-2.06589 1.56566,-0.40942 1.59971,-1.08547 1.58652,-31.4933 l -0.0134,-31.0749 -1.66509,2.6 c -1.83892,2.87145 -2.47677,3.12448 -3.81414,1.51304 -0.69658,-0.83932 -0.14853,-2.38857 2.4055,-6.8 1.81918,-3.14218 3.74229,-5.71304 4.27358,-5.71304 1.35906,0 8.71569,10.88584 8.0665,11.93626 -0.76078,1.23096 -2.08613,1.06944 -3.77641,-0.46025 -1.41493,-1.28046 -1.46304,-0.32255 -1.46304,29.13333 0,23.58364 0.22568,30.56264 1,30.924 0.8,0.37332 0.8,0.56 0,0.93332 -0.77721,0.36271 -1,8.11557 -1,34.80001 v 34.33333 h 13.14286 c 14.84476,0 13.80713,0.39495 18.62798,-7.09037 2.69828,-4.18959 12.94755,-24.9449 15.46115,-31.30963 1.63716,-4.14549 6.23965,-12.13018 8.2289,-14.27601 4.34689,-4.68906 9.96722,-5.452 16.35562,-2.2202 5.78766,2.92788 14.28239,5.29621 18.99648,5.29621 5.3834,0 12.86746,-2.31479 17.87666,-5.52919 4.12702,-2.6483 12.91035,-11.36432 12.91035,-12.81142 0,-0.47266 -0.9,-0.85939 -2,-0.85939 -1.1,0 -2,-0.36 -2,-0.8 0,-0.44 1.23429,-0.8 2.74286,-0.8 1.50857,0 3.3332,-0.59034 4.05473,-1.31188 2.14998,-2.14998 10.45956,-20.06158 13.49461,-29.08812 1.55341,-4.62 4.30325,-14.16 6.11076,-21.2 4.27133,-16.63628 4.72296,-18 5.96113,-18 2.80408,0 2.75816,2.03512 -0.32564,14.43108 -3.97643,15.98408 -6.55195,24.76327 -9.08524,30.96892 -1.12262,2.75 -1.92023,5 -1.77247,5 0.14776,0 8.81322,-11.52 19.25658,-25.6 10.44336,-14.08 19.25317,-25.6 19.57735,-25.6 0.32418,0 1.03016,0.53106 1.56885,1.18014 0.81363,0.98036 -3.06624,6.63446 -22.91926,33.4 -13.14428,17.72092 -25.51094,34.50162 -27.48148,37.29044 -1.97052,2.78881 -4.5232,6.20881 -5.67261,7.6 -4.75011,5.74927 -44.71017,59.89611 -44.71017,60.58334 0,0.44304 8.78359,0.74608 21.6251,0.74608 18.48433,0 21.692,-0.17429 22.0856,-1.2 0.25327,-0.66 0.92345,-1.2 1.4893,-1.2 0.56585,0 1.23603,0.54 1.4893,1.2 0.39769,1.03637 4.44571,1.2 29.6856,1.2 h 29.2251 v -2 c 0,-2.51839 0.82212,-2.50457 7,0.11771 6.7266,2.8552 6.61645,4.19532 -0.57676,7.01748 -5.78411,2.26932 -7.64286,2.15582 -6.96783,-0.42548 0.38166,-1.45948 -0.58764,-1.50971 -29.13031,-1.50971 -25.7112,0 -29.5251,0.15501 -29.5251,1.2 0,0.66 -0.54,1.2 -1.2,1.2 -0.66,0 -1.2,-0.54 -1.2,-1.2 0,-1.03946 -3.14766,-1.2 -23.52889,-1.2 h -23.52888 l -2.01947,2.4 c -2.07457,2.46551 -4.01776,3.06432 -4.96584,1.5303 -0.29563,-0.47835 -0.13687,-1.27035 0.35279,-1.76 0.48966,-0.48967 0.89029,-1.1783 0.89029,-1.5303 0,-0.352 -8.64,-0.64 -19.2,-0.64 h -19.2 l -9.41594,9.4 c -5.40746,5.3983 -12.04418,11.10286 -15.58967,13.4 l -6.17372,4 -0.0103,10.13457 c -0.0115,11.23812 -0.29275,12.66543 -2.49594,12.66543 -1.40511,0 -1.51441,-0.72172 -1.51441,-10 z m 9.89841,-22.33395 c 2.69587,-1.94368 7.95365,-6.62368 11.68393,-10.4 l 6.78234,-6.86605 h -12.18234 -12.18234 v 10.4 c 0,5.72 0.22428,10.4 0.49841,10.4 0.27412,0 2.70412,-1.59028 5.4,-3.53395 z m 66.58425,-21.0783 c 0.85856,-0.5717 36.31734,-47.93835 36.31734,-48.51353 0,-0.15853 -2.25,0.64805 -5,1.79239 -4.18521,1.74157 -6.23847,2.0816 -12.6,2.08661 -7.96614,0.006 -10.66354,-0.62346 -19.05581,-4.44873 -7.22422,-3.29286 -9.62074,-3.09571 -13.4423,1.10582 -1.70604,1.87568 -4.42626,6.28568 -6.04494,9.8 -8.10657,17.60026 -12.68973,26.89211 -15.72044,31.87145 -1.83508,3.01498 -3.33651,5.80498 -3.33651,6.2 0,0.85819 37.59913,0.96068 38.88266,0.10599 z m 55.45614,28.85128 c -0.49899,-1.31244 -0.55797,-3.27575 -0.15019,-5 0.5432,-2.29687 1.04573,-2.83903 2.63152,-2.83903 1.73957,0 2.02694,0.45003 2.55419,4 0.74534,5.01834 0.39046,6 -2.16902,6 -1.48574,0 -2.26956,-0.59089 -2.8665,-2.16097 z m -8.9388,0.32144 c -2.52364,-0.99722 -2.78042,-2.7175 -0.93758,-6.28116 1.19536,-2.31159 1.17412,-2.50307 -0.4,-3.60563 -0.91433,-0.64042 -1.66242,-1.65828 -1.66242,-2.2619 0,-1.78892 2.46493,-3.71778 4.42311,-3.46117 1.00145,0.13124 2.58715,-0.4549 3.52376,-1.30253 1.5823,-1.43195 1.79642,-1.44764 3.02249,-0.22157 1.22608,1.22608 1.16764,1.61982 -0.8249,5.55801 -2.41262,4.76845 -2.71512,7.01548 -0.94446,7.01548 1.78606,0 1.51106,3.77724 -0.34741,4.77186 -1.842,0.98581 -2.92153,0.94682 -5.85259,-0.21139 z m -56.25165,-1.72703 c -1.43898,-2.19616 -1.18904,-7.11274 0.44463,-8.74641 1.2653,-1.26531 3.58774,0.49602 3.69872,2.80508 0.0504,1.04934 0.37773,2.58683 0.72732,3.41663 0.73767,1.75098 -0.41942,3.97877 -2.25426,4.3402 -0.69506,0.13691 -1.87245,-0.68006 -2.61641,-1.8155 z m -8.94835,-0.10099 c -2.9036,-1.26981 -3.33548,-3.34668 -1.4,-6.73245 1.51407,-2.64857 1.48008,-2.94014 -0.4,-3.4318 -1.77613,-0.46446 -2.13207,-2.91612 -0.64,-4.4082 0.528,-0.528 1.92392,-0.96 3.10205,-0.96 1.17812,0 2.5902,-0.54 3.13795,-1.2 1.26407,-1.5231 3.91412,-1.55466 4.49018,-0.0535 0.24197,0.63059 -0.48932,2.73222 -1.62511,4.67029 -2.3282,3.97279 -2.63971,6.59151 -0.86507,7.27251 1.78102,0.68344 1.45323,3.4426 -0.57801,4.86533 -2.06631,1.44731 -1.85976,1.44819 -5.22199,-0.0222 z m 28.33334,0.73422 c -0.29334,-0.29333 -0.53334,-1.19333 -0.53334,-2 0,-0.94088 -0.58257,-1.46667 -1.6251,-1.46667 -2.9013,0 -2.79723,-2.351 0.23844,-5.38666 4.1526,-4.1526 5.38666,-3.29084 5.38666,3.76156 0,4.92131 -0.1835,5.6251 -1.46666,5.6251 -0.80667,0 -1.70667,-0.24 -2,-0.53333 z m -10.13334,-1.54156 c 0,-0.70119 -0.72,-1.46318 -1.6,-1.69331 -0.88,-0.23012 -1.6,-0.77012 -1.6,-1.2 0,-0.42987 0.72,-0.96987 1.6,-1.2 0.88,-0.23012 1.6,-0.91642 1.6,-1.5251 0,-1.60231 0.95015,-1.34264 3,0.81988 2.07892,2.19319 2.24305,2.87342 0.69331,2.87342 -0.60868,0 -1.29498,0.72 -1.52511,1.6 -0.4972,1.90132 -2.1682,2.15187 -2.1682,0.32511 z m 57.11083,-10.26899 c -0.79653,-2.07574 0.31991,-3.79136 2.28559,-3.51223 1.32219,0.18775 1.80358,0.78993 1.80358,2.25611 0,1.46619 -0.48139,2.06836 -1.80358,2.25612 -1.08182,0.15361 -1.99647,-0.24656 -2.28559,-1 z m -65.62063,-2.45378 c -0.27645,-0.72044 -0.13309,-1.67945 0.3186,-2.13114 1.30408,-1.30408 3.7912,-0.42516 3.7912,1.33976 0,2.03494 -3.38265,2.6863 -4.1098,0.79138 z m 58.9098,-26.80234 c 0,-3.02222 0.29334,-4 1.2,-4 0.90666,0 1.2,0.97778 1.2,4 0,3.02223 -0.29334,4 -1.2,4 -0.90666,0 -1.2,-0.97777 -1.2,-4 z m 0.36657,-9.79865 c -0.67521,-1.75955 -0.13379,-5.41448 0.83343,-5.62622 1.09638,-0.24001 1.51748,5.02739 0.4845,6.06038 -0.57606,0.57605 -0.98153,0.44248 -1.31793,-0.43416 z m -0.36657,-16.66801 c 0,-4.1682 1.89165,-3.89181 2.2483,0.3285 0.18886,2.23497 -0.0505,2.93816 -1,2.93816 -0.92726,0 -1.2483,-0.84013 -1.2483,-3.26666 z M 119.55715,256.73352 c -3.08116,-4.71057 -3.9534,-8.23756 -4.00633,-16.2 -0.0469,-7.0518 0.1986,-8.53708 2.07112,-12.53134 2.36835,-5.05189 4.71004,-6.95516 6.25982,-5.08779 0.75916,0.91474 0.54218,1.68471 -1.07063,3.79923 -4.75498,6.23408 -4.98072,20.73016 -0.42271,27.1434 0.83007,1.16792 1.50922,2.69792 1.50922,3.4 0,1.91373 -2.98152,1.55413 -4.34049,-0.5235 z m 23.05031,0.65349 c -0.24198,-0.63058 0.54583,-2.82864 1.75069,-4.88457 4.0301,-6.87686 3.53223,-19.86992 -0.9888,-25.80486 -1.60067,-2.10127 -1.81484,-2.86865 -1.05584,-3.78319 1.54977,-1.86737 3.89148,0.0359 6.25981,5.08779 1.86779,3.98416 2.11968,5.49736 2.08595,12.53134 -0.0302,6.28648 -0.38869,8.7747 -1.674,11.61687 -2.49329,5.51334 -5.36639,7.87235 -6.37781,5.23662 z m 138.89017,-2.52015 c 0,-4.72162 1.89422,-4.44428 2.246,0.32884 0.19115,2.59368 -0.0318,3.33782 -1,3.33782 -0.94676,0 -1.246,-0.88058 -1.246,-3.66666 z m -145.54841,0.92881 c -0.52842,-0.6367 -0.83582,-2.83882 -0.69796,-5 0.22628,-3.54707 0.42586,-3.8828 2.44637,-4.11529 2.01446,-0.23179 2.2,-0.026 2.2,2.44001 0,1.48122 0.39577,3.08889 0.87947,3.5726 0.48371,0.48371 0.63945,1.63571 0.34609,2.56 -0.62237,1.96093 -3.7267,2.28654 -5.17397,0.54268 z m -9.85158,-0.99066 c -2.58549,-1.36184 -2.63617,-1.70256 -0.81974,-5.51166 1.30703,-2.74086 1.30703,-2.93545 0,-3.66689 -3.10123,-1.73554 -0.7499,-6.94232 2.72475,-6.03368 1.14065,0.29829 2.1474,-0.0877 3.01126,-1.15453 1.45474,-1.79652 4.08372,-1.34515 4.08372,0.70113 0,0.67906 -0.97097,3.21927 -2.15772,5.64489 l -2.15772,4.41024 1.75772,1.16708 c 2.17178,1.442 2.27377,3.83946 0.21032,4.94379 -2.0109,1.0762 -3.93404,0.93155 -6.65259,-0.50037 z m -22.99871,-1.4681 c -0.44071,-1.15915 -0.80129,-3.16411 -0.80129,-4.45547 0,-1.29135 -0.32149,-2.34792 -0.71441,-2.34792 -1.55901,0 -1.758906,-2.8059 -0.28493,-3.99946 0.89147,-0.72187 1.93245,-3.31744 2.56958,-6.407 1.54597,-7.49667 2.8371,-9.74853 5.4138,-9.44227 1.67123,0.19865 2.32156,0.93872 3.22989,3.67563 1.27667,3.84674 0.43572,5.8978 -2.14179,5.22376 -1.1693,-0.30577 -1.58275,0.22202 -2.02639,2.5868 -0.33703,1.79654 -0.21906,3.30924 0.29845,3.82674 1.25223,1.25224 1.04425,3.7137 -0.3593,4.2523 -0.91072,0.34947 -1.16122,1.49549 -1,4.57489 0.19515,3.72762 0.0483,4.1323 -1.58361,4.36408 -1.32937,0.18881 -2.0078,-0.29445 -2.6,-1.85208 z m 33.88801,-11.20339 c -0.63376,-1.65154 0.22553,-3.6 1.58763,-3.6 1.63753,0 3.03076,1.9885 2.45128,3.4986 -0.62716,1.63436 -3.42372,1.70457 -4.03891,0.1014 z m 29.31069,-2 c 0,-0.44 1.8,-0.8 4,-0.8 2.2,0 4,0.36 4,0.8 0,0.44 -1.8,0.8 -4,0.8 -2.2,0 -4,-0.36 -4,-0.8 z m 13.6,0 c 0,-0.44 1.98,-0.8 4.4,-0.8 2.42,0 4.4,0.36 4.4,0.8 0,0.44 -1.98,0.8 -4.4,0.8 -2.42,0 -4.4,-0.36 -4.4,-0.8 z m 13.6,0 c 0,-0.44 1.98,-0.8 4.4,-0.8 2.42,0 4.4,0.36 4.4,0.8 0,0.44 -1.98,0.8 -4.4,0.8 -2.42,0 -4.4,-0.36 -4.4,-0.8 z m 13.6,0 c 0,-0.44 1.98,-0.8 4.4,-0.8 2.42,0 4.4,0.36 4.4,0.8 0,0.44 -1.98,0.8 -4.4,0.8 -2.42,0 -4.4,-0.36 -4.4,-0.8 z m 14.4,0 c 0,-0.44 1.98,-0.8 4.4,-0.8 2.42,0 4.4,0.36 4.4,0.8 0,0.44 -1.98,0.8 -4.4,0.8 -2.42,0 -4.4,-0.36 -4.4,-0.8 z m 13.6,0 c 0,-0.44 1.98,-0.8 4.4,-0.8 2.42,0 4.4,0.36 4.4,0.8 0,0.44 -1.98,0.8 -4.4,0.8 -2.42,0 -4.4,-0.36 -4.4,-0.8 z m 13.6,0 c 0,-0.44 1.98,-0.8 4.4,-0.8 2.42,0 4.4,0.36 4.4,0.8 0,0.44 -1.98,0.8 -4.4,0.8 -2.42,0 -4.4,-0.36 -4.4,-0.8 z m 14.4,0 c 0,-0.44 1.98,-0.8 4.4,-0.8 2.42,0 4.4,0.36 4.4,0.8 0,0.44 -1.98,0.8 -4.4,0.8 -2.42,0 -4.4,-0.36 -4.4,-0.8 z m -50.94364,-80.46719 c -6.14789,-6.83612 -6.92764,-8.31512 -5.86182,-11.11844 0.98423,-2.58872 4.21249,-3.38692 6.81129,-1.68412 l 1.99417,1.30664 v -12.24044 c 0,-13.75051 0.6217,-15.79645 4.8,-15.79645 4.18003,0 4.8,2.04378 4.8,15.82337 v 12.26736 l 1.77801,-1.24537 c 0.9779,-0.68495 2.25426,-1.24536 2.83636,-1.24536 1.45395,0 4.98563,3.65014 4.98563,5.15286 0,0.67408 -2.02354,3.66044 -4.49676,6.63637 -8.83632,10.63238 -9.89684,10.76121 -17.64688,2.14358 z M 265.9856,137.3072 c -4.41264,-4.41264 -6.51667,-16.04454 -4.55935,-25.20581 1.53996,-7.2078 6.35113,-12.896863 7.77305,-9.19139 0.24831,0.64706 -0.30177,2.13406 -1.22239,3.30443 -2.31353,2.94118 -3.46733,7.73439 -3.41237,14.17598 0.0514,6.02557 1.1313,10.16928 3.54725,13.61142 1.40853,2.00681 1.45502,2.40537 0.40324,3.45714 -1.05178,1.05178 -1.34338,1.03428 -2.52943,-0.15177 z m 21.52935,-0.34566 c -0.26241,-0.42459 0.43476,-2.1499 1.54926,-3.83404 4.91994,-7.43453 4.30208,-20.62791 -1.32868,-28.37196 -1.22548,-1.68541 0.16068,-3.50074 2.10375,-2.75511 1.65683,0.63578 4.2712,4.97718 5.33131,8.85313 1.14084,4.17113 1.08469,14.94241 -0.0974,18.67657 -1.9377,6.12131 -5.93746,10.05393 -7.55827,7.43141 z m -5.41732,-0.8921 c -0.77,-0.44848 -1.4,-1.33754 -1.4,-1.97567 0,-0.63814 -0.36,-1.16025 -0.8,-1.16025 -0.44,0 -0.8,0.30221 -0.8,0.67158 0,0.36938 -0.88781,1.07611 -1.9729,1.57051 -1.53284,0.69841 -2.60348,0.63544 -4.8,-0.28232 -3.12262,-1.30472 -3.69203,-3.54896 -1.60166,-6.31268 1.48177,-1.95907 1.50961,-3.64709 0.0602,-3.64709 -1.5557,0 -2.24064,-2.21548 -1.25458,-4.05795 0.5634,-1.05272 1.6777,-1.54205 3.51154,-1.54205 1.6498,0 2.86394,-0.46301 3.14675,-1.2 0.58092,-1.51386 3.61795,-1.57255 4.19032,-0.081 0.23617,0.61546 -0.49513,2.94349 -1.62511,5.17341 -2.46996,4.87424 -2.49509,5.267 -0.4667,7.29539 1.58376,1.58376 1.58904,1.58223 2.06682,-0.6 0.86555,-3.95336 1.11948,-4.30269 2.9395,-4.04392 1.54472,0.21963 1.89477,0.92826 2.45773,4.97542 0.50112,3.60262 0.40701,4.87749 -0.3977,5.38775 -1.32336,0.83914 -1.5391,0.82779 -3.25416,-0.17114 z m -36.83292,-2.03551 c -0.31189,-0.31189 -0.56708,-2.13838 -0.56708,-4.05885 0,-2.36581 -0.38695,-3.64027 -1.2,-3.95226 -0.66,-0.25327 -1.2,-1.32197 -1.2,-2.37489 0,-1.16836 0.46764,-1.91441 1.2,-1.91441 0.66,0 1.2,-0.11388 1.2,-0.25307 0,-1.67944 2.02255,-10.37062 2.95667,-12.7052 1.69265,-4.23036 4.51281,-4.26006 6.2652,-0.066 1.7577,4.20676 1.30986,6.25915 -1.32812,6.0866 -1.83498,-0.12003 -2.16495,0.23401 -2.5754,2.7633 -0.32401,1.99668 -0.0981,3.31274 0.72474,4.22197 1.1707,1.29361 0.84318,3.95239 -0.48687,3.95239 -0.36993,0 -0.78142,1.89 -0.91441,4.2 -0.2028,3.52245 -0.50523,4.23771 -1.87473,4.43374 -0.8981,0.12856 -1.8881,-0.0214 -2.2,-0.33332 z m 36.47783,-12.8161 c -0.59683,-1.5553 1.76754,-3.58282 3.43285,-2.94378 0.61723,0.23686 1.12224,1.29213 1.12224,2.34506 0,1.51503 -0.42247,1.91441 -2.0251,1.91441 -1.14125,0 -2.24547,-0.57423 -2.52999,-1.31569 z m -25.84258,-13.47818 c -0.44128,-1.16066 -0.80233,-2.98686 -0.80233,-4.05821 0,-2.77665 3.75532,-2.80137 4.45106,-0.0293 1.23766,4.93122 -1.96421,8.51812 -3.64873,4.0875 z m -101.57131,-7.54818 c -0.4539,-0.848125 -0.58808,-2.160183 -0.29816,-2.915685 0.33356,-0.869259 -0.009,-1.765999 -0.93422,-2.442195 -1.27689,-0.933684 -1.34672,-1.451138 -0.5532,-4.099674 1.35056,-4.507756 2.75342,-6.099015 4.80332,-5.4484 1.62728,0.516476 1.7105,0.955063 1.4432,7.605916 -0.15601,3.881809 -0.53177,7.459288 -0.83502,7.949958 -0.85664,1.38607 -2.71451,1.05306 -3.62592,-0.64992 z m 84.51107,-0.582528 c -0.29814,-0.298151 -0.54209,-1.202091 -0.54209,-2.008759 0,-1.39898 1.5532,-1.466666 33.65564,-1.466666 h 33.65564 l -0.25564,1.8 -0.25564,1.8 -32.85791,0.208758 c -18.07185,0.114815 -33.10185,-0.03518 -33.4,-0.333333 z M 130.85676,97.909343 c -1.43359,-1.584099 -1.68494,-3.946758 -0.85913,-8.075826 0.38546,-1.927273 0.92,-2.5 2.33334,-2.5 2.16034,0 2.69073,1.094141 2.17374,4.484234 -0.31232,2.047987 -0.0717,2.564561 1.37032,2.941655 1.28016,0.334769 1.67858,0.955704 1.48589,2.315765 -0.35168,2.48225 -4.52795,3.017869 -6.50416,0.834172 z m 81.48623,-0.353831 c -1.46661,-2.093878 -1.52498,-3.182883 -0.38978,-7.270938 0.68934,-2.482417 1.17161,-3.002685 2.59554,-2.8 1.44164,0.20521 1.75849,0.791231 1.80355,3.335813 0.0358,2.017813 0.5206,3.347611 1.4,3.839752 0.73993,0.414085 1.34533,1.634994 1.34533,2.71313 0,1.700802 -0.36458,1.960248 -2.75464,1.960248 -1.93966,0 -3.12308,-0.526028 -4,-1.778005 z m -69.51202,-0.355329 c -0.29334,-0.293332 -0.53334,-1.193333 -0.53334,-2 0,-1.042255 -0.59571,-1.466666 -2.05865,-1.466666 -2.59723,0 -2.40637,-2.673965 0.21763,-3.049195 1.08225,-0.15476 1.83707,-0.912673 1.99183,-2 0.1577,-1.107944 0.91012,-1.844672 2.04919,-2.006446 1.46599,-0.208203 1.8,0.125812 1.8,1.8 0,1.483581 0.42144,2.055641 1.51441,2.055641 2.42591,0 2.76806,2.332209 0.47031,3.205809 -1.21101,0.460428 -1.98472,1.386035 -1.98472,2.37439 0,1.579414 -2.26413,2.289002 -3.46666,1.086467 z m 58.86666,-0.291596 c -0.99,-0.397931 -1.8,-1.019304 -1.8,-1.380828 0,-0.361523 -0.98011,-0.643124 -2.17803,-0.625779 -3.044,0.04407 -3.25399,-2.170457 -0.57269,-6.039574 1.20363,-1.736829 1.95493,-3.39135 1.66956,-3.676713 -0.28536,-0.285364 -0.51884,-0.07493 -0.51884,0.467628 0,1.556118 -4.34189,0.714473 -4.6482,-0.901019 -0.4008,-2.11391 3.71363,-7.018786 5.88768,-7.018786 2.29471,0 7.48083,3.220416 7.52666,4.673817 0.0186,0.5906 -0.68614,1.989148 -1.56614,3.107887 -1.95614,2.486837 -2.30178,7.396637 -0.41018,5.826752 1.70865,-1.418064 3.61018,-0.393141 3.61018,1.945893 0,1.410665 -0.69929,2.366178 -2.36027,3.225108 -1.29815,0.671299 -2.46815,1.197725 -2.6,1.169835 -0.13185,-0.02789 -1.04973,-0.376289 -2.03973,-0.774221 z m -83.10851,-1.169378 c -0.30456,-0.793659 -1.0792,-1.038472 -2.30916,-0.729771 -1.33344,0.334671 -2.08724,0.02286 -2.6964,-1.115372 -0.68305,-1.276292 -0.391,-2.250654 1.51971,-5.070229 1.30089,-1.919676 2.36085,-3.85032 2.35548,-4.29032 -0.005,-0.44 -0.37671,-0.17 -0.82519,0.6 -0.94177,1.616913 -3.18346,1.832464 -4.57592,0.44 -1.39193,-1.391928 -1.1578,-2.337171 1.27251,-5.137433 2.9553,-3.405168 5.25488,-4.015171 7.32656,-1.943489 0.90251,0.902506 2.18093,1.640921 2.84093,1.640921 1.69246,0 1.48956,2.617772 -0.45887,5.920115 -1.90064,3.221336 -1.33683,4.879886 1.65887,4.879886 2.73824,0 3.15909,2.977582 0.66751,4.722754 -2.30156,1.612076 -6.17107,1.659439 -6.77603,0.08294 z m 148.48695,-3.005692 c -2.59481,-4.221738 -3.53572,-8.553932 -3.51848,-16.200001 0.0174,-7.690883 1.94636,-13.909757 5.23892,-16.889484 1.4277,-1.292059 1.65358,-1.300919 2.84298,-0.111518 1.1894,1.189401 1.1285,1.486416 -0.76653,3.738528 -4.46163,5.302353 -4.98197,18.959088 -1.00104,26.273368 1.21283,2.228364 1.96352,4.442516 1.66821,4.920339 -0.99396,1.608269 -2.85513,0.88648 -4.46406,-1.731232 z m 23.53138,1.453485 c -0.24197,-0.630584 0.54584,-2.828639 1.75069,-4.884566 4.03011,-6.876859 3.53223,-19.869924 -0.9888,-25.804862 -1.60067,-2.101268 -1.81484,-2.868648 -1.05583,-3.783189 1.55083,-1.868642 3.89328,0.03774 6.25156,5.087786 1.82585,3.909896 2.11438,5.573644 2.1039,12.131345 -0.0133,8.328115 -1.05533,12.388629 -4.1112,16.020324 -2.21168,2.628431 -3.28619,2.963856 -3.95032,1.233162 z m -6.72618,-2.08405 c -0.47996,-0.89681 -0.76262,-3.146811 -0.62814,-5 0.21837,-3.00939 0.47959,-3.396485 2.4445,-3.622573 2.20853,-0.25412 2.55074,0.251557 2.23375,3.300838 -0.0828,0.796236 0.26552,1.94896 0.77398,2.56161 0.50845,0.612651 0.69045,1.851185 0.40445,2.752299 -0.69068,2.176158 -4.06538,2.181208 -5.22854,0.0078 z m -9.78364,-0.497951 c -2.58549,-1.361835 -2.63616,-1.702556 -0.81973,-5.511657 1.30703,-2.740863 1.30703,-2.935445 0,-3.666894 -3.10123,-1.735537 -0.74991,-6.942314 2.72475,-6.033673 1.14064,0.298287 2.1474,-0.0877 3.01126,-1.154532 1.45473,-1.796518 4.08372,-1.345154 4.08372,0.701125 0,0.67907 -0.97098,3.219275 -2.15773,5.644902 l -2.15772,4.410229 1.75772,1.167086 c 2.11809,1.406355 2.2571,3.216471 0.35773,4.658293 -1.76374,1.33887 -3.98331,1.268733 -6.8,-0.214879 z m -22.49528,-0.102042 c -0.24544,-0.397129 -0.69907,-2.303094 -1.00807,-4.235477 -0.309,-1.932381 -1.04215,-3.993758 -1.62923,-4.580837 -1.43686,-1.436857 -1.34439,-2.264032 0.39214,-3.507765 0.89312,-0.639668 1.87135,-3.063437 2.52063,-6.245364 2.20568,-10.809413 5.87473,-13.23711 8.78742,-5.814368 1.27937,3.26036 0.63103,5.014368 -1.85346,5.014368 -1.60119,0 -2.03268,0.514927 -2.49455,2.976857 -0.35713,1.903679 -0.24502,3.081336 0.31097,3.266667 1.31508,0.43836 1.04121,4.140775 -0.34566,4.672969 -0.91072,0.349473 -1.16122,1.495492 -1,4.574892 0.19256,3.678115 0.0344,4.134365 -1.50942,4.354365 -0.94848,0.135161 -1.92533,-0.07918 -2.17077,-0.476307 z m -37.99209,-6.033733 c -1.37382,-1.655351 -0.24552,-3.73571 2.0261,-3.73571 1.67315,0 1.92967,0.328152 1.71441,2.19316 -0.28329,2.454371 -2.29519,3.284058 -3.74051,1.54255 z m -81.97929,-0.269043 c -1.01343,-1.013432 -0.52874,-3.297249 0.8087,-3.810471 1.69938,-0.652113 3.83441,1.408889 3.19247,3.081772 -0.48623,1.267098 -3.0042,1.725674 -4.00117,0.728699 z m 36.41102,-1.266666 c 0.24657,-1.73615 0.55361,-1.800001 8.65564,-1.800001 8.10204,0 8.40908,0.06385 8.65564,1.800001 0.25199,1.774237 0.12811,1.8 -8.65564,1.8 -8.78374,0 -8.90762,-0.02576 -8.65564,-1.8 z m 59.05564,-4.600001 c 0,-1.447619 0.53334,-1.6 5.6,-1.6 5.06667,0 5.6,0.152381 5.6,1.6 0,1.44762 -0.53333,1.6 -5.6,1.6 -5.06666,0 -5.6,-0.15238 -5.6,-1.6 z m 57.8893,-0.4 c -0.70208,-1.829593 0.28148,-3.6 2,-3.6 1.71852,0 2.70208,1.770407 2,3.6 -0.25327,0.66 -1.15327,1.2 -2,1.2 -0.84673,0 -1.74673,-0.54 -2,-1.2 z M 168.45719,78.026408 c -0.30776,-0.307757 -0.55956,-1.219558 -0.55956,-2.026225 0,-1.333892 0.80169,-1.466667 8.85564,-1.466667 8.72604,0 8.85191,0.02634 8.6,1.8 -0.24322,1.712561 -0.64622,1.81099 -8.29608,2.026225 -4.42224,0.124424 -8.29224,-0.02558 -8.6,-0.333333 z"
         id="path926" />
    </g>
  </g>
</svg>
