<?xml version="1.0" encoding="UTF-8" standalone="no"?>
<!-- Created with Inkscape (http://www.inkscape.org/) -->

<svg
   width="118.00417mm"
   height="118.26875mm"
   viewBox="0 0 118.00417 118.26875"
   version="1.1"
   id="svg5"
   inkscape:version="1.1.1 (3bf5ae0d25, 2021-09-20)"
   sodipodi:docname="desenho.svg"
   xmlns:inkscape="http://www.inkscape.org/namespaces/inkscape"
   xmlns:sodipodi="http://sodipodi.sourceforge.net/DTD/sodipodi-0.dtd"
   xmlns="http://www.w3.org/2000/svg"
   xmlns:svg="http://www.w3.org/2000/svg">
  <sodipodi:namedview
     id="namedview7"
     pagecolor="#ffffff"
     bordercolor="#000000"
     borderopacity="0.25"
     inkscape:pageshadow="2"
     inkscape:pageopacity="0.0"
     inkscape:pagecheckerboard="0"
     inkscape:document-units="mm"
     showgrid="false"
     fit-margin-top="0"
     fit-margin-left="0"
     fit-margin-right="0"
     fit-margin-bottom="0"
     inkscape:snap-global="false"
     inkscape:snap-bbox="true"
     inkscape:bbox-paths="false"
     inkscape:bbox-nodes="false"
     inkscape:zoom="0.90583672"
     inkscape:cx="27.046817"
     inkscape:cy="148.48151"
     inkscape:window-width="1920"
     inkscape:window-height="1001"
     inkscape:window-x="-9"
     inkscape:window-y="1071"
     inkscape:window-maximized="1"
     inkscape:current-layer="layer1" />
  <defs
     id="defs2" />
  <g
     inkscape:label="Camada 1"
     inkscape:groupmode="layer"
     id="layer1"
     transform="translate(-37.657162,-73.462288)">
    <path
       style="fill:#000000;stroke-width:0.264583"
       d="m 94.652723,188.23849 c -0.24546,-0.63967 0.14203,-0.93872 1.21635,-0.93872 1.25553,0 1.85811,0.21451 1.85811,0.66146 0,0.4493 -0.60366,0.66146 -1.88203,0.66146 -0.6695,0 -1.09797,-0.13806 -1.19243,-0.3842 z m -1.09273,-1.37853 c -0.53756,-0.21691 -0.37793,-0.80874 0.26458,-0.98092 0.32743,-0.0877 1.69664,-0.16117 3.04271,-0.16315 2.43513,-0.004 2.4474,-2.7e-4 2.4474,0.65784 v 0.66146 l -2.71198,-0.0209 c -1.49159,-0.0115 -2.86081,-0.0809 -3.04271,-0.15434 z m -1.05833,-1.5875 c -0.54372,-0.21939 -0.37453,-0.86318 0.26458,-1.00672 0.32742,-0.0735 1.13109,-0.16511 1.78594,-0.20348 l 1.19062,-0.0698 v -2.24896 -2.24895 l -2.57968,-0.0757 -2.57969,-0.0757 v 2.34026 c 0,1.60266 -0.11827,2.50201 -0.37525,2.85344 -0.60431,0.82645 -0.80955,0.24243 -0.9073,-2.58176 l -0.0919,-2.65592 -1.67468,-2.26481 c -2.168527,-2.93266 -2.425935,-3.41529 -2.031753,-3.80947 0.401579,-0.40158 1.004683,0.14686 2.749113,2.49998 0.73691,0.99403 1.47373,1.76447 1.63738,1.71209 0.16364,-0.0524 0.91154,-0.91404 1.662,-1.91478 1.78696,-2.38295 2.73742,-3.09402 2.73591,-2.04684 -2.7e-4,0.25466 -0.59533,1.35599 -1.32213,2.44739 l -1.32146,1.98438 2.43229,0.0768 c 1.33776,0.0422 2.58755,0.20562 2.77733,0.36312 0.24311,0.20177 0.34505,1.09752 0.34505,3.0321 v 2.74572 h 1.16899 c 1.39044,0 2.006007,0.20063 2.006007,0.65381 0,0.19511 -0.507437,0.40215 -1.227547,0.50086 -1.42144,0.19483 -6.15599,0.18986 -6.6438,-0.007 z m 9.997437,-0.6071 c -0.32915,-0.20818 -0.23859,-0.6812 0.6018,-3.14323 1.82711,-5.35272 3.21519,-8.63297 3.69202,-8.72479 0.53502,-0.10304 1.10456,1.10224 3.23437,6.84468 1.56043,4.20727 1.69406,4.86481 1.03971,5.11591 -0.6712,0.25756 -8.14194,0.17685 -8.5679,-0.0926 z m 7.28481,-1.75294 c -0.33145,-1.32058 -2.68622,-7.03483 -2.91684,-7.07817 -0.2321,-0.0436 -2.31797,5.42128 -2.65514,6.9564 l -0.1768,0.80496 h 2.96012 2.96013 z m 20.82438,-11.54498 c -0.41958,-0.52526 -1.17379,-2.07933 -1.41168,-2.90882 -0.18033,-0.62877 -0.11175,-0.81548 0.42988,-1.17037 0.62767,-0.41127 0.64444,-0.51095 0.64444,-3.83141 v -3.40915 h -6.31784 -6.31783 l -0.43695,1.73949 c -0.67055,2.6695 -1.448,4.0646 -3.26093,5.85159 -2.96505,2.92263 -6.52595,4.1282 -10.4545,3.53945 -1.06773,-0.16002 -2.56624,-0.61574 -3.3775,-1.02717 l -1.458257,-0.73953 -1.84904,0.86408 c -1.78124,0.83239 -1.97371,0.86445 -5.24992,0.87433 l -3.40089,0.0103 -1.8717,-0.98355 c -3.597263,-1.89031 -5.830685,-4.86481 -6.638055,-8.84066 -0.373161,-1.8376 -0.219274,-1.67194 -4.146164,-4.46329 -3.480062,-2.47373 -8.067548,-7.59361 -10.299711,-11.49502 -0.834345,-1.45828 -0.850429,-1.46956 -2.095704,-1.46956 -1.925696,0 -4.247291,-0.50702 -5.800782,-1.26684 -1.812868,-0.88669 -4.61656,-3.69351 -5.450742,-5.45683 -1.540955,-3.25731 -1.567745,-7.45827 -0.06744,-10.57615 1.568591,-3.2598 3.528191,-5.03216 7.052946,-6.37905 l 1.79922,-0.68752 0.184722,-1.24441 c 0.517432,-3.4858 3.144882,-9.79741 5.606163,-13.46701 2.860382,-4.26464 6.965233,-8.370999 10.934243,-10.938249 3.287361,-2.126343 3.174299,-2.01107 3.181469,-3.243697 0.02445,-4.202768 2.877328,-8.602239 6.875165,-10.602274 3.48942,-1.745684 6.74914,-1.802705 10.6144,-0.185673 1.54644,0.646952 1.82743,0.691861 2.381247,0.380583 2.57257,-1.445917 7.09367,-1.852729 9.8917,-0.890063 4.10309,1.41167 7.12981,4.80591 8.07563,9.05621 l 0.33752,1.516743 6.37508,0.07076 6.37507,0.07076 0.0731,4.044083 c 0.0728,4.029743 0.0754,4.044966 0.7276,4.292931 0.38617,0.146818 0.65452,0.459499 0.65452,0.762627 0,0.601445 -0.8324,2.578449 -1.4003,3.325799 -0.34371,0.45231 -0.45198,0.47149 -0.84067,0.14891 -0.58627,-0.48656 -1.72778,-2.754278 -1.72778,-3.432389 0,-0.34779 0.22978,-0.590593 0.66146,-0.698937 l 0.66146,-0.166015 v -3.543192 -3.543192 h -5.79034 -5.79035 l -0.18223,1.45855 c -0.43471,3.479288 -3.54066,7.596185 -6.92606,9.180415 -3.04875,1.42668 -7.64276,1.34467 -10.67802,-0.19061 l -1.188887,-0.60136 -1.52225,0.76844 c -3.14325,1.5867 -7.43112,1.60557 -10.75153,0.0473 -2.642855,-1.2403 -5.293948,-4.455825 -6.564535,-7.962175 -0.215601,-0.594976 -0.267923,-0.575068 -2.700626,1.027579 -4.922936,3.243189 -10.165049,9.077016 -12.725755,14.162176 -1.160672,2.30492 -2.988945,7.45662 -3.298899,9.29563 l -0.189527,1.12448 h 1.026002 c 2.917645,0 6.350053,1.52156 8.381018,3.71525 5.729814,6.18888 4.214416,15.20164 -3.248438,19.31992 -1.170294,0.64581 -2.131298,1.24823 -2.135563,1.3387 -0.01064,0.2255 2.557521,4.14839 3.356547,5.12717 1.615347,1.97875 5.184047,5.37198 7.432043,7.06663 1.354084,1.02078 2.490136,1.81291 2.524561,1.76029 0.03442,-0.0526 0.324218,-0.9335 0.643988,-1.95753 1.449972,-4.64338 5.005936,-7.85899 9.553084,-8.63874 2.25781,-0.38717 4.66402,-0.0719 7.20161,0.94345 l 1.74771,0.69934 1.48726,-0.68089 c 1.834877,-0.84004 4.516957,-1.27932 6.790517,-1.11218 4.91204,0.3611 9.44387,4.61645 10.57056,9.92566 l 0.35043,1.65126 h 6.94444 6.94445 l 0.15953,0.59532 c 0.0877,0.32742 0.16117,2.1592 0.16316,4.07061 0.004,3.38871 0.0197,3.48582 0.64805,3.89755 0.55632,0.36452 0.61291,0.53217 0.41387,1.22617 -0.30776,1.07312 -1.38267,2.98025 -1.7462,3.09817 -0.16007,0.0519 -0.41308,-0.0584 -0.56225,-0.24515 z M 93.227673,169.8191 c 0.94501,-0.15332 2.2342,-0.50701 2.86488,-0.78599 l 1.14668,-0.50723 -1.05033,-1.26253 c -3.92977,-4.72376 -3.92977,-11.29506 0,-16.01882 l 1.05033,-1.26253 -1.21439,-0.53718 c -4.20094,-1.85827 -8.98239,-0.95664 -12.033136,2.26907 -3.33725,3.52865 -4.043251,8.45892 -1.81102,12.64702 1.367645,2.56596 4.471866,4.93117 7.173766,5.46592 1.55066,0.3069 1.93871,0.30612 3.87322,-0.008 z m 16.737747,-0.89778 c 1.82589,-0.90976 4.07827,-3.18819 5.12444,-5.18373 0.70346,-1.34184 0.75542,-1.6502 0.75559,-4.48365 1.7e-4,-2.77242 -0.0634,-3.17198 -0.71564,-4.49792 -1.57502,-3.20185 -4.11985,-5.21346 -7.56687,-5.98142 -1.70915,-0.38077 -2.31118,-0.40435 -3.80344,-0.14897 -2.03333,0.34797 -3.915657,1.03574 -3.915657,1.4307 0,0.14846 0.427667,0.74331 0.950377,1.32189 1.28106,1.41798 2.38481,3.83609 2.7563,6.03852 0.57008,3.37978 -0.29774,6.51178 -2.69235,9.71687 l -1.044017,1.39737 1.139327,0.48987 c 0.62663,0.26943 1.31792,0.56033 1.5362,0.64645 0.21828,0.0861 1.64703,0.1242 3.175,0.0846 2.44568,-0.0633 2.96033,-0.16274 4.30074,-0.8306 z m -10.467227,-2.33943 c 2.027937,-2.3097 2.845417,-4.74674 2.675857,-7.97724 -0.13124,-2.50039 -1.08927,-4.85881 -2.691897,-6.62675 l -0.95937,-1.05833 -1.15598,1.24307 c -3.66504,3.9412 -3.66349,10.18557 0.004,14.24455 0.52116,0.57686 1.04043,1.04883 1.15395,1.04883 0.11351,0 0.55175,-0.39335 0.97388,-0.87413 z M 65.015041,142.19125 c 3.339675,-0.70756 5.726388,-2.56614 7.247372,-5.64364 0.955429,-1.93318 0.990809,-2.10446 0.990809,-4.79661 0,-2.59374 -0.06025,-2.91905 -0.849122,-4.58447 -1.475549,-3.1151 -4.544986,-5.51694 -7.699637,-6.02498 -1.991053,-0.32065 -4.965142,0.0474 -6.538801,0.80919 -2.786728,1.34904 -5.209661,4.46007 -5.949662,7.63934 -1.032749,4.43701 1.315392,9.38898 5.512989,11.62627 2.60736,1.38971 4.275007,1.61285 7.286052,0.9749 z m -1.015402,-9.00864 c -0.69443,-0.36924 -1.999342,-1.19706 -2.899804,-1.83962 -0.900459,-0.64255 -1.974015,-1.29633 -2.38568,-1.45285 -0.954253,-0.36281 -1.376933,-0.005 -2.513084,2.12649 -1.441712,2.70493 -2.26521,1.62112 -0.923383,-1.21527 1.464995,-3.09675 2.766275,-3.20551 6.690843,-0.55922 4.130133,2.78488 4.44373,2.80784 6.566911,0.48064 1.05614,-1.15762 1.440333,-1.42822 1.686811,-1.18807 0.46463,0.4527 -0.603252,2.5265 -1.815573,3.5258 -1.239679,1.02185 -2.641783,1.06069 -4.407041,0.1221 z m 32.735354,-32.27162 c 0.69122,-0.24436 1.25677,-0.61067 1.25677,-0.81401 0,-0.203344 -0.42345,-0.924467 -0.941,-1.602496 -2.69034,-3.524534 -3.37388,-7.521939 -1.97933,-11.575267 0.44255,-1.286303 1.11983,-2.450774 2.80416,-4.821328 0.38038,-0.535348 0.3425,-0.582745 -0.88896,-1.112507 -2.56076,-1.101607 -6.40241,-1.000698 -8.95551,0.235234 -1.74485,0.84467 -4.000122,3.231848 -4.952786,5.242472 -0.758241,1.600288 -0.829281,1.978056 -0.829281,4.409778 0,2.54197 0.04405,2.748689 0.996389,4.675614 1.435095,2.903712 3.949528,5.0512 6.738568,5.75515 1.41296,0.35664 5.26529,0.13258 6.75098,-0.39264 z m 14.169317,-0.2602 c 2.14891,-0.964379 4.78966,-3.692258 5.54851,-5.731572 2.00326,-5.383558 -0.32555,-11.256597 -5.46724,-13.787844 -1.61863,-0.796847 -1.91986,-0.85452 -4.3893,-0.840356 -2.09547,0.01202 -2.9663,0.139297 -4.15327,0.607034 l -1.50188,0.591828 1.24256,1.641924 c 2.16158,2.856326 2.55495,4.046031 2.55495,7.72734 0,2.966714 -0.052,3.287821 -0.79193,4.894791 -0.43557,0.945886 -1.29094,2.333576 -1.90084,3.083757 l -1.1089,1.363968 1.23937,0.52728 c 1.84651,0.78557 2.09189,0.82425 4.68954,0.73915 1.93876,-0.0635 2.70372,-0.21833 4.03843,-0.8173 z m -10.14763,-2.571889 c 2.08701,-2.438197 3.0709,-5.931184 2.52441,-8.96204 -0.33897,-1.879898 -1.45586,-4.190831 -2.66561,-5.515336 -0.733487,-0.803067 -0.831537,-0.83736 -1.376007,-0.481269 -0.93346,0.610484 -2.44938,2.953486 -2.95882,4.573142 -0.63857,2.030181 -0.47256,5.551234 0.34822,7.385488 0.60829,1.359412 2.59166,4.114633 2.96195,4.114633 0.11648,0 0.641117,-0.501578 1.165857,-1.114618 z m 11.62312,21.897089 c -0.24546,-0.63967 0.14203,-0.93872 1.21635,-0.93872 1.25554,0 1.85811,0.21451 1.85811,0.66146 0,0.4493 -0.60365,0.66146 -1.88203,0.66146 -0.66949,0 -1.09797,-0.13806 -1.19243,-0.3842 z m -1.13128,-1.42862 c -0.20311,-0.13774 -0.29614,-0.44105 -0.20674,-0.67402 0.13472,-0.35107 0.63685,-0.42358 2.93335,-0.42358 2.7361,0 3.4745,0.22714 2.83086,0.87077 -0.37247,0.37248 -5.06057,0.56382 -5.55747,0.22683 z m -1.05834,-1.59318 c -0.2031,-0.13462 -0.29613,-0.43537 -0.20674,-0.66834 0.12418,-0.32359 0.53922,-0.42358 1.75835,-0.42358 h 1.5958 v -2.38125 -2.38125 h -2.48117 -2.48118 l -0.11396,2.38347 c -0.12483,2.61094 -0.49754,3.42339 -1.15921,2.5269 -0.26216,-0.3552 -0.37906,-1.23977 -0.37906,-2.86825 v -2.35465 l -1.85208,-2.5394 c -1.85764,-2.547 -2.09318,-3.05325 -1.57083,-3.37608 0.38241,-0.23634 1.09093,0.44888 2.67862,2.59057 0.73691,0.99403 1.46162,1.76674 1.61048,1.71712 0.14885,-0.0496 0.99712,-1.02764 1.88504,-2.17339 1.71927,-2.21849 2.17433,-2.56413 2.44552,-1.85742 0.11149,0.29055 -0.29795,1.1159 -1.19049,2.39974 -0.74823,1.07629 -1.36043,2.01799 -1.36043,2.09268 0,0.0747 1.01986,0.1358 2.26636,0.1358 3.30173,0 3.28989,-0.0119 3.28989,3.3166 v 2.76881 l 1.38907,0.004 c 1.65472,0.005 2.35449,0.32658 1.8374,0.84483 -0.41098,0.4119 -7.38538,0.6248 -7.96138,0.24304 z m -22.715607,-0.74947 c -0.36092,-0.0695 -0.59531,-0.30694 -0.59531,-0.60302 0,-0.52888 2.21991,-7.08302 3.27232,-9.6613 0.87347,-2.13989 1.31606,-2.0927 2.31408,0.24678 1.29748,3.04143 3.40943,8.85328 3.40943,9.38234 0,0.29032 -0.2466,0.56171 -0.59531,0.65516 -0.65981,0.17682 -6.86594,0.16095 -7.80521,-0.0199 z m 6.65699,-1.36236 c 0.14192,-0.22964 -2.38201,-7.12831 -2.75768,-7.53757 -0.20203,-0.2201 -0.50896,0.50218 -2.25912,5.31634 l -0.88973,2.44739 h 2.88337 c 1.58586,0 2.94628,-0.10177 3.02316,-0.22616 z"
       id="path39" />
  </g>
</svg>
