<?xml version="1.0" encoding="UTF-8" standalone="no"?>
<!-- Created with Inkscape (http://www.inkscape.org/) -->

<svg
   version="1.1"
   id="svg2"
   width="446"
   height="447"
   viewBox="0 0 446 447"
   sodipodi:docname="RN.svg"
   inkscape:version="1.1.1 (3bf5ae0d25, 2021-09-20)"
   xmlns:inkscape="http://www.inkscape.org/namespaces/inkscape"
   xmlns:sodipodi="http://sodipodi.sourceforge.net/DTD/sodipodi-0.dtd"
   xmlns="http://www.w3.org/2000/svg"
   xmlns:svg="http://www.w3.org/2000/svg">
  <defs
     id="defs6" />
  <sodipodi:namedview
     id="namedview4"
     pagecolor="#ffffff"
     bordercolor="#000000"
     borderopacity="0.25"
     inkscape:pageshadow="2"
     inkscape:pageopacity="0.0"
     inkscape:pagecheckerboard="0"
     showgrid="false"
     inkscape:zoom="0.80425056"
     inkscape:cx="186.50904"
     inkscape:cy="262.97775"
     inkscape:window-width="1600"
     inkscape:window-height="821"
     inkscape:window-x="-7"
     inkscape:window-y="-9"
     inkscape:window-maximized="1"
     inkscape:current-layer="g8" />
  <g
     inkscape:groupmode="layer"
     inkscape:label="Image"
     id="g8">
    <g
       id="g122"
       transform="translate(-13.791289,-6.1567848)">
      <path
         style="fill:#eef9f1;stroke-width:0.8"
         d="m 299.29934,222.09763 c -0.99509,-1.26885 -0.9668,-1.29714 0.30205,-0.30205 1.3326,1.0451 1.75639,1.70205 1.09795,1.70205 -0.16612,0 -0.79612,-0.63 -1.4,-1.4 z"
         id="path186" />
      <path
         style="fill:#cdeed6;stroke-width:0.8"
         d="m 298.20139,243.49763 c 0.79639,-0.88 1.62799,-1.6 1.84799,-1.6 0.22,0 -0.2516,0.72 -1.04799,1.6 -0.79639,0.88 -1.62798,1.6 -1.84798,1.6 -0.22,0 0.25159,-0.72 1.04798,-1.6 z"
         id="path184" />
      <path
         style="fill:#cdcdcd;stroke-width:0.8"
         d="m 284.89934,318.89763 c -0.99509,-1.26885 -0.9668,-1.29714 0.30205,-0.30205 0.77,0.60388 1.4,1.23388 1.4,1.4 0,0.65843 -0.65695,0.23465 -1.70205,-1.09795 z m -12,-12 c -0.99509,-1.26885 -0.9668,-1.29714 0.30205,-0.30205 0.77,0.60388 1.4,1.23388 1.4,1.4 0,0.65843 -0.65695,0.23465 -1.70205,-1.09795 z"
         id="path182" />
      <path
         style="fill:#bfbfbf;stroke-width:0.8"
         d="m 227.20139,254.10531 c 2.75,-0.15621 7.25,-0.15621 10,0 2.75,0.15622 0.5,0.28403 -5,0.28403 -5.5,0 -7.75,-0.12781 -5,-0.28403 z M 162.02553,83.708618 c 2.10327,-0.16534 5.34327,-0.163346 7.2,0.0044 1.85672,0.16778 0.13586,0.303059 -3.82414,0.300621 -3.96,-0.0024 -5.47914,-0.139712 -3.37586,-0.305053 z M 246.8306,66.905574 c 2.54606,-0.15924 6.50606,-0.157763 8.8,0.0033 2.29393,0.161045 0.21079,0.291332 -4.62921,0.289527 -4.84,-0.0018 -6.71686,-0.133569 -4.17079,-0.292809 z"
         id="path180" />
      <path
         style="fill:#bebebe;stroke-width:0.8"
         d="m 226.7277,371.49763 c 0,-1.1 0.18159,-1.55 0.40351,-1 0.22193,0.55 0.22193,1.45 0,2 -0.22192,0.55 -0.40351,0.1 -0.40351,-1 z m 91.93685,0.33333 c 0.0384,-0.93196 0.22795,-1.12152 0.48333,-0.48333 0.2311,0.57749 0.20268,1.2675 -0.0631,1.53333 -0.26583,0.26584 -0.45491,-0.20667 -0.42018,-1.05 z m -180.80001,-0.8 c 0.0384,-0.93196 0.22796,-1.12152 0.48334,-0.48333 0.23109,0.57749 0.20267,1.2675 -0.0632,1.53333 -0.26584,0.26584 -0.45492,-0.20667 -0.42018,-1.05 z m 89.3682,-24.92646 c 2.76724,-0.15666 7.08724,-0.15538 9.6,0.003 2.51275,0.15825 0.24865,0.28642 -5.03135,0.28485 -5.28,-0.002 -7.3359,-0.13106 -4.56865,-0.28772 z m -62.16819,-60.67353 c 0.0384,-0.93196 0.22795,-1.12152 0.48333,-0.48334 0.2311,0.5775 0.20267,1.2675 -0.0632,1.53334 -0.26583,0.26583 -0.45491,-0.20668 -0.42018,-1.05 z m -27.20001,-44.8 c 0.0384,-0.93196 0.22796,-1.12152 0.48334,-0.48334 0.23109,0.5775 0.20267,1.2675 -0.0632,1.53334 -0.26584,0.26583 -0.45492,-0.20667 -0.42018,-1.05 z m 89.3682,-25.72647 c 2.76724,-0.15666 7.08724,-0.15537 9.6,0.003 2.51275,0.15825 0.24865,0.28643 -5.03135,0.28485 -5.28,-0.002 -7.3359,-0.13105 -4.56865,-0.28772 z m 132.77798,-7.17268 c 0.99513,-0.19135 2.43513,-0.18408 3.2,0.0162 0.76487,0.20024 -0.0494,0.3568 -1.80933,0.34792 -1.76,-0.009 -2.3858,-0.17271 -1.39067,-0.36406 z M 192.26455,103.03097 c 0.0384,-0.93196 0.22795,-1.12152 0.48333,-0.48333 0.23109,0.5775 0.20268,1.2675 -0.0631,1.53333 -0.26584,0.26583 -0.45492,-0.20667 -0.42018,-1.05 z m 0,-7.200001 c 0.0384,-0.931954 0.22795,-1.12152 0.48333,-0.483333 0.23109,0.5775 0.20268,1.2675 -0.0631,1.533333 -0.26584,0.265833 -0.45492,-0.206667 -0.42018,-1.05 z m 33.73684,-4.916108 c 1.65,-0.172596 4.35,-0.172596 6,0 1.65,0.172596 0.3,0.31381 -3,0.31381 -3.3,0 -4.65,-0.141214 -3,-0.31381 z m -63.97586,-2.406243 c 2.10327,-0.165341 5.34327,-0.163346 7.2,0.0044 1.85672,0.167779 0.13586,0.303059 -3.82414,0.300621 -3.96,-0.0024 -5.47914,-0.139712 -3.37586,-0.305054 z m 83.97586,-16.802172 c 2.53,-0.158761 6.67,-0.158761 9.2,0 2.53,0.15876 0.46,0.288655 -4.6,0.288655 -5.06,0 -7.13,-0.129895 -4.6,-0.288655 z"
         id="path178" />
      <path
         style="fill:#9edfb1;stroke-width:0.8"
         d="m 302.20139,239.49763 c 0.79639,-0.88 1.62799,-1.6 1.84799,-1.6 0.22,0 -0.2516,0.72 -1.04799,1.6 -0.79639,0.88 -1.62798,1.6 -1.84798,1.6 -0.22,0 0.25159,-0.72 1.04798,-1.6 z"
         id="path176" />
      <path
         style="fill:#a6a6a6;stroke-width:0.8"
         d="m 107.78756,295.49763 c 0,-48.62 0.0962,-68.51 0.21369,-44.2 0.11752,24.31 0.11752,64.09 0,88.4 -0.11753,24.31 -0.21369,4.42 -0.21369,-44.2 z"
         id="path174" />
      <path
         style="fill:#7ed597;stroke-width:0.8"
         d="m 191.20139,236.49925 c 6.71,-0.13381 17.69,-0.13381 24.4,0 6.71,0.13381 1.22,0.24328 -12.2,0.24328 -13.42,0 -18.91,-0.10947 -12.2,-0.24328 z m 43.2,0.0338 c 0.99,-0.19069 2.61,-0.19069 3.6,0 0.99,0.19068 0.18,0.34669 -1.8,0.34669 -1.98,0 -2.79,-0.15601 -1.8,-0.34669 z m 11.6,0.0131 c 0.77,-0.20122 2.03,-0.20122 2.8,0 0.77,0.20122 0.14,0.36586 -1.4,0.36586 -1.54,0 -2.17,-0.16464 -1.4,-0.36586 z m 19.6,-0.0458 c 4.95,-0.14035 13.05,-0.14035 18,0 4.95,0.14036 0.9,0.2552 -9,0.2552 -9.9,0 -13.95,-0.11484 -9,-0.2552 z"
         id="path172" />
      <path
         style="fill:#8e8e8e;stroke-width:0.8"
         d="m 141.9277,103.49764 c 0,-1.1 0.18158,-1.55 0.40351,-1 0.22193,0.55 0.22193,1.45 0,2 -0.22193,0.55 -0.40351,0.1 -0.40351,-1 z"
         id="path170" />
      <path
         style="fill:#888888;stroke-width:0.8"
         d="m 238.1193,153.09763 c 0,-6.38 0.12424,-8.99 0.2761,-5.8 0.15185,3.19 0.15185,8.41 0,11.6 -0.15186,3.19 -0.2761,0.58 -0.2761,-5.8 z"
         id="path168" />
      <path
         style="fill:#1e73fc;stroke-width:0.8"
         d="m 324.38272,399.94989 c -2.76027,-1.0254 -6.36027,-2.754 -8,-3.84133 -14.47671,-9.5998 -19.7471,-28.40451 -12.34746,-44.05576 3.60117,-7.617 7.98024,-11.98948 15.97023,-15.9462 6.79062,-3.36277 6.99851,-3.40897 15.33991,-3.40897 7.90516,0 8.82079,0.17218 14.05599,2.64319 16.11194,7.60482 23.99114,25.16153 18.81421,41.92246 -5.65428,18.30644 -26.53371,29.11301 -43.83288,22.68661 z m 24.00731,-4.63643 c 19.246,-8.8789 23.95822,-35.56406 8.91584,-50.4901 -15.45099,-15.33148 -41.22744,-10.7104 -50.61642,9.07427 -1.8388,3.87477 -2.08806,5.40272 -2.08806,12.8 0,7.76045 0.19003,8.7959 2.49581,13.6 2.58374,5.3832 8.48975,11.98721 12.70419,14.2056 5.04339,2.65473 8.7962,3.37589 16.4,3.15145 6.22248,-0.18365 8.43171,-0.608 12.18864,-2.34122 z"
         id="path166" />
      <path
         style="fill:#7f7f7f;stroke-width:0.8"
         d="m 109.20139,383.74616 c 0.77,-0.20121 2.03,-0.20121 2.8,0 0.77,0.20123 0.14,0.36587 -1.4,0.36587 -1.54,0 -2.17,-0.16464 -1.4,-0.36587 z m 211.22921,-40.8406 c 2.54607,-0.15924 6.50607,-0.15776 8.8,0.003 2.29394,0.16105 0.21079,0.29134 -4.62921,0.28953 -4.84,-0.002 -6.71685,-0.13357 -4.17079,-0.29281 z M 319.23274,211.7045 c 2.76725,-0.15666 7.08725,-0.15537 9.60001,0.003 2.51275,0.15825 0.24864,0.28643 -5.03136,0.28485 -5.28,-0.002 -7.33589,-0.13105 -4.56865,-0.28772 z m -210.82035,-8.78093 c 1.21605,-0.18389 3.01605,-0.17897 4,0.0109 0.98395,0.18989 -0.011,0.34033 -2.211,0.33433 -2.2,-0.006 -3.00505,-0.16137 -1.789,-0.34525 z"
         id="path164" />
      <path
         style="fill:#7e7e7e;stroke-width:0.8"
         d="m 363.25139,389.35114 c 0.5775,-0.2311 1.26751,-0.20268 1.53334,0.0631 0.26583,0.26583 -0.20667,0.45491 -1.05,0.42018 -0.93196,-0.0384 -1.12152,-0.22796 -0.48334,-0.48333 z M 138.43274,346.1045 c 2.76724,-0.15666 7.08724,-0.15538 9.6,0.003 2.51275,0.15825 0.24865,0.28642 -5.03135,0.28485 -5.28,-0.002 -7.3359,-0.13106 -4.56865,-0.28772 z m 93.83181,-62.27353 c 0.0384,-0.93196 0.22795,-1.12152 0.48333,-0.48334 0.23109,0.5775 0.20268,1.2675 -0.0631,1.53334 -0.26584,0.26583 -0.45491,-0.20668 -0.42018,-1.05 z m 86.93684,-24.12566 c 2.75,-0.15621 7.25,-0.15621 10,0 2.75,0.15622 0.5,0.28403 -5,0.28403 -5.5,0 -7.75,-0.12781 -5,-0.28403 z M 138.43274,214.9045 c 2.76724,-0.15666 7.08724,-0.15537 9.6,0.003 2.51275,0.15825 0.24865,0.28643 -5.03135,0.28485 -5.28,-0.002 -7.3359,-0.13105 -4.56865,-0.28772 z m 136.8,-95.2 c 2.76724,-0.15666 7.08724,-0.15537 9.6,0.003 2.51276,0.15825 0.24865,0.28643 -5.03135,0.28485 -5.28,-0.002 -7.33589,-0.13106 -4.56865,-0.28772 z m -12.37353,-11.20654 c 14.0018,-0.12262 36.6818,-0.12255 50.4,1.8e-4 13.7182,0.12272 2.26218,0.22305 -25.45782,0.22296 -27.72,-1e-4 -38.94398,-0.10051 -24.94218,-0.22314 z m 53.40534,-9.466991 c 0.0384,-0.931954 0.22795,-1.12152 0.48333,-0.483333 0.2311,0.5775 0.20268,1.267499 -0.0631,1.533334 -0.26583,0.26583 -0.45491,-0.206668 -0.42018,-1.050001 z m -184.00001,-4 c 0.0384,-0.931954 0.22796,-1.12152 0.48334,-0.483333 0.23109,0.5775 0.20267,1.2675 -0.0632,1.533333 -0.26584,0.265833 -0.45492,-0.206667 -0.42018,-1.05 z m 29.36367,0.675943 c 2.32474,-0.162113 5.92474,-0.160409 8,0.0038 2.07525,0.164224 0.17318,0.296862 -4.22682,0.294779 -4.4,-0.0021 -6.09793,-0.136426 -3.77318,-0.298539 z M 297.20139,70.106446 c 2.53,-0.158761 6.67,-0.158761 9.2,0 2.53,0.15876 0.46,0.288655 -4.6,0.288655 -5.06,0 -7.13,-0.129895 -4.6,-0.288655 z m -170,-0.801127 c 2.75,-0.156217 7.25,-0.156217 10,0 2.75,0.156217 0.5,0.28403 -5,0.28403 -5.5,0 -7.75,-0.127813 -5,-0.28403 z"
         id="path162" />
      <path
         style="fill:#4ac36d;stroke-width:0.8"
         d="m 153.25745,311.49763 c 0,-2.86 0.14519,-4.03 0.32265,-2.6 0.17746,1.43 0.17746,3.77 0,5.2 -0.17746,1.43 -0.32265,0.26 -0.32265,-2.6 z m -0.008,-12.4 c 0.004,-2.64 0.15384,-3.62355 0.33189,-2.18567 0.17805,1.43788 0.17437,3.59788 -0.008,4.8 -0.18254,1.20212 -0.32822,0.0257 -0.32373,-2.61433 z m 0.0316,-26.8 c 0,-3.74 0.1378,-5.27 0.30623,-3.4 0.16843,1.87 0.16843,4.93 0,6.8 -0.16843,1.87 -0.30623,0.34 -0.30623,-3.4 z"
         id="path160" />
      <path
         style="fill:#43c268;stroke-width:0.8"
         d="m 143.7193,304.29763 c 0,-6.38 0.12424,-8.99 0.27609,-5.8 0.15185,3.19 0.15185,8.41 0,11.6 -0.15185,3.19 -0.27609,0.58 -0.27609,-5.8 z m -0.13231,-36 c 0,-1.54 0.16464,-2.17 0.36586,-1.4 0.20122,0.77 0.20122,2.03 0,2.8 -0.20122,0.77 -0.36586,0.14 -0.36586,-1.4 z"
         id="path158" />
      <path
         style="fill:#2ead53;stroke-width:0.8"
         d="m 143.46454,290.23097 c 0.0384,-0.93196 0.22796,-1.12152 0.48334,-0.48334 0.23109,0.5775 0.20267,1.2675 -0.0632,1.53334 -0.26584,0.26583 -0.45491,-0.20668 -0.42018,-1.05 z"
         id="path156" />
      <path
         style="fill:#585858;stroke-width:0.8"
         d="m 336.26455,247.83097 c 0.0384,-0.93196 0.22796,-1.12152 0.48333,-0.48334 0.2311,0.5775 0.20268,1.2675 -0.0631,1.53334 -0.26583,0.26583 -0.45491,-0.20667 -0.42017,-1.05 z"
         id="path154" />
      <path
         style="fill:#565656;stroke-width:0.8"
         d="m 364.49736,366.69763 c 0,-4.62 0.13223,-6.51 0.29383,-4.2 0.1616,2.31 0.1616,6.09 0,8.4 -0.1616,2.31 -0.29383,0.42 -0.29383,-4.2 z m 0.0867,-89.2 c -5e-5,-38.28 0.0976,-54.05705 0.21708,-35.06013 0.11945,18.99693 0.11949,50.31693 1e-4,69.6 -0.11939,19.28307 -0.21713,3.74013 -0.21718,-34.53987 z"
         id="path152" />
      <path
         style="fill:#0eb03e;stroke-width:0.8"
         d="m 298.20139,242.69763 c 0.79639,-0.88 1.62799,-1.6 1.84799,-1.6 0.22,0 -0.2516,0.72 -1.04799,1.6 -0.79639,0.88 -1.62798,1.6 -1.84798,1.6 -0.22,0 0.25159,-0.72 1.04798,-1.6 z"
         id="path150" />
      <path
         style="fill:#505050;stroke-width:0.8"
         d="m 368.41928,382.69763 c 0,-1.98 0.15602,-2.79 0.3467,-1.8 0.19069,0.99 0.19069,2.61 0,3.6 -0.19068,0.99 -0.3467,0.18 -0.3467,-1.8 z m 0.16574,-101.6 c 0,-40.7 0.0973,-57.35 0.21617,-37 0.1189,20.35 0.1189,53.65 0,74 -0.11889,20.35 -0.21617,3.7 -0.21617,-37 z"
         id="path148" />
      <path
         style="fill:#00ac32;stroke-width:0.8"
         d="m 147.58056,393.86041 c -5.68401,-0.79869 -12.23441,-4.24659 -16.86489,-8.87707 -15.40813,-15.40813 -10.77148,-41.11085 9.09312,-50.40661 4.6952,-2.19715 6.57933,-3.8791 4.34538,-3.8791 -0.46596,0 -0.59034,-0.41562 -0.27639,-0.92361 0.33652,-0.5445 0.22114,-0.70749 -0.28111,-0.39708 -1.24031,0.76655 -8.99528,-8.8295 -8.99528,-11.13082 0,-2.35308 3.25878,-4.69156 5.53233,-3.96997 0.88587,0.28117 3.0725,2.17193 4.85917,4.2017 l 3.24849,3.69048 -2.01999,2.10843 c -1.111,1.15963 -2.02,2.61882 -2.02,3.24265 0,0.64564 0.58155,0.28216 1.35002,-0.84377 3.00767,-4.40674 9.99189,-11.82851 11.50302,-12.22368 0.99394,-0.25992 2.41293,0.26729 3.70066,1.37495 2.81787,2.42383 2.19197,4.43351 -3.28241,10.53938 l -4.36513,4.86868 4.77108,0.88727 c 13.2293,2.46025 23.38809,12.93582 25.54743,26.34408 3.30585,20.52746 -14.75216,38.35807 -35.8455,35.39409 z m 16.63666,-5.69529 c 15.15786,-6.9785 20.60702,-25.98889 11.55605,-40.31528 -5.14011,-8.13605 -13.04202,-12.35221 -23.15045,-12.35221 -8.04269,0 -13.63354,2.14683 -18.86763,7.245 -5.99109,5.8355 -8.3538,11.47938 -8.3538,19.955 0,8.70787 1.74777,13.38321 7.13075,19.07491 6.41077,6.77844 11.99134,9.04942 21.28508,8.66187 4.34005,-0.18098 7.2371,-0.81312 10.4,-2.26929 z m -16.2325,-56.35083 c -0.26583,-0.26583 -0.95583,-0.29424 -1.53333,-0.0631 -0.63819,0.25538 -0.44862,0.44495 0.48333,0.48333 0.84333,0.0347 1.31583,-0.15434 1.05,-0.42017 z m 4,-0.8 c -0.26583,-0.26583 -0.95583,-0.29424 -1.53333,-0.0631 -0.63819,0.25538 -0.44862,0.44495 0.48333,0.48333 0.84333,0.0347 1.31583,-0.15434 1.05,-0.42017 z m -5.63052,-12.15716 -2.15281,-2.24705 v -26.09079 c 0,-14.34994 0.21851,-26.66024 0.48559,-27.35623 0.26707,-0.69599 0.98707,-1.26543 1.6,-1.26543 0.61292,0 1.11441,-0.4014 1.11441,-0.89201 0,-0.55237 -0.73689,-0.40917 -1.93535,0.37608 -1.72672,1.13139 -2.35586,1.14321 -5.83619,0.10967 -10.50046,-3.11831 -19.17882,-13.04178 -20.87726,-23.87259 -3.38078,-21.55896 16.86151,-39.7608 37.42632,-33.65371 10.06845,2.99001 18.40113,11.45013 20.81421,21.13256 l 0.8972,3.6 57.29538,-0.21569 57.2954,-0.21568 2.27169,2.17642 2.27171,2.17643 -2.21156,1.81049 -2.21155,1.81049 -57.30503,0.0288 -57.30503,0.0288 -0.93692,3.72085 c -2.51038,9.96959 -10.70195,18.55602 -20.45302,21.43891 l -4,1.18258 0.2202,27.05977 0.2202,27.05977 -2.26739,2.1723 -2.2674,2.1723 z m 12.76556,-62.16329 c 7.3335,-3.2639 12.93065,-10.31563 14.77968,-18.62066 1.04907,-4.71195 1.04907,-6.03915 0,-10.7511 -1.67913,-7.54189 -7.26022,-14.94011 -13.77958,-18.26604 -6.5751,-3.35437 -17.36726,-3.30059 -24.07207,0.11995 -4.40629,2.24792 -9.54746,7.58551 -11.88832,12.34251 -2.74895,5.58629 -2.82616,16.61755 -0.15427,22.03959 6.6737,13.54285 21.62941,19.13752 35.11456,13.13575 z m 132.44163,-12.55621 c -2.04509,-2.04509 -0.94,-4.39681 4.56222,-9.70875 6.13211,-5.92006 9.01722,-6.8563 10.57724,-3.43244 1.18818,2.60778 0.1983,4.20211 -5.97298,9.6202 -5.09156,4.47014 -7.34988,5.33759 -9.16648,3.52099 z m 2.29131,-15.77872 c -3.5974,-4.2967 -3.8122,-6.47666 -0.79713,-8.09028 1.98089,-1.06013 3.37533,-0.29043 7.91239,4.36746 2.80906,2.88386 3.24314,3.66154 2.04378,3.66154 -0.83754,0 -2.4826,0.91955 -3.6557,2.04345 l -2.1329,2.04345 z"
         id="path146" />
      <path
         style="fill:#00ab31;stroke-width:0.8"
         d="m 146.45139,331.75114 c 0.5775,-0.23109 1.2675,-0.20268 1.53333,0.0631 0.26583,0.26583 -0.20667,0.45491 -1.05,0.42018 -0.93195,-0.0384 -1.12152,-0.22795 -0.48333,-0.48333 z m -2.25,-4.39403 c 0,-0.64932 0.897,-2.02327 1.99335,-3.05323 l 1.99335,-1.87266 -2.0643,-2.8668 -2.0643,-2.86679 2.26903,2.4 2.26904,2.4 2.30716,-2.4 2.30715,-2.4 -2.12909,2.8 c -1.17101,1.54 -3.19837,4.20402 -4.50525,5.92003 -1.30688,1.71602 -2.37614,2.58877 -2.37614,1.93945 z m 0,-65.10623 c 0,-0.16332 0.72,-0.68229 1.6,-1.15325 0.88394,-0.47307 1.6,-0.52742 1.6,-0.12145 0,0.40416 -0.72,0.92312 -1.6,1.15325 -0.88,0.23013 -1.6,0.28478 -1.6,0.12145 z m 150.5934,-27.80681 2.19339,-1.79601 -2.19339,-2.35833 -2.1934,-2.35834 2.4526,2.19158 2.45261,2.19157 1.88685,-2.00845 c 1.13069,-1.20356 2.71261,-1.97955 3.94739,-1.93631 1.98377,0.0694 1.97066,0.0983 -0.35199,0.7743 -1.32691,0.38618 -3.82996,2.15371 -5.56236,3.92785 -1.7324,1.77413 -3.52675,3.21276 -3.98746,3.19693 -0.4607,-0.0158 0.14939,-0.83697 1.35576,-1.82479 z m -120.13024,-1.8131 c 0.0384,-0.93196 0.22795,-1.12152 0.48333,-0.48334 0.23109,0.5775 0.20268,1.2675 -0.0631,1.53334 -0.26584,0.26583 -0.45492,-0.20667 -0.42018,-1.05 z"
         id="path144" />
      <path
         style="fill:#3f3f3f;stroke-width:0.8"
         d="m 139.6306,342.10556 c 2.54606,-0.15924 6.50606,-0.15776 8.8,0.003 2.29393,0.16105 0.21079,0.29134 -4.62921,0.28953 -4.84,-0.002 -6.71686,-0.13357 -4.17079,-0.29281 z m 179.57079,-86.40025 c 2.75,-0.15621 7.25,-0.15621 10,0 2.75,0.15622 0.5,0.28403 -5,0.28403 -5.5,0 -7.75,-0.12781 -5,-0.28403 z M 138.43274,210.9045 c 2.76724,-0.15666 7.08724,-0.15537 9.6,0.003 2.51275,0.15825 0.24865,0.28643 -5.03135,0.28485 -5.28,-0.002 -7.3359,-0.13105 -4.56865,-0.28772 z m 135.96865,-95.19918 c 2.75,-0.15622 7.25,-0.15622 10,0 2.75,0.15621 0.5,0.28403 -5,0.28403 -5.5,0 -7.75,-0.12782 -5,-0.28403 z M 161.62821,91.706913 c 2.32474,-0.162114 5.92474,-0.16041 8,0.0038 2.07525,0.164223 0.17318,0.296861 -4.22682,0.294778 -4.4,-0.0021 -6.09793,-0.136426 -3.77318,-0.298538 z m 25.97318,-25.600467 c 2.53,-0.158761 6.67,-0.158761 9.2,0 2.53,0.15876 0.46,0.288655 -4.6,0.288655 -5.06,0 -7.13,-0.129895 -4.6,-0.288655 z m 109.2,-0.0011 c 2.75,-0.156217 7.25,-0.156217 10,0 2.75,0.156217 0.5,0.28403 -5,0.28403 -5.5,0 -7.75,-0.127813 -5,-0.28403 z m -169.6,-0.8 c 2.75,-0.156217 7.25,-0.156217 10,0 2.75,0.156217 0.5,0.28403 -5,0.28403 -5.5,0 -7.75,-0.127813 -5,-0.28403 z"
         id="path142" />
      <path
         style="fill:#3e3e3e;stroke-width:0.8"
         d="m 227.46455,283.83097 c 0.0384,-0.93196 0.22795,-1.12152 0.48333,-0.48334 0.23109,0.5775 0.20268,1.2675 -0.0631,1.53334 -0.26584,0.26583 -0.45491,-0.20668 -0.42018,-1.05 z m 91.76819,-68.12647 c 2.76725,-0.15666 7.08725,-0.15537 9.60001,0.003 2.51275,0.15825 0.24864,0.28643 -5.03136,0.28485 -5.28,-0.002 -7.33589,-0.13105 -4.56865,-0.28772 z m -209.62203,-8.77268 c 0.99513,-0.19135 2.43513,-0.18408 3.2,0.0162 0.76487,0.20024 -0.0493,0.3568 -1.80932,0.34792 -1.76,-0.009 -2.38581,-0.17271 -1.39068,-0.36406 z m 153.2485,-94.43386 c 14.0018,-0.12262 36.6818,-0.12255 50.4,1.8e-4 13.7182,0.12272 2.26218,0.22305 -25.45782,0.22296 -27.72,-1e-4 -38.94398,-0.10051 -24.94218,-0.22314 z M 187.60139,70.106446 c 2.53,-0.158761 6.67,-0.158761 9.2,0 2.53,0.15876 0.46,0.288655 -4.6,0.288655 -5.06,0 -7.13,-0.129895 -4.6,-0.288655 z"
         id="path140" />
      <path
         style="fill:#007e24;stroke-width:0.8"
         d="m 143.6302,275.89763 c 0.006,-2.2 0.16137,-3.00505 0.34525,-1.789 0.18389,1.21605 0.17897,3.01605 -0.0109,4 -0.18989,0.98395 -0.34034,-0.011 -0.33433,-2.211 z"
         id="path138" />
      <path
         style="fill:#007923;stroke-width:0.8"
         d="m 153.18699,291.49763 c 0,-1.54 0.16464,-2.17 0.36586,-1.4 0.20122,0.77 0.20122,2.03 0,2.8 -0.20122,0.77 -0.36586,0.14 -0.36586,-1.4 z m 0.0623,-8.4 c 0.004,-2.64 0.15384,-3.62355 0.33189,-2.18567 0.17804,1.43788 0.17437,3.59788 -0.008,4.8 -0.18254,1.20212 -0.32822,0.0257 -0.32373,-2.61433 z"
         id="path136" />
      <path
         style="fill:#252525;stroke-width:0.8"
         d="m 141.86454,97.430969 c 0.0384,-0.931954 0.22796,-1.12152 0.48334,-0.483333 0.23109,0.5775 0.20267,1.2675 -0.0632,1.533333 -0.26584,0.265833 -0.45491,-0.206667 -0.42018,-1.05 z"
         id="path134" />
      <path
         style="fill:#005618;stroke-width:0.8"
         d="m 228.40139,236.54617 c 0.77,-0.20122 2.03,-0.20122 2.8,0 0.77,0.20122 0.14,0.36586 -1.4,0.36586 -1.54,0 -2.17,-0.16464 -1.4,-0.36586 z m 12.8,0 c 0.77,-0.20122 2.03,-0.20122 2.8,0 0.77,0.20122 0.14,0.36586 -1.4,0.36586 -1.54,0 -2.17,-0.16464 -1.4,-0.36586 z m 10.411,-0.0226 c 1.21605,-0.18389 3.01605,-0.17897 4,0.0109 0.98395,0.18989 -0.011,0.34033 -2.211,0.33433 -2.2,-0.006 -3.00505,-0.16137 -1.789,-0.34525 z"
         id="path132" />
      <path
         style="fill:#0e0e0e;stroke-width:0.8"
         d="m 284.09934,318.89763 c -0.99509,-1.26885 -0.9668,-1.29714 0.30205,-0.30205 0.77,0.60388 1.4,1.23388 1.4,1.4 0,0.65843 -0.65695,0.23465 -1.70205,-1.09795 z m -12,-12 c -0.99509,-1.26885 -0.9668,-1.29714 0.30205,-0.30205 1.3326,1.0451 1.75639,1.70205 1.09795,1.70205 -0.16612,0 -0.79612,-0.63 -1.4,-1.4 z"
         id="path130" />
      <path
         style="fill:#020202;stroke-width:0.8"
         d="m 228.52338,153.89763 c 0,-6.82 0.1227,-9.61 0.27266,-6.2 0.14996,3.41 0.14996,8.99 0,12.4 -0.14996,3.41 -0.27266,0.62 -0.27266,-6.2 z"
         id="path128" />
      <path
         style="fill:#010101;stroke-width:0.8"
         d="m 103.78762,295.89763 c 3e-5,-48.84 0.0962,-68.70233 0.21366,-44.13851 0.11748,24.56381 0.11745,64.52381 -6e-5,88.8 -0.11751,24.27618 -0.21363,4.17851 -0.2136,-44.66149 z"
         id="path126" />
      <path
         style="fill:#000000;stroke-width:0.8"
         d="m 365.59291,385.29763 c 1.1434,-2.09 2.19805,-3.95 2.34369,-4.13334 0.14563,-0.18333 0.26479,1.52667 0.26479,3.8 0,4.03719 -0.0546,4.13334 -2.34368,4.13334 h -2.34368 z m -260.95498,2.25913 c -0.25184,-0.40748 -0.46219,-41.89748 -0.46746,-92.2 l -0.01,-91.45913 h 5.42025 c 4.28466,0 5.42025,0.25141 5.42025,1.2 0,0.86403 -1.06393,1.26827 -3.8,1.44383 l -3.8,0.24384 v 88.75616 88.75617 h 3.55278 c 3.8579,0 5.13834,1.00331 3.61813,2.83504 -1.0882,1.31121 -9.1728,1.65633 -9.93437,0.42409 z m 252.36346,-0.77354 c 0,-0.39293 0.59092,-0.94117 1.31316,-1.21831 1.09798,-0.42134 1.14747,-0.30427 0.30204,0.71441 -1.1521,1.38819 -1.6152,1.53267 -1.6152,0.5039 z m -100.25053,-5.18456 c -0.26443,-0.6891 0.25331,-2.91245 1.15053,-4.94077 1.52201,-3.44075 1.54068,-3.75413 0.27866,-4.67693 -0.74396,-0.544 -1.21857,-1.68529 -1.0547,-2.53621 0.23514,-1.22093 0.97033,-1.54712 3.487,-1.54712 3.11673,0 3.18839,0.0635 3.16044,2.8 -0.0158,1.54 -0.30999,3.61 -0.65391,4.6 -0.51146,1.47226 -0.33609,1.8 0.96317,1.8 2.8022,0 4.11934,0.92265 4.11934,2.88559 0,1.68985 -0.36362,1.91441 -3.1,1.91441 -1.705,0 -4.17319,0.21464 -5.48487,0.47697 -1.74019,0.34804 -2.51484,0.13828 -2.86566,-0.77594 z m 63.61053,0.13897 c -0.58476,-0.58476 -0.96,-3.43212 -0.96,-7.28453 0,-6.58095 -1.69261,-14.87416 -3.65889,-17.92733 -1.48062,-2.29903 -1.45624,-4.73603 0.0532,-5.31525 1.74218,-0.66853 4.08128,2.25188 5.24081,6.54323 0.55637,2.05913 1.1828,4.05507 1.39204,4.43542 0.42729,0.77667 4.63347,-5.68382 6.3048,-9.68389 1.7722,-4.24147 5.77604,-3.14642 4.19059,1.14612 -0.35627,0.96458 -2.48849,4.72164 -4.73827,8.34903 -3.85618,6.21745 -4.10863,6.95489 -4.40692,12.87333 -0.39321,7.80207 -1.08654,9.19465 -3.41733,6.86387 z m 38.01306,0.40429 c -0.20687,-0.35436 -0.64366,-3.16429 -0.97064,-6.24429 -0.5081,-4.78611 -0.70741,-5.30933 -1.37129,-3.6 -0.42723,1.1 -1.01845,3.62 -1.31384,5.6 -0.46834,3.13939 -0.78749,3.6 -2.49437,3.6 -1.59164,0 -2.06349,-0.5191 -2.52559,-2.77849 -0.31254,-1.52817 -0.95729,-2.90817 -1.43279,-3.06666 -0.4755,-0.15851 -0.86454,-1.15819 -0.86454,-2.22152 0,-1.59871 0.40039,-1.93333 2.31328,-1.93333 1.75742,0 2.42605,-0.44935 2.78261,-1.87002 0.69861,-2.78348 3.61059,-6.12998 5.33403,-6.12998 2.44208,0 3.37849,2.99605 3.47732,11.12564 0.0791,6.50888 -0.102,7.66921 -1.23264,7.8965 -0.72898,0.14655 -1.49468,-0.0235 -1.70154,-0.37785 z m -16.57306,-3.39116 c 0,-3.4314 -1.30857,-4.52152 -1.74436,-1.45313 -0.19445,1.36918 -0.79419,1.80812 -2.50578,1.83392 -1.23758,0.0186 -2.54072,0.50408 -2.89586,1.07871 -0.93504,1.51292 -3.59418,0.74328 -3.87596,-1.12182 -0.65401,-4.32902 -1.07988,-5.19081 -2.56513,-5.19081 -2.29897,0 -3.53988,-2.75875 -1.95418,-4.34444 1.56026,-1.56027 3.56237,-1.60231 5.58837,-0.11738 1.78455,1.30797 5.6517,0.84902 7.68693,-0.91228 0.73372,-0.63496 2.14949,-1.03554 3.14615,-0.89019 2.10167,0.30652 2.82205,2.3571 3.23803,9.21715 0.27619,4.55467 0.23802,4.65218 -1.91821,4.90027 -2.08082,0.23943 -2.2,0.0769 -2.2,-3 z m -202.66667,1.81353 c -0.29333,-0.29333 -0.53333,-3.50425 -0.53333,-7.13538 0,-6.82588 -1.70356,-15.40886 -3.67253,-18.50314 -1.49921,-2.35605 -1.42474,-4.16429 0.19713,-4.78665 1.83963,-0.70594 3.90188,2.07802 5.15171,6.9546 0.56439,2.20215 1.30086,4.00391 1.6366,4.00391 0.65995,0 6.28709,-9.25902 6.28709,-10.34491 0,-0.36255 0.54,-1.10734 1.2,-1.65509 1.68663,-1.39978 3.58502,0.27616 2.97842,2.62941 -0.45869,1.77946 -3.56107,7.29342 -7.11791,12.65092 -1.7448,2.6281 -2.41809,6.72996 -2.64595,16.11967 -0.018,0.74304 -2.75249,0.79541 -3.48123,0.0666 z m 88.80001,0 c -0.29334,-0.29333 -0.53334,-3.57137 -0.53334,-7.28452 0,-6.99509 -1.63058,-15.03064 -3.79318,-18.69297 -2.37892,-4.02865 0.90179,-6.6038 3.4529,-2.71031 0.71313,1.08838 1.75117,3.51838 2.30674,5.4 0.55558,1.88163 1.2984,3.42114 1.65073,3.42114 0.35232,0 2.05567,-2.7 3.7852,-6 3.26906,-6.23744 4.47291,-7.27814 6.12144,-5.29178 1.11681,1.34567 0.53039,2.71049 -5.29317,12.31912 -3.21765,5.30899 -3.55922,6.37642 -3.83992,12 -0.16944,3.39496 -0.32668,6.44266 -0.34941,6.77266 -0.0512,0.74309 -2.77971,0.79494 -3.50799,0.0666 z m 23.65001,-0.40331 c -0.54085,-0.54085 -1.01924,-2.26135 -1.06309,-3.82335 -0.0701,-2.49562 -0.14664,-2.59748 -0.63144,-0.84 -0.41945,1.52059 -1.16739,2.06009 -3.12026,2.25069 -1.4127,0.13788 -2.56856,0.58788 -2.56856,1 0,1.27738 -3.80065,0.82272 -4.31441,-0.51612 -0.26708,-0.69599 -0.48559,-2.35451 -0.48559,-3.6856 0,-1.74804 -0.31166,-2.30056 -1.12224,-1.98951 -1.87747,0.72046 -3.94766,-1.34881 -3.32189,-3.32042 0.67355,-2.12216 4.77671,-2.41003 6.90451,-0.4844 1.43562,1.29921 1.39306,1.30878 6.86744,-1.543 4.63567,-2.41487 6.18502,-0.26305 6.2418,8.66897 0.0232,3.65553 -0.25595,4.83773 -1.18627,5.02335 -0.66916,0.1335 -1.65916,-0.19977 -2.2,-0.74061 z m -90.88153,-1.08649 c -0.276,-0.71925 -0.51591,-2.44828 -0.53314,-3.84229 l -0.0313,-2.53457 -1.13007,2.6 c -1.17941,2.71354 -2.6182,3.26909 -4.2473,1.64 -0.74667,-0.74667 -0.96,-0.6768 -0.96,0.31441 0,1.64758 -2.29776,2.52635 -3.65674,1.3985 -0.57966,-0.48108 -1.16404,-2.19729 -1.2986,-3.8138 -0.18822,-2.26102 -0.59305,-2.93911 -1.75474,-2.93911 -1.86649,0 -3.31628,-2.13503 -2.64235,-3.89127 0.64721,-1.68659 4.42581,-1.7084 6.80879,-0.0393 1.40726,0.98569 2.06509,1.05971 2.94296,0.33113 0.62183,-0.51606 1.46557,-0.73127 1.87499,-0.47824 0.40942,0.25303 1.18927,-0.076 1.733,-0.73113 1.35818,-1.6365 4.5723,-1.4978 5.50095,0.2374 0.42051,0.78572 0.88317,3.93572 1.02815,7 0.24447,5.1674 0.14045,5.58898 -1.43459,5.81371 -1.00162,0.14291 -1.90401,-0.29411 -2.2,-1.06543 z m 8.86526,0.72355 c -0.3119,-0.31189 -0.56708,-1.27739 -0.56708,-2.14555 0,-0.86816 -0.57655,-2.00005 -1.28122,-2.51532 -1.15697,-0.84601 -1.1653,-1.27976 -0.0859,-4.47299 0.65743,-1.94488 1.79507,-3.90298 2.52807,-4.35134 2.1923,-1.34099 3.23903,1.13688 3.23903,7.66752 0,5.34736 -0.15727,5.93978 -1.63292,6.15101 -0.89811,0.12856 -1.88811,-0.0214 -2.2,-0.33333 z m 195.63467,-12.70041 c 0.009,-1.76 0.17271,-2.3858 0.36406,-1.39067 0.19135,0.99512 0.18409,2.43512 -0.0162,3.2 -0.20023,0.76487 -0.3568,-0.0494 -0.34792,-1.80933 z M 193.7593,364.64692 c -1.23858,-1.4924 -0.012,-3.03196 2.09082,-2.62432 2.0443,0.39631 2.30717,2.02826 0.48388,3.00405 -1.18968,0.6367 -1.80666,0.5457 -2.5747,-0.37973 z m 12.8,0 c -1.23858,-1.4924 -0.012,-3.03196 2.09082,-2.62432 2.0443,0.39631 2.30717,2.02826 0.48389,3.00405 -1.18968,0.6367 -1.80667,0.5457 -2.57471,-0.37973 z m 61.64209,-0.34929 c 0,-1.17334 0.53334,-1.6 2,-1.6 1.46667,0 2,0.42666 2,1.6 0,1.17333 -0.53333,1.6 -2,1.6 -1.46666,0 -2,-0.42667 -2,-1.6 z m 13.2,0.8 c -0.73864,-1.19515 0.2891,-2.4 2.04722,-2.4 1.01945,0 1.55278,0.54955 1.55278,1.6 0,1.69685 -2.67793,2.29194 -3.6,0.8 z m 12.78519,-0.0239 c -0.31117,-0.5035 -0.20338,-1.27785 0.23954,-1.72077 1.13649,-1.13649 3.77527,-0.4685 3.77527,0.95569 0,1.43826 -3.21957,2.0518 -4.01481,0.76508 z m 72.21481,-15.26625 c -1.30403,-2.27228 -1.4,-7.23032 -1.4,-72.33083 V 207.5853 l -3.8,-0.24384 c -3.18539,-0.20439 -3.8,-0.50261 -3.8,-1.84383 0,-1.4043 0.61282,-1.62916 5.01036,-1.83844 3.54976,-0.16893 5.1258,0.0642 5.40637,0.8 0.21782,0.57115 0.30315,34.05704 0.18965,74.4131 -0.19782,70.33279 -0.26442,73.27353 -1.60638,70.93517 z m -51.74856,-3.06111 c -0.95187,-0.60232 -0.96934,-0.94271 -0.10204,-1.98775 0.83993,-1.01205 2.83398,-1.26097 10.10135,-1.26097 9.33499,0 11.65202,0.77637 8.71857,2.92136 -1.70884,1.24953 -16.84225,1.51421 -18.71788,0.32736 z M 133.00139,345.2195 c 0,-2.0316 2.57952,-2.56709 11.3145,-2.34885 7.44178,0.18593 9.0855,0.4441 9.0855,1.427 0,0.99221 -1.76618,1.23877 -10.2,1.4239 -5.73749,0.12595 -10.2,-0.0937 -10.2,-0.50205 z m 88.5481,-0.42436 c -0.87332,-2.27585 1.33948,-2.89749 10.31395,-2.89749 6.85297,0 9.16791,0.27216 9.90887,1.16496 1.90943,2.30072 0.0374,2.83504 -9.93254,2.83504 -7.64509,0 -9.96248,-0.24829 -10.29028,-1.10251 z m 72.73666,-11.32702 c -2.08817,-2.08817 -1.19511,-4.09983 1.38119,-3.11121 1.72348,0.66136 2.22401,2.47016 0.97126,3.50986 -0.7995,0.66352 -1.39042,0.56338 -2.35245,-0.39865 z m -56.00654,-0.15893 c -0.26303,-0.26301 -0.47822,-1.1646 -0.47822,-2.00353 0,-1.87997 2.66099,-1.61606 3.03009,0.30052 0.25116,1.30418 -1.66916,2.58573 -2.55187,1.70301 z m 87.69632,-1.93514 c 0.41522,-1.24568 2.205,-1.46383 2.26772,-0.2764 0.0232,0.44 -0.55822,0.92438 -1.29214,1.0764 -0.83416,0.17279 -1.19988,-0.1271 -0.97558,-0.8 z m -44.12958,-10.19239 c -1.27063,-2.3742 0.88489,-3.7505 2.71198,-1.73159 0.76989,0.85072 1.16329,1.92944 0.87421,2.39717 -0.82881,1.34106 -2.69792,0.99415 -3.58619,-0.66558 z m -44.04496,-2.48401 c 0,-1.20492 0.41772,-1.63687 1.4,-1.4477 0.77,0.14828 1.4,0.79975 1.4,1.4477 0,0.64795 -0.63,1.29942 -1.4,1.4477 -0.98228,0.18917 -1.4,-0.24278 -1.4,-1.4477 z m 88,0 c 0,-1.06666 0.53334,-1.6 1.6,-1.6 1.06667,0 1.6,0.53334 1.6,1.6 0,1.06666 -0.53333,1.6 -1.6,1.6 -1.06666,0 -1.6,-0.53334 -1.6,-1.6 z m -55.93441,-9.47744 c -1.20718,-2.25565 0.59424,-3.6974 2.48349,-1.98765 0.79801,0.72219 1.45092,1.79727 1.45092,2.38908 0,1.60716 -3.0246,1.29856 -3.93441,-0.40143 z m -32.06559,-3.27534 c 0,-0.85404 0.28719,-1.73028 0.6382,-1.94722 1.13992,-0.70451 2.80854,0.9031 2.30348,2.21926 -0.69367,1.80768 -2.94168,1.59979 -2.94168,-0.27204 z m 88.53334,1.01944 c -1.10126,-1.10124 -0.47509,-2.66666 1.06666,-2.66666 1.06667,0 1.6,0.53334 1.6,1.6 0,1.54175 -1.56541,2.16792 -2.66666,1.06666 z M 245.39009,296.8389 c -0.64826,-0.92562 -1.21472,-1.14637 -1.54992,-0.604 -0.29055,0.47011 -1.67813,0.814 -3.08352,0.76417 -1.4054,-0.0498 -3.36088,0.17284 -4.34554,0.49477 -3.07368,1.00495 -3.1669,-1.65447 -0.24434,-6.97061 1.92484,-3.50128 2.38192,-4.99828 1.72632,-5.65388 -1.17487,-1.17487 -1.13777,-4.00563 0.0683,-5.2117 1.47628,-1.47627 4.48777,-1.13926 5.42224,0.60681 0.63483,1.18618 0.41868,2.77998 -0.88972,6.56071 -1.22128,3.52899 -1.4548,5.08505 -0.79609,5.30462 0.51268,0.17089 1.42997,0.80854 2.03841,1.41699 1.41721,1.41721 2.18113,0.54549 4.35487,-4.96931 1.60118,-4.06222 1.60205,-4.12152 0.0664,-4.52311 -0.99475,-0.26012 -1.55613,-1.09774 -1.55613,-2.32181 0,-2.48671 1.40623,-3.8349 4,-3.8349 4.34842,0 4.99681,2.87578 2.28346,10.12783 l -1.71653,4.58785 1.71653,1.13974 c 0.9441,0.62685 1.71654,1.78108 1.71654,2.56495 0,2.15036 -7.76266,2.58932 -9.2113,0.52088 z m 87.9713,1.12649 c -0.418,-0.40274 -1.62323,-0.85274 -2.67829,-1 -3.00718,-0.41972 -3.77959,-2.40272 -2.21783,-5.69387 1.62268,-3.41954 1.64349,-3.77387 0.22172,-3.77387 -0.92049,0 -2.0856,-1.5852 -2.0856,-2.83759 0,-0.16871 1.1173,-1.57927 2.48288,-3.13457 5.01116,-5.70739 8.36968,-2.35163 5.58264,5.57802 -1.5999,4.552 -1.39071,5.93268 0.90634,5.98189 0.31452,0.006 0.9695,0.75527 1.45551,1.66339 1.41393,2.64196 -1.55821,5.24878 -3.66737,3.2166 z m 8.20867,-2.22344 c -0.20928,-0.35436 -0.63145,-1.8143 -0.93815,-3.2443 -0.30671,-1.43 -0.85052,-2.6 -1.20849,-2.6 -1.18871,0 -1.6646,-2.58476 -0.69171,-3.75702 0.52685,-0.63482 1.59156,-0.98852 2.366,-0.786 1.01174,0.26458 1.64955,-0.3244 2.26588,-2.09243 1.19096,-3.41636 3.14533,-5.36455 5.3816,-5.36455 2.54063,0 3.21992,2.05986 3.5698,10.82481 l 0.2864,7.17519 h -2 c -1.9195,0 -2.01632,-0.2415 -2.4056,-6 l -0.4056,-6 -0.9408,3.2 c -0.51744,1.76 -1.24768,4.45753 -1.62276,5.9945 -0.6338,2.59715 -2.7724,4.14691 -3.65657,2.6498 z m -21.76564,-3.43052 c -0.29937,-1.36302 -0.31039,-4.17902 -0.0245,-6.25779 0.56995,-4.14406 -2.02077,-15.50134 -4.06471,-17.81898 -1.44209,-1.63519 -1.40738,-2.69747 0.12979,-3.97321 1.80033,-1.49415 3.86225,0.89904 5.81154,6.74523 l 1.57012,4.70903 3.24107,-5.90903 c 4.5628,-8.31876 4.37279,-8.07931 5.93364,-7.47757 2.24535,0.86562 1.68244,2.78379 -3.17225,10.80962 -4.40177,7.27707 -4.5882,7.81247 -5,14.35892 -0.38992,6.1987 -0.5804,6.82175 -2.15408,7.04598 -1.36213,0.1941 -1.84117,-0.27684 -2.27064,-2.2322 z m -180.43927,-0.0815 c -0.60869,-1.13735 -0.75966,-3.39526 -0.42487,-6.35438 0.55789,-4.93109 -1.66097,-15.3657 -4.04929,-19.04255 -1.4752,-2.27108 -0.9031,-4.13537 1.26903,-4.13537 1.85766,0 4.38808,4.37026 5.27846,9.11634 0.40199,2.14284 0.77715,2.72297 1.26927,1.9628 0.41244,-0.6371 0.61566,3.17691 0.49612,9.31105 -0.17544,9.00275 -0.38222,10.42465 -1.54851,10.64827 -0.75384,0.14453 -1.76141,-0.5181 -2.29021,-1.50616 z m 14.43624,-0.7072 c 0,-1.92524 0.26506,-2.27708 1.4,-1.85835 2.88732,1.0653 2.97294,4.23325 0.11441,4.23325 -1.14579,0 -1.51441,-0.57807 -1.51441,-2.3749 z m 7.11144,1.43054 c -0.0487,-0.5806 -0.0216,-1.87598 0.0603,-2.87861 0.0864,-1.05801 -0.60332,-2.43201 -1.64362,-3.27439 l -1.79243,-1.45142 1.80353,-3.72561 c 0.99195,-2.04909 2.26734,-3.72561 2.83422,-3.72561 2.22013,0 2.89334,2.25799 2.66019,8.92246 -0.21806,6.23329 -0.35335,6.69455 -2.0336,6.93318 -1.05768,0.15022 -1.83652,-0.1797 -1.88856,-0.8 z m 67.24269,-1.1763 c -0.44346,-1.16636 -0.5844,-4.13636 -0.31322,-6.6 0.54424,-4.94432 -1.98645,-16.11744 -4.22409,-18.64954 -1.51894,-1.71882 -0.78169,-3.8298 1.33753,-3.8298 1.74742,0 3.68275,3.08054 5.26057,8.37346 l 0.94601,3.17346 2.25945,-3.57346 c 1.24271,-1.9654 2.79779,-4.94047 3.45574,-6.61125 0.91862,-2.33272 1.58244,-2.9826 2.86008,-2.8 2.91868,0.41714 2.24996,3.21429 -2.71134,11.34113 -4.80686,7.87387 -4.82486,7.92652 -4.82486,14.11441 0,4.92569 -0.26188,6.31156 -1.26543,6.69666 -1.8491,0.70957 -1.90051,0.67933 -2.78044,-1.63507 z m -74.34188,-9.32656 c -0.007,-1.83037 0.30721,-2.84977 0.78775,-2.55278 1.01108,0.62489 1.01108,2.83546 0,4.4 -0.57567,0.89078 -0.77866,0.4148 -0.78775,-1.84722 z m 26.6791,-7.34743 c -0.27709,-0.72209 -0.1202,-1.6965 0.34865,-2.16535 1.21889,-1.21889 3.52833,-0.10487 3.20993,1.54839 -0.35464,1.84151 -2.91812,2.28595 -3.55858,0.61696 z m 12.81265,0.033 c -0.61046,-1.59084 0.29389,-2.83831 2.05762,-2.83831 1.78988,0 2.64487,1.8735 1.41587,3.10251 -1.24906,1.24906 -2.94222,1.12027 -3.47349,-0.2642 z m 13.37942,0.43018 c -1.50706,-0.95427 -0.51165,-3.26849 1.40588,-3.26849 1.85006,0 2.7385,1.8522 1.48819,3.10251 -1.07173,1.07173 -1.43108,1.09234 -2.89407,0.16598 z m 61.90177,-0.0924 c -0.31117,-0.5035 -0.20338,-1.27785 0.23954,-1.72077 1.13649,-1.13649 3.77527,-0.46849 3.77527,0.95569 0,1.43826 -3.21957,2.0518 -4.01481,0.76508 z m 12.84308,0.0697 c -0.82866,-1.34081 0.29068,-2.44575 2.4776,-2.44575 1.48399,0 1.94148,0.36713 1.74462,1.4 -0.30013,1.57469 -3.41804,2.34693 -4.22222,1.04575 z m 12.88712,-0.43355 c -0.56174,-1.46384 1.95929,-2.95491 3.44429,-2.03712 0.59041,0.36489 0.85231,1.23977 0.582,1.94418 -0.61853,1.61188 -3.41862,1.67652 -4.02629,0.0929 z m 19.48461,-17.21217 c 0,-1.51795 0.53334,-1.6 10.4,-1.6 9.86667,0 10.4,0.082 10.4,1.6 0,1.51795 -0.53333,1.6 -10.4,1.6 -9.86666,0 -10.4,-0.0821 -10.4,-1.6 z m -172,-0.24761 c -7.89163,-2.24445 -7.39184,-2.90214 2.2251,-2.92806 7.41173,-0.02 9.1098,0.19636 9.49884,1.21018 0.26054,0.67897 0.25716,1.45105 -0.008,1.71574 -0.98871,0.9887 -8.24295,0.99003 -11.71642,0.002 z m 80.88342,0.3161 c -0.61411,-0.38886 -0.8954,-1.28334 -0.6251,-1.98775 0.73326,-1.91084 19.5501,-1.91084 20.28336,0 0.81483,2.12342 -1.33539,2.69476 -10.14168,2.69476 -4.62,0 -8.90246,-0.31815 -9.51658,-0.70701 z m 24.36716,-6.28458 c -0.96526,-0.96526 -0.37287,-3.20626 1.23132,-4.65803 0.92505,-0.83716 2.17557,-2.47674 2.77893,-3.64352 0.9419,-1.82141 0.93031,-2.25978 -0.0819,-3.09985 -2.32319,-1.92807 -1.36889,-3.18251 2.42107,-3.18251 3.32173,0 3.6,0.15707 3.6,2.03187 0,1.11753 -0.71534,3.43407 -1.58966,5.14786 l -1.58966,3.11599 2.18966,0.25214 c 1.73507,0.1998 2.18966,0.66736 2.18966,2.25214 0,1.92225 -0.20797,2.00456 -5.34942,2.11725 -2.94218,0.0645 -5.55218,-0.0855 -5.8,-0.33334 z m 92.03223,-0.73727 c -0.25004,-0.79565 -0.33713,-3.58874 -0.19355,-6.20686 0.19378,-3.53339 0.62902,-4.97666 1.68876,-5.6 1.04078,-0.61219 1.52446,-0.57428 1.78473,0.13989 0.25338,0.69527 0.99101,0.51096 2.54083,-0.63488 3.74174,-2.76638 5.66162,-0.76989 5.6855,5.91236 0.006,1.68142 0.53563,3.58184 1.17693,4.22315 1.95007,1.95007 0.61219,3.63605 -2.6678,3.36193 l -2.89821,-0.24223 0.20817,-3.9415 c 0.2355,-4.45882 -0.41689,-4.28362 -2.21413,0.59462 -1.35864,3.68775 -4.27528,5.05358 -5.11123,2.39352 z m -175.92182,0.0477 c -0.30855,-0.30854 -0.56099,-1.32097 -0.56099,-2.24986 0,-0.92888 -0.748,-2.32933 -1.66223,-3.11211 -1.52876,-1.30897 -1.56489,-1.57181 -0.4499,-3.27349 0.66678,-1.01763 1.52606,-3.06719 1.90951,-4.55455 0.47127,-1.82799 1.23215,-2.78282 2.34808,-2.9466 2.23745,-0.32839 2.45272,0.68637 1.91651,9.03427 -0.36044,5.61127 -0.73429,7.24377 -1.70098,7.42765 -0.68146,0.12963 -1.49146,-0.0168 -1.8,-0.32531 z m 157.19901,-0.45432 c -0.58541,-0.58541 -0.96461,-3.4729 -0.97182,-7.4 -0.0126,-6.90271 -1.72926,-15.71521 -3.62463,-18.6079 -1.49159,-2.27646 -1.48028,-3.93937 0.0307,-4.5192 1.78344,-0.68437 3.93205,2.11137 5.53798,7.20595 l 1.43013,4.53689 2.44,-3.92022 c 1.342,-2.15612 2.9303,-5.09365 3.52955,-6.52786 0.69561,-1.66483 1.64709,-2.60766 2.63159,-2.60766 3.49449,0 2.64445,3.11816 -3.43516,12.60096 -3.48603,5.43743 -3.7378,6.196 -4.01737,12.10431 -0.37127,7.84584 -1.19161,9.49411 -3.55099,7.13473 z m 11.3451,-1.18806 c -0.3033,-1.23857 -0.9286,-2.49804 -1.38956,-2.79883 -0.56031,-0.36563 -0.31842,-2.08917 0.72982,-5.2 1.20941,-3.5892 1.97149,-4.71071 3.333,-4.90504 2.34777,-0.33511 2.85114,1.88881 2.04885,9.05193 -0.55359,4.94275 -0.83515,5.62957 -2.39893,5.85194 -1.37288,0.19521 -1.89587,-0.25502 -2.32318,-2 z m -180.78714,-0.8 c -0.29622,-1.23857 -0.86575,-2.66908 -1.26563,-3.17891 -1.06369,-1.35621 1.97787,-10.20884 3.61787,-10.52999 2.24675,-0.43997 3.09285,2.93227 2.37975,9.48476 -0.57891,5.31942 -0.84361,5.99974 -2.42168,6.22414 -1.37504,0.19553 -1.8923,-0.25226 -2.31031,-2 z m 88.37602,-1.49878 c -1.33866,-2.84787 -1.53072,-4.03093 -0.87664,-5.4 0.46067,-0.96424 1.03892,-2.38316 1.28501,-3.15316 0.29983,-0.93817 1.26995,-1.4 2.9408,-1.4 h 2.49336 l -0.56565,6.2 c -0.31112,3.41 -0.72308,6.47 -0.91548,6.8 -0.91839,1.57523 -2.8099,0.25383 -4.3614,-3.04684 z m -100.1269,2.34726 c -0.3119,-0.3119 -0.56708,-3.60512 -0.56708,-7.31827 0,-6.95353 -1.65125,-15.2366 -3.6589,-18.354 -1.51261,-2.34872 -1.44308,-4.16248 0.1835,-4.78666 1.85247,-0.71086 4.01589,2.21958 5.56005,7.53132 l 1.274,4.38239 3.09242,-5.0776 c 1.70084,-2.79268 3.10514,-5.48352 3.12068,-5.97965 0.0155,-0.49612 0.58631,-1.36519 1.2684,-1.93127 1.01909,-0.84577 1.45275,-0.81663 2.43287,0.16349 1.5361,1.5361 0.85763,3.35246 -4.44706,11.90537 -3.88824,6.26914 -4.05848,6.78644 -4.2934,13.04622 -0.21672,5.77506 -0.42441,6.54489 -1.82151,6.75199 -0.86729,0.12856 -1.83208,-0.0214 -2.14397,-0.33333 z m 88.71851,-0.76585 c -0.26708,-0.69598 -0.48559,-3.57598 -0.48559,-6.4 v -5.13457 h 2.3996 2.3996 l -0.34659,5.8 c -0.19063,3.19 -0.37044,6.07 -0.3996,6.4 -0.10143,1.14812 -3.08506,0.59159 -3.56742,-0.66543 z m -3.58329,-23.90659 c -1.9192,-3.61771 -1.85978,-6.02798 0.1486,-6.02798 1.51739,0 3.34655,2.27599 4.43582,5.51938 1.25246,3.72931 1.176,4.08062 -0.8881,4.08062 -1.3166,0 -2.31132,-0.96127 -3.69632,-3.57202 z m 10.2259,-0.3062 c 1.25767,-2.13302 2.53259,-4.65302 2.83315,-5.6 0.57693,-1.81775 1.72814,-2.14748 3.52426,-1.0094 1.31849,0.83543 0.67533,3.22832 -2.01252,7.48762 -1.49255,2.36517 -2.39451,3 -4.26237,3 h -2.36921 z m 79.2718,-10.52178 c 0,-1.58929 0.36223,-1.63985 10.2,-1.4239 8.43383,0.18513 10.2,0.43169 10.2,1.4239 0,0.99222 -1.76617,1.23877 -10.2,1.42391 -9.83777,0.21594 -10.2,0.16538 -10.2,-1.42391 z m -180.8,-0.8 c 0,-1.58929 0.36223,-1.63985 10.2,-1.4239 8.43382,0.18513 10.2,0.43169 10.2,1.4239 0,0.99222 -1.76618,1.23877 -10.2,1.42391 -9.83777,0.21594 -10.2,0.16538 -10.2,-1.42391 z m 89.104,0.43831 c -0.91607,-2.38724 0.60704,-2.83828 9.54322,-2.82606 9.34271,0.0128 11.51712,0.56318 10.69446,2.70702 -0.69526,1.81184 -19.54554,1.92272 -20.23768,0.11904 z m 2.98545,-37.41247 c -4.79766,-5.47121 -5.72496,-6.97811 -5.52715,-8.98176 0.35662,-3.61208 3.38274,-4.87055 6.82625,-2.83883 l 2.61145,1.54079 v -13.1547 c 0,-13.05208 0.0152,-13.16452 1.94635,-14.42988 1.59752,-1.04674 2.27858,-1.10027 3.8,-0.29868 1.01951,0.53714 2.11814,1.37273 2.4414,1.85685 0.32327,0.48414 0.59327,6.60604 0.6,13.60424 0.0118,12.27573 0.0638,12.67734 1.47524,11.4 2.0881,-1.88971 5.403,-1.67132 6.89165,0.45401 1.83382,2.61815 1.62166,3.29009 -2.64605,8.38046 -9.81222,11.70368 -10.26652,11.76453 -18.41914,2.46737 z m 89.43801,-21.46924 c -0.73027,-0.4504 -1.27575,-2.74939 -1.54843,-6.52599 l -0.42096,-5.83061 -0.94664,3.2 c -0.52064,1.76 -1.16171,4.57236 -1.4246,6.24968 -0.40022,2.55361 -0.75852,3.00905 -2.20277,2.8 -1.21219,-0.17548 -1.87855,-1.006 -2.24211,-2.79449 -0.28452,-1.39965 -1.10784,-3.13537 -1.82962,-3.85715 -0.72178,-0.72177 -1.31233,-1.60252 -1.31233,-1.95722 0,-1.09188 2.2878,-2.61203 3.37311,-2.2413 0.59199,0.20223 1.87392,-1.20569 3.02689,-3.32436 1.50222,-2.76044 2.53417,-3.73687 4.14619,-3.9231 2.94504,-0.34024 3.57556,1.19036 4.25512,10.32926 0.47162,6.34256 0.3692,7.75882 -0.58762,8.12599 -0.63733,0.24456 -1.66614,0.13174 -2.28623,-0.25071 z m -38.82139,-0.90858 c -0.35371,-0.57231 -0.5653,-3.6497 -0.47021,-6.83862 0.18601,-6.23761 -1.83734,-15.23652 -4.25569,-18.92738 -1.10529,-1.68689 -1.17798,-2.32072 -0.37685,-3.28602 2.29701,-2.76772 4.85008,0.0827 6.76544,7.5535 l 0.91003,3.5495 2.5428,-4.13258 c 1.39854,-2.27292 3.08402,-5.4279 3.74551,-7.01106 0.84081,-2.01234 1.62852,-2.79772 2.61781,-2.61008 2.85869,0.54222 2.02694,4.02038 -2.73924,11.45472 -4.50356,7.02474 -4.62603,7.36535 -5.0308,13.99223 -0.33472,5.47992 -0.67095,6.84093 -1.74028,7.04429 -0.72897,0.13864 -1.61481,-0.21618 -1.96852,-0.7885 z m 21.79576,-0.27115 c -0.27601,-0.71925 -0.55085,-2.44828 -0.61077,-3.8423 -0.0766,-1.78093 -0.20977,-2.01663 -0.44803,-0.79266 -0.5178,2.65998 -2.21176,3.74519 -4.19189,2.68546 -1.31577,-0.70417 -1.65114,-0.64775 -1.65114,0.27782 0,1.51185 -1.63191,2.06793 -3.4,1.15857 -0.98281,-0.50548 -1.4,-1.68129 -1.4,-3.94581 0,-2.78003 -0.20548,-3.16055 -1.48705,-2.75379 -1.92456,0.61083 -3.59789,-1.40609 -2.92513,-3.52576 0.64012,-2.01685 4.04676,-2.20533 6.66854,-0.36896 1.40727,0.98568 2.06509,1.0597 2.94296,0.33112 0.62183,-0.51606 1.46557,-0.73127 1.87499,-0.47824 0.40942,0.25304 1.18927,-0.076 1.733,-0.73112 0.54373,-0.65516 2.01767,-1.1912 3.2754,-1.1912 2.73248,0 3.44048,1.86804 3.48691,9.2 0.0272,4.29452 -0.14845,4.82552 -1.66779,5.0423 -1.00163,0.14291 -1.90402,-0.2941 -2.2,-1.06543 z m -27.96849,-34.5102 c -0.29334,-0.29333 -0.53334,-1.01333 -0.53334,-1.6 0,-0.83419 2.26667,-1.06666 10.4,-1.06666 9.86667,0 10.4,0.082 10.4,1.59999 0,1.51352 -0.53333,1.6 -9.86666,1.6 -5.42667,0 -10.10667,-0.24 -10.4,-0.53333 z m -33.33334,-8.26666 c 0,-1.60109 0.34018,-1.61032 51.8,-1.40584 45.41964,0.18048 51.8,0.35364 51.8,1.40584 0,1.05219 -6.38036,1.22535 -51.8,1.40583 -51.45982,0.20448 -51.8,0.19525 -51.8,-1.40583 z m -38.66667,-2.93334 c -0.29333,-0.29333 -0.53333,-1.89209 -0.53333,-3.55278 0,-1.6607 -0.40153,-3.26762 -0.89229,-3.57092 -1.27182,-0.786031 -0.37519,-7.418344 1.21832,-9.011856 1.00058,-1.000578 1.62625,-1.101331 2.68898,-0.433014 1.10816,0.696888 1.43142,2.269005 1.61729,7.86555 0.14838,4.46762 -0.10378,7.39952 -0.69796,8.11547 -0.99289,1.19635 -2.52715,1.46141 -3.40101,0.58755 z m 7.95143,-0.69619 c -0.70662,-0.70662 -1.28476,-2.08705 -1.28476,-3.06762 0,-0.98057 -0.41231,-2.19516 -0.91623,-2.69908 -0.6883,-0.6883 -0.66349,-1.818887 0.0997,-4.544798 1.12899,-4.032376 2.5828,-5.673337 4.40633,-4.973584 1.67672,0.64342 1.75938,14.262902 0.0949,15.644262 -0.86106,0.71462 -1.40806,0.63276 -2.4,-0.35918 z m -67.52476,-0.53047 c -0.528,-0.528 -0.96,-1.97289 -0.96,-3.21086 0,-1.23797 -0.4201,-2.92354 -0.93356,-3.745714 -0.6509,-1.042256 -0.71145,-2.527634 -0.2,-4.905903 0.7856,-3.65303 2.50958,-5.341647 4.62482,-4.529953 1.08227,0.415307 1.30874,1.793993 1.30874,7.967318 0,6.816122 -0.65696,9.385112 -2.4,9.385112 -0.264,0 -0.912,-0.432 -1.44,-0.96 z m 6.6556,-2.83817 c -0.30935,-1.64899 -0.95155,-3.23864 -1.4271,-3.53255 -1.1667,-0.721056 1.13259,-7.918976 2.88215,-9.022571 2.48347,-1.566533 3.38756,0.938019 3.08756,8.553286 -0.26415,6.704965 -0.35384,7.000005 -2.12796,7.000005 -1.50672,0 -1.9571,-0.55922 -2.41465,-2.99817 z m 102.54539,2.49249 c -0.30854,-0.30855 -0.56099,-3.38761 -0.56099,-6.842364 0,-6.491003 -2.31862,-17.12315 -4.37414,-20.057814 -1.35594,-1.935874 -0.76117,-3.794146 1.21436,-3.794146 1.946,0 3.64705,2.556716 4.86638,7.314267 0.54773,2.137153 1.19782,3.883457 1.44464,3.880674 0.50914,-0.0058 2.55458,-3.41464 5.39722,-8.994941 1.86191,-3.65506 3.57733,-4.738107 4.67964,-2.954532 0.87197,1.410876 -0.19644,4.036977 -4.53812,11.154532 -3.91723,6.421712 -4.17419,7.177841 -4.61898,13.591978 -0.3637,5.244556 -0.75328,6.845676 -1.71001,7.027656 -0.68145,0.12962 -1.49145,-0.0168 -1.8,-0.32531 z m 70.19729,-0.51457 c -0.24029,-0.62617 -0.3292,-3.62278 -0.19758,-6.659126 0.23417,-5.402242 0.28553,-5.520628 2.39467,-5.520628 1.18545,0 2.60745,-0.45 3.16,-1 1.27072,-1.264857 3.28199,-1.282638 4.52463,-0.04 0.528,0.528 0.96,2.918312 0.96,5.311805 0,3.133989 0.37219,4.623959 1.32999,5.324319 2.19405,1.60433 0.74964,3.75123 -2.32448,3.45497 -2.49704,-0.24064 -2.62215,-0.41761 -3.00551,-4.25109 l -0.4,-4.000004 -1.06607,2.800004 c -1.65745,4.35324 -2.20632,5.18049 -3.6221,5.45912 -0.72416,0.14252 -1.51326,-0.2532 -1.75355,-0.87937 z m -48.75539,-0.77975 c -0.1908,-0.55 -0.47338,-2.44 -0.62795,-4.2 l -0.28105,-3.200004 -0.66174,2.673954 c -0.5852,2.36472 -0.92245,2.63568 -2.91624,2.34306 -1.4348,-0.21059 -2.40982,0.0738 -2.68164,0.78215 -0.23723,0.61821 -1.22896,0.99919 -2.23069,0.85694 -1.43998,-0.20447 -1.88422,-0.89466 -2.20358,-3.4236 -0.32361,-2.562578 -0.78115,-3.256796 -2.3958,-3.635078 -2.38782,-0.559421 -3.10414,-3.107078 -1.25401,-4.45993 1.50758,-1.102371 4.22643,-0.649651 6.17039,1.027441 0.88944,0.767347 1.49251,0.861101 1.84721,0.287177 0.28965,-0.468663 1.25111,-0.852114 2.13657,-0.852114 0.88546,0 2.14993,-0.54 2.80993,-1.2 1.35026,-1.35026 2.57999,-1.496007 4.16215,-0.493293 1.09599,0.694593 2.85124,12.515877 2.05071,13.811157 -0.64548,1.04442 -3.53282,0.81055 -3.92426,-0.31786 z m 8.93045,0.46666 c -0.29334,-0.29333 -0.53334,-1.24364 -0.53334,-2.1118 0,-0.86816 -0.60705,-2.02237 -1.34902,-2.5649 -1.24546,-0.910704 -1.25342,-1.285976 -0.10375,-4.888199 1.02994,-3.227087 1.57446,-3.901765 3.14902,-3.901765 1.7805,0 1.93312,0.362567 2.35733,5.6 0.24947,3.080004 0.1468,6.230004 -0.22815,7.000004 -0.68979,1.41655 -2.31449,1.84427 -3.29209,0.86666 z m 32.82765,0.0277 c -0.30854,-0.30855 -0.56099,-1.2713 -0.56099,-2.13946 0,-0.86816 -0.60386,-2.02003 -1.34191,-2.55971 -1.25588,-0.918319 -1.25588,-1.162519 0,-3.809093 0.73805,-1.555328 1.34191,-3.359381 1.34191,-4.009009 0,-2.017267 2.19391,-3.344004 3.6,-2.177052 1.27222,1.055845 1.56959,8.898559 0.48518,12.795794 -0.54851,1.97128 -2.4351,2.98761 -3.52419,1.89853 z m -122.63539,-2.30594 c -0.29203,-1.16351 -0.30288,-4.056048 -0.0241,-6.427851 0.55025,-4.681726 -1.87043,-15.622798 -3.98764,-18.023526 -0.61266,-0.694645 -1.11388,-1.826129 -1.11388,-2.514408 0,-1.363796 2.10157,-2.501468 3.27788,-1.774464 1.06575,0.658669 3.15352,4.916034 4.25892,8.684753 l 0.95827,3.267112 3.29596,-6 c 4.21674,-7.676187 4.81505,-8.35685 6.27828,-7.142477 1.75649,1.457759 1.44887,2.38188 -3.46931,10.422268 -4.4568,7.286095 -4.61246,7.731901 -5,14.320209 -0.36863,6.266694 -0.53895,6.819754 -2.17172,7.051934 -1.34815,0.1917 -1.89867,-0.25382 -2.30268,-1.86355 z m 98.38639,0.87074 c -0.72784,-1.89671 0.302,-3.81227 1.8856,-3.50729 0.88561,0.17055 1.40241,0.99902 1.40241,2.24817 0,2.2805 -2.52502,3.24744 -3.28801,1.25912 z m 11.29104,-1.24535 c -0.29937,-1.36301 -0.3096,-4.184774 -0.0227,-6.270584 0.57821,-4.204096 -1.9939,-15.547209 -4.03765,-17.806183 -2.69691,-2.980917 -0.0531,-6.170915 2.89966,-3.498706 0.87051,0.787794 2.24776,3.598677 3.06057,6.246408 l 1.47783,4.814056 3.26335,-5.949382 c 4.58841,-8.365066 4.39425,-8.119983 5.95593,-7.517927 2.26358,0.872649 1.66898,2.888401 -3.2,10.848335 -4.4568,7.286095 -4.61245,7.731901 -5,14.320209 -0.36524,6.209024 -0.55003,6.821374 -2.12633,7.045984 -1.36213,0.19409 -1.84117,-0.27684 -2.27064,-2.23221 z m -169.46363,-0.71677 c -0.26245,-1.31224 -0.2783,-4.120888 -0.0352,-6.241445 0.48498,-4.231035 -1.96805,-14.883141 -4.21824,-18.317365 -1.02648,-1.566601 -1.0816,-2.179479 -0.28261,-3.142199 2.07472,-2.499883 3.8502,-0.857848 6.00916,5.557499 l 1.7911,5.322239 2.25868,-3.837867 c 1.24227,-2.110826 2.92925,-5.217638 3.74884,-6.904026 1.03288,-2.125253 1.86295,-2.92311 2.70496,-2.6 0.66814,0.256388 1.36535,0.46616 1.54936,0.46616 1.37321,0 -0.37569,4.39123 -4.23028,10.621593 -4.40874,7.126084 -4.57973,7.610949 -5,14.178407 -0.39353,6.149594 -0.59695,6.823094 -2.12686,7.041454 -1.31818,0.18813 -1.79707,-0.28535 -2.16888,-2.14445 z m 28.6606,-7.297004 c -1.14116,-1.846435 0.89947,-2.4 8.84721,-2.4 7.81945,0 8.35279,0.102161 8.35279,1.6 0,1.497838 -0.53334,1.6 -8.35279,1.6 -4.70557,0 -8.56868,-0.349317 -8.84721,-0.8 z m 66.25832,-5.28074 c -0.71742,-1.869543 1.16336,-2.694759 6.14168,-2.694759 4.97832,0 6.8591,0.825216 6.14168,2.694759 -0.38643,1.007038 -1.69895,1.28074 -6.14168,1.28074 -4.44273,0 -5.75525,-0.273702 -6.14168,-1.28074 z m -65.69177,-2.118579 c -1.94919,-2.348623 0.15916,-3.067852 8.29956,-2.831266 7.3237,0.212851 7.93389,0.353641 7.93389,1.830585 0,1.473076 -0.60917,1.618048 -7.67921,1.827513 -5.60747,0.166132 -7.91528,-0.05694 -8.55424,-0.826832 z m 83.31161,-17.029706 c -0.90962,-2.370458 0.94962,-2.826563 10.58838,-2.597518 8.92461,0.212075 9.53346,0.328727 9.53346,1.826543 0,1.500852 -0.60825,1.613927 -9.81561,1.824748 -8.38995,0.192106 -9.88687,0.03905 -10.30623,-1.053773 z M 150.3366,69.297636 c -0.19757,-0.33 -0.48882,-3.12 -0.64721,-6.199999 -0.28372,-5.5168 -0.25829,-5.6 1.712,-5.6 1.84242,0 2.03151,0.346666 2.4,4.4 0.54312,5.974324 0.12632,7.999999 -1.64605,7.999999 -0.80274,0 -1.62117,-0.27 -1.81874,-0.6 z m 31.46479,-1 c 0,-1.517948 0.53333,-1.6 10.4,-1.6 9.86666,0 10.4,0.08205 10.4,1.6 0,1.517949 -0.53334,1.6 -10.4,1.6 -9.86667,0 -10.4,-0.08205 -10.4,-1.6 z m 110.1567,1.090032 c -0.30619,-0.306184 -0.5567,-1.036698 -0.5567,-1.623365 0,-0.834495 2.27644,-1.066667 10.45866,-1.066667 9.52954,0 10.43481,0.124372 10.19026,1.4 -0.23499,1.225753 -1.46741,1.427801 -9.90196,1.623366 -5.29846,0.12285 -9.88408,-0.02715 -10.19026,-0.333334 z M 122.33472,68.564303 c -0.29333,-0.293333 -0.53333,-1.013333 -0.53333,-1.6 0,-0.834188 2.26666,-1.066667 10.4,-1.066667 9.86666,0 10.4,0.08205 10.4,1.6 0,1.513514 -0.53334,1.6 -9.86667,1.6 -5.42667,0 -10.10667,-0.24 -10.4,-0.533333 z"
         id="path124" />
    </g>
  </g>
</svg>
